<?xml version="1.0" encoding="UTF-8" standalone="no"?>
<!DOCTYPE svg PUBLIC "-//W3C//DTD SVG 1.1//EN" "http://www.w3.org/Graphics/SVG/1.1/DTD/svg11.dtd">
<svg width="100%" height="100%" viewBox="0 0 4000 4000" version="1.1" xmlns="http://www.w3.org/2000/svg" xmlns:xlink="http://www.w3.org/1999/xlink" xml:space="preserve" xmlns:serif="http://www.serif.com/" style="fill-rule:evenodd;clip-rule:evenodd;stroke-linejoin:round;stroke-miterlimit:2;">
    <g>
        <g>
            <rect x="0" y="0" width="4000" height="4000" style="fill:rgb(165,225,210);"/>
            <path d="M1466.1,3293.8C1293.4,3143.2 1182.5,2506 1414.3,2782.9C1646.1,3059.8 2128.7,3871.4 1466.1,3293.8Z" style="fill:rgb(0,114,114);fill-rule:nonzero;"/>
            <path d="M822,0C822,0 799.4,936.8 959.3,2010.8C1119.2,3084.8 1847.4,3613.3 2454,4000L0,4000L0,0L822,0Z" style="fill:rgb(0,114,114);fill-rule:nonzero;"/>
            <g>
                <circle cx="1359.9" cy="3712.2" r="34.3" style="fill:rgb(165,225,210);"/>
                <circle cx="1359.9" cy="3369.3" r="34.3" style="fill:rgb(165,225,210);"/>
                <circle cx="1359.9" cy="3026.4" r="17.1" style="fill:rgb(165,225,210);"/>
                <circle cx="1359.9" cy="2683.5" r="17.1" style="fill:rgb(165,225,210);"/>
                <circle cx="1359.9" cy="2340.6" r="11.4" style="fill:rgb(165,225,210);"/>
                <circle cx="1359.9" cy="1997.7" r="5.7" style="fill:rgb(165,225,210);"/>
                <circle cx="1017" cy="3712.2" r="34.3" style="fill:rgb(165,225,210);"/>
                <circle cx="1017" cy="3369.3" r="17.1" style="fill:rgb(165,225,210);"/>
                <circle cx="1017" cy="3026.4" r="17.1" style="fill:rgb(165,225,210);"/>
                <circle cx="1017" cy="2683.5" r="11.4" style="fill:rgb(165,225,210);"/>
                <circle cx="1017" cy="2340.6" r="5.7" style="fill:rgb(165,225,210);"/>
                <circle cx="2045.7" cy="3712.2" r="34.3" style="fill:rgb(165,225,210);"/>
                <circle cx="2045.7" cy="3369.3" r="34.3" style="fill:rgb(165,225,210);"/>
                <circle cx="2045.7" cy="3026.4" r="34.3" style="fill:rgb(165,225,210);"/>
                <circle cx="2045.7" cy="2683.5" r="34.3" style="fill:rgb(165,225,210);"/>
                <circle cx="2045.7" cy="2340.6" r="17.1" style="fill:rgb(165,225,210);"/>
                <circle cx="2045.7" cy="1997.7" r="17.1" style="fill:rgb(165,225,210);"/>
                <circle cx="2045.7" cy="1654.8" r="11.4" style="fill:rgb(165,225,210);"/>
                <circle cx="2045.7" cy="1311.9" r="5.7" style="fill:rgb(165,225,210);"/>
                <circle cx="1702.8" cy="3712.2" r="34.3" style="fill:rgb(165,225,210);"/>
                <circle cx="1702.8" cy="3369.3" r="34.3" style="fill:rgb(165,225,210);"/>
                <circle cx="1702.8" cy="3026.4" r="34.3" style="fill:rgb(165,225,210);"/>
                <circle cx="1702.8" cy="2683.5" r="17.1" style="fill:rgb(165,225,210);"/>
                <circle cx="1702.8" cy="2340.6" r="17.1" style="fill:rgb(165,225,210);"/>
                <circle cx="1702.8" cy="1997.7" r="11.4" style="fill:rgb(165,225,210);"/>
                <circle cx="1702.8" cy="1654.8" r="5.7" style="fill:rgb(165,225,210);"/>
                <circle cx="2388.6" cy="3712.2" r="34.3" style="fill:rgb(165,225,210);"/>
                <circle cx="2388.6" cy="3369.3" r="34.3" style="fill:rgb(165,225,210);"/>
                <circle cx="2388.6" cy="3026.4" r="34.3" style="fill:rgb(165,225,210);"/>
                <circle cx="2388.6" cy="2683.5" r="34.3" style="fill:rgb(165,225,210);"/>
                <circle cx="2388.6" cy="2340.6" r="34.3" style="fill:rgb(165,225,210);"/>
                <circle cx="2388.6" cy="1997.7" r="17.1" style="fill:rgb(165,225,210);"/>
                <circle cx="2388.6" cy="1654.8" r="17.1" style="fill:rgb(165,225,210);"/>
                <circle cx="2388.6" cy="1311.9" r="11.4" style="fill:rgb(165,225,210);"/>
                <circle cx="674.1" cy="3712.2" r="17.1" style="fill:rgb(165,225,210);"/>
                <circle cx="674.1" cy="3369.3" r="17.1" style="fill:rgb(165,225,210);"/>
                <circle cx="674.1" cy="3026.4" r="11.4" style="fill:rgb(165,225,210);"/>
                <circle cx="674.1" cy="2683.5" r="5.7" style="fill:rgb(165,225,210);"/>
                <circle cx="331.3" cy="3712.2" r="17.1" style="fill:rgb(165,225,210);"/>
                <circle cx="331.3" cy="3369.3" r="11.4" style="fill:rgb(165,225,210);"/>
                <circle cx="331.3" cy="3026.4" r="5.7" style="fill:rgb(165,225,210);"/>
            </g>
            <path d="M2554,4000C2514.6,3793.2 2248.4,3120.6 2708.8,3272.3C3169.2,3424 3149,4000 3149,4000L2554,4000Z" style="fill:rgb(35,25,90);fill-rule:nonzero;"/>
            <g>
                <g>
                    <circle cx="2870.9" cy="3970.5" r="16" style="fill:rgb(165,225,210);"/>
                    <circle cx="2870.9" cy="3810.7" r="16" style="fill:rgb(165,225,210);"/>
                    <circle cx="2870.9" cy="3650.9" r="8" style="fill:rgb(165,225,210);"/>
                    <circle cx="2870.9" cy="3491" r="8" style="fill:rgb(165,225,210);"/>
                    <circle cx="2870.9" cy="3331.2" r="5.3" style="fill:rgb(165,225,210);"/>
                    <circle cx="2870.9" cy="3171.4" r="2.7" style="fill:rgb(165,225,210);"/>
                    <circle cx="2711.1" cy="3970.5" r="16" style="fill:rgb(165,225,210);"/>
                    <circle cx="2711.1" cy="3810.7" r="8" style="fill:rgb(165,225,210);"/>
                    <circle cx="2711.1" cy="3650.9" r="8" style="fill:rgb(165,225,210);"/>
                    <circle cx="2711.1" cy="3491" r="5.3" style="fill:rgb(165,225,210);"/>
                    <circle cx="2711.1" cy="3331.2" r="2.7" style="fill:rgb(165,225,210);"/>
                    <circle cx="3190.6" cy="3970.5" r="16" style="fill:rgb(165,225,210);"/>
                    <circle cx="3190.6" cy="3810.7" r="16" style="fill:rgb(165,225,210);"/>
                    <circle cx="3190.6" cy="3650.9" r="16" style="fill:rgb(165,225,210);"/>
                    <circle cx="3190.6" cy="3491" r="16" style="fill:rgb(165,225,210);"/>
                    <circle cx="3190.6" cy="3331.2" r="8" style="fill:rgb(165,225,210);"/>
                    <circle cx="3190.6" cy="3171.4" r="8" style="fill:rgb(165,225,210);"/>
                    <circle cx="3190.6" cy="3011.6" r="5.3" style="fill:rgb(165,225,210);"/>
                    <circle cx="3190.6" cy="2851.8" r="2.7" style="fill:rgb(165,225,210);"/>
                    <circle cx="3030.7" cy="3970.5" r="16" style="fill:rgb(165,225,210);"/>
                    <circle cx="3030.7" cy="3810.7" r="16" style="fill:rgb(165,225,210);"/>
                    <circle cx="3030.7" cy="3650.9" r="16" style="fill:rgb(165,225,210);"/>
                    <circle cx="3030.7" cy="3491" r="8" style="fill:rgb(165,225,210);"/>
                    <circle cx="3030.7" cy="3331.2" r="8" style="fill:rgb(165,225,210);"/>
                    <circle cx="3030.7" cy="3171.4" r="5.3" style="fill:rgb(165,225,210);"/>
                    <circle cx="3030.7" cy="3011.6" r="2.7" style="fill:rgb(165,225,210);"/>
                    <circle cx="2551.3" cy="3970.5" r="8" style="fill:rgb(165,225,210);"/>
                    <circle cx="2551.3" cy="3810.7" r="8" style="fill:rgb(165,225,210);"/>
                    <circle cx="2551.3" cy="3650.9" r="5.3" style="fill:rgb(165,225,210);"/>
                    <circle cx="2551.3" cy="3491" r="2.7" style="fill:rgb(165,225,210);"/>
                    <circle cx="2391.5" cy="3970.5" r="8" style="fill:rgb(165,225,210);"/>
                    <circle cx="2391.5" cy="3810.7" r="5.3" style="fill:rgb(165,225,210);"/>
                    <circle cx="2391.5" cy="3650.9" r="2.7" style="fill:rgb(165,225,210);"/>
                </g>
                <g>
                    <circle cx="2790.2" cy="3889.7" r="16" style="fill:rgb(165,225,210);"/>
                    <circle cx="2790.2" cy="3729.9" r="16" style="fill:rgb(165,225,210);"/>
                    <circle cx="2790.2" cy="3570.1" r="8" style="fill:rgb(165,225,210);"/>
                    <circle cx="2790.2" cy="3410.3" r="8" style="fill:rgb(165,225,210);"/>
                    <circle cx="2790.2" cy="3250.5" r="5.3" style="fill:rgb(165,225,210);"/>
                    <circle cx="2790.2" cy="3090.7" r="2.7" style="fill:rgb(165,225,210);"/>
                    <circle cx="2630.4" cy="3889.7" r="16" style="fill:rgb(165,225,210);"/>
                    <circle cx="2630.4" cy="3729.9" r="8" style="fill:rgb(165,225,210);"/>
                    <circle cx="2630.4" cy="3570.1" r="8" style="fill:rgb(165,225,210);"/>
                    <circle cx="2630.4" cy="3410.3" r="5.3" style="fill:rgb(165,225,210);"/>
                    <circle cx="2630.4" cy="3250.5" r="2.7" style="fill:rgb(165,225,210);"/>
                    <circle cx="3109.8" cy="3889.7" r="16" style="fill:rgb(165,225,210);"/>
                    <circle cx="3109.8" cy="3729.9" r="16" style="fill:rgb(165,225,210);"/>
                    <circle cx="3109.8" cy="3570.1" r="16" style="fill:rgb(165,225,210);"/>
                    <circle cx="3109.8" cy="3410.3" r="16" style="fill:rgb(165,225,210);"/>
                    <circle cx="3109.8" cy="3250.5" r="8" style="fill:rgb(165,225,210);"/>
                    <circle cx="3109.8" cy="3090.7" r="8" style="fill:rgb(165,225,210);"/>
                    <circle cx="3109.8" cy="2930.8" r="5.3" style="fill:rgb(165,225,210);"/>
                    <circle cx="3109.8" cy="2771" r="2.7" style="fill:rgb(165,225,210);"/>
                    <circle cx="2950" cy="3889.7" r="16" style="fill:rgb(165,225,210);"/>
                    <circle cx="2950" cy="3729.9" r="16" style="fill:rgb(165,225,210);"/>
                    <circle cx="2950" cy="3570.1" r="16" style="fill:rgb(165,225,210);"/>
                    <circle cx="2950" cy="3410.3" r="8" style="fill:rgb(165,225,210);"/>
                    <circle cx="2950" cy="3250.5" r="8" style="fill:rgb(165,225,210);"/>
                    <circle cx="2950" cy="3090.7" r="5.3" style="fill:rgb(165,225,210);"/>
                    <circle cx="2950" cy="2930.8" r="2.7" style="fill:rgb(165,225,210);"/>
                    <circle cx="3269.6" cy="3889.7" r="16" style="fill:rgb(165,225,210);"/>
                    <circle cx="3269.6" cy="3729.9" r="16" style="fill:rgb(165,225,210);"/>
                    <circle cx="3269.6" cy="3570.1" r="16" style="fill:rgb(165,225,210);"/>
                    <circle cx="3269.6" cy="3410.3" r="16" style="fill:rgb(165,225,210);"/>
                    <circle cx="3269.6" cy="3250.5" r="16" style="fill:rgb(165,225,210);"/>
                    <circle cx="3269.6" cy="3090.7" r="8" style="fill:rgb(165,225,210);"/>
                    <circle cx="3269.6" cy="2930.8" r="8" style="fill:rgb(165,225,210);"/>
                    <circle cx="3269.6" cy="2771" r="5.3" style="fill:rgb(165,225,210);"/>
                    <circle cx="2470.5" cy="3889.7" r="8" style="fill:rgb(165,225,210);"/>
                    <circle cx="2470.5" cy="3729.9" r="8" style="fill:rgb(165,225,210);"/>
                    <circle cx="2470.5" cy="3570.1" r="5.3" style="fill:rgb(165,225,210);"/>
                    <circle cx="2470.5" cy="3410.3" r="2.7" style="fill:rgb(165,225,210);"/>
                    <circle cx="2310.7" cy="3889.7" r="8" style="fill:rgb(165,225,210);"/>
                    <circle cx="2310.7" cy="3729.9" r="5.3" style="fill:rgb(165,225,210);"/>
                    <circle cx="2310.7" cy="3570.1" r="2.7" style="fill:rgb(165,225,210);"/>
                </g>
                <g>
                    <circle cx="2792.6" cy="3970.5" r="16" style="fill:rgb(165,225,210);"/>
                    <circle cx="2792.6" cy="3810.7" r="16" style="fill:rgb(165,225,210);"/>
                    <circle cx="2792.6" cy="3650.9" r="8" style="fill:rgb(165,225,210);"/>
                    <circle cx="2792.6" cy="3491" r="8" style="fill:rgb(165,225,210);"/>
                    <circle cx="2792.6" cy="3331.2" r="5.3" style="fill:rgb(165,225,210);"/>
                    <circle cx="2792.6" cy="3171.4" r="2.7" style="fill:rgb(165,225,210);"/>
                    <circle cx="2632.7" cy="3970.5" r="16" style="fill:rgb(165,225,210);"/>
                    <circle cx="2632.7" cy="3810.7" r="8" style="fill:rgb(165,225,210);"/>
                    <circle cx="2632.7" cy="3650.9" r="8" style="fill:rgb(165,225,210);"/>
                    <circle cx="2632.7" cy="3491" r="5.3" style="fill:rgb(165,225,210);"/>
                    <circle cx="2632.7" cy="3331.2" r="2.7" style="fill:rgb(165,225,210);"/>
                    <circle cx="3112.2" cy="3970.5" r="16" style="fill:rgb(165,225,210);"/>
                    <circle cx="3112.2" cy="3810.7" r="16" style="fill:rgb(165,225,210);"/>
                    <circle cx="3112.2" cy="3650.9" r="16" style="fill:rgb(165,225,210);"/>
                    <circle cx="3112.2" cy="3491" r="16" style="fill:rgb(165,225,210);"/>
                    <circle cx="3112.2" cy="3331.2" r="8" style="fill:rgb(165,225,210);"/>
                    <circle cx="3112.2" cy="3171.4" r="8" style="fill:rgb(165,225,210);"/>
                    <circle cx="3112.2" cy="3011.6" r="5.3" style="fill:rgb(165,225,210);"/>
                    <circle cx="3112.2" cy="2851.8" r="2.7" style="fill:rgb(165,225,210);"/>
                    <circle cx="2952.4" cy="3970.5" r="16" style="fill:rgb(165,225,210);"/>
                    <circle cx="2952.4" cy="3810.7" r="16" style="fill:rgb(165,225,210);"/>
                    <circle cx="2952.4" cy="3650.9" r="16" style="fill:rgb(165,225,210);"/>
                    <circle cx="2952.4" cy="3491" r="8" style="fill:rgb(165,225,210);"/>
                    <circle cx="2952.4" cy="3331.2" r="8" style="fill:rgb(165,225,210);"/>
                    <circle cx="2952.4" cy="3171.4" r="5.3" style="fill:rgb(165,225,210);"/>
                    <circle cx="2952.4" cy="3011.6" r="2.7" style="fill:rgb(165,225,210);"/>
                    <circle cx="3272" cy="3970.5" r="16" style="fill:rgb(165,225,210);"/>
                    <circle cx="3272" cy="3810.7" r="16" style="fill:rgb(165,225,210);"/>
                    <circle cx="3272" cy="3650.9" r="16" style="fill:rgb(165,225,210);"/>
                    <circle cx="3272" cy="3491" r="16" style="fill:rgb(165,225,210);"/>
                    <circle cx="3272" cy="3331.2" r="16" style="fill:rgb(165,225,210);"/>
                    <circle cx="3272" cy="3171.4" r="8" style="fill:rgb(165,225,210);"/>
                    <circle cx="3272" cy="3011.6" r="8" style="fill:rgb(165,225,210);"/>
                    <circle cx="3272" cy="2851.8" r="5.3" style="fill:rgb(165,225,210);"/>
                    <circle cx="2472.9" cy="3970.5" r="8" style="fill:rgb(165,225,210);"/>
                    <circle cx="2472.9" cy="3810.7" r="8" style="fill:rgb(165,225,210);"/>
                    <circle cx="2472.9" cy="3650.9" r="5.3" style="fill:rgb(165,225,210);"/>
                    <circle cx="2472.9" cy="3491" r="2.7" style="fill:rgb(165,225,210);"/>
                    <circle cx="2313.1" cy="3970.5" r="8" style="fill:rgb(165,225,210);"/>
                    <circle cx="2313.1" cy="3810.7" r="5.3" style="fill:rgb(165,225,210);"/>
                    <circle cx="2313.1" cy="3650.9" r="2.7" style="fill:rgb(165,225,210);"/>
                </g>
                <g>
                    <circle cx="2711.8" cy="3889.7" r="16" style="fill:rgb(165,225,210);"/>
                    <circle cx="2711.8" cy="3729.9" r="16" style="fill:rgb(165,225,210);"/>
                    <circle cx="2711.8" cy="3570.1" r="8" style="fill:rgb(165,225,210);"/>
                    <circle cx="2711.8" cy="3410.3" r="8" style="fill:rgb(165,225,210);"/>
                    <circle cx="2711.8" cy="3250.5" r="5.3" style="fill:rgb(165,225,210);"/>
                    <circle cx="2711.8" cy="3090.7" r="2.7" style="fill:rgb(165,225,210);"/>
                    <circle cx="2552" cy="3889.7" r="16" style="fill:rgb(165,225,210);"/>
                    <circle cx="2552" cy="3729.9" r="8" style="fill:rgb(165,225,210);"/>
                    <circle cx="2552" cy="3570.1" r="8" style="fill:rgb(165,225,210);"/>
                    <circle cx="2552" cy="3410.3" r="5.3" style="fill:rgb(165,225,210);"/>
                    <circle cx="2552" cy="3250.5" r="2.7" style="fill:rgb(165,225,210);"/>
                    <circle cx="3031.4" cy="3889.7" r="16" style="fill:rgb(165,225,210);"/>
                    <circle cx="3031.4" cy="3729.9" r="16" style="fill:rgb(165,225,210);"/>
                    <circle cx="3031.4" cy="3570.1" r="16" style="fill:rgb(165,225,210);"/>
                    <circle cx="3031.4" cy="3410.3" r="16" style="fill:rgb(165,225,210);"/>
                    <circle cx="3031.4" cy="3250.5" r="8" style="fill:rgb(165,225,210);"/>
                    <circle cx="3031.4" cy="3090.7" r="8" style="fill:rgb(165,225,210);"/>
                    <circle cx="3031.4" cy="2930.8" r="5.3" style="fill:rgb(165,225,210);"/>
                    <circle cx="3031.4" cy="2771" r="2.7" style="fill:rgb(165,225,210);"/>
                    <circle cx="2871.6" cy="3889.7" r="16" style="fill:rgb(165,225,210);"/>
                    <circle cx="2871.6" cy="3729.9" r="16" style="fill:rgb(165,225,210);"/>
                    <circle cx="2871.6" cy="3570.1" r="16" style="fill:rgb(165,225,210);"/>
                    <circle cx="2871.6" cy="3410.3" r="8" style="fill:rgb(165,225,210);"/>
                    <circle cx="2871.6" cy="3250.5" r="8" style="fill:rgb(165,225,210);"/>
                    <circle cx="2871.6" cy="3090.7" r="5.3" style="fill:rgb(165,225,210);"/>
                    <circle cx="2871.6" cy="2930.8" r="2.7" style="fill:rgb(165,225,210);"/>
                    <circle cx="3191.2" cy="3889.7" r="16" style="fill:rgb(165,225,210);"/>
                    <circle cx="3191.2" cy="3729.9" r="16" style="fill:rgb(165,225,210);"/>
                    <circle cx="3191.2" cy="3570.1" r="16" style="fill:rgb(165,225,210);"/>
                    <circle cx="3191.2" cy="3410.3" r="16" style="fill:rgb(165,225,210);"/>
                    <circle cx="3191.2" cy="3250.5" r="16" style="fill:rgb(165,225,210);"/>
                    <circle cx="3191.2" cy="3090.7" r="8" style="fill:rgb(165,225,210);"/>
                    <circle cx="3191.2" cy="2930.8" r="8" style="fill:rgb(165,225,210);"/>
                    <circle cx="3191.2" cy="2771" r="5.3" style="fill:rgb(165,225,210);"/>
                    <circle cx="2392.2" cy="3889.7" r="8" style="fill:rgb(165,225,210);"/>
                    <circle cx="2392.2" cy="3729.9" r="8" style="fill:rgb(165,225,210);"/>
                    <circle cx="2392.2" cy="3570.1" r="5.3" style="fill:rgb(165,225,210);"/>
                    <circle cx="2392.2" cy="3410.3" r="2.7" style="fill:rgb(165,225,210);"/>
                    <circle cx="2232.4" cy="3889.7" r="8" style="fill:rgb(165,225,210);"/>
                    <circle cx="2232.4" cy="3729.9" r="5.3" style="fill:rgb(165,225,210);"/>
                    <circle cx="2232.4" cy="3570.1" r="2.7" style="fill:rgb(165,225,210);"/>
                </g>
            </g>
            <path d="M1319.7,0C1666.9,965.2 1666.9,1398.6 2165.9,2068.3C2664.9,2738 3467.8,2977.2 3315.9,4000L3999.9,4000L3999.9,0L1319.7,0Z" style="fill:rgb(0,114,114);fill-rule:nonzero;"/>
            <g>
                <circle cx="3002" cy="1716.2" r="24.2" style="fill:rgb(35,25,90);"/>
                <circle cx="2516.7" cy="1716.2" r="24.2" style="fill:rgb(35,25,90);"/>
                <circle cx="2031.4" cy="1716.2" r="16.2" style="fill:rgb(35,25,90);"/>
                <circle cx="1546.1" cy="1716.2" r="8.1" style="fill:rgb(35,25,90);"/>
                <circle cx="3487.3" cy="2201.5" r="24.2" style="fill:rgb(35,25,90);"/>
                <circle cx="3002" cy="2201.5" r="24.2" style="fill:rgb(35,25,90);"/>
                <circle cx="2516.7" cy="2201.5" r="16.2" style="fill:rgb(35,25,90);"/>
                <circle cx="2031.4" cy="2201.5" r="8.1" style="fill:rgb(35,25,90);"/>
                <circle cx="2031.4" cy="745.6" r="24.2" style="fill:rgb(35,25,90);"/>
                <circle cx="1546.1" cy="745.6" r="24.2" style="fill:rgb(35,25,90);"/>
                <circle cx="1060.8" cy="745.6" r="16.2" style="fill:rgb(35,25,90);"/>
                <circle cx="575.5" cy="745.6" r="8.1" style="fill:rgb(35,25,90);"/>
                <circle cx="2516.7" cy="1230.9" r="24.2" style="fill:rgb(35,25,90);"/>
                <circle cx="2031.4" cy="1230.9" r="24.2" style="fill:rgb(35,25,90);"/>
                <circle cx="1546.1" cy="1230.9" r="16.2" style="fill:rgb(35,25,90);"/>
                <circle cx="1060.8" cy="1230.9" r="8.1" style="fill:rgb(35,25,90);"/>
                <circle cx="3487.3" cy="2686.8" r="24.2" style="fill:rgb(35,25,90);"/>
                <circle cx="3002" cy="2686.8" r="16.2" style="fill:rgb(35,25,90);"/>
                <circle cx="2516.7" cy="2686.8" r="8.1" style="fill:rgb(35,25,90);"/>
                <circle cx="3487.3" cy="3172.1" r="16.2" style="fill:rgb(35,25,90);"/>
                <circle cx="3002" cy="3172.1" r="8.1" style="fill:rgb(35,25,90);"/>
                <circle cx="3242" cy="1961.4" r="48.5" style="fill:rgb(35,25,90);"/>
                <circle cx="2756.7" cy="1961.4" r="24.2" style="fill:rgb(35,25,90);"/>
                <circle cx="2271.5" cy="1961.4" r="24.2" style="fill:rgb(35,25,90);"/>
                <circle cx="1786.2" cy="1961.4" r="16.2" style="fill:rgb(35,25,90);"/>
                <circle cx="1300.9" cy="1961.4" r="8.1" style="fill:rgb(35,25,90);"/>
                <circle cx="3727.3" cy="2446.7" r="48.5" style="fill:rgb(35,25,90);"/>
                <circle cx="3242" cy="2446.7" r="24.2" style="fill:rgb(35,25,90);"/>
                <circle cx="2756.7" cy="2446.7" r="24.2" style="fill:rgb(35,25,90);"/>
                <circle cx="2271.5" cy="2446.7" r="16.2" style="fill:rgb(35,25,90);"/>
                <circle cx="1786.2" cy="2446.7" r="8.1" style="fill:rgb(35,25,90);"/>
                <circle cx="2271.5" cy="990.8" r="48.5" style="fill:rgb(35,25,90);"/>
                <circle cx="1786.2" cy="990.8" r="24.2" style="fill:rgb(35,25,90);"/>
                <circle cx="1300.9" cy="990.8" r="24.2" style="fill:rgb(35,25,90);"/>
                <circle cx="815.6" cy="990.8" r="16.2" style="fill:rgb(35,25,90);"/>
                <circle cx="330.3" cy="990.8" r="8.1" style="fill:rgb(35,25,90);"/>
                <circle cx="2756.7" cy="1476.1" r="48.5" style="fill:rgb(35,25,90);"/>
                <circle cx="2271.5" cy="1476.1" r="24.2" style="fill:rgb(35,25,90);"/>
                <circle cx="1786.2" cy="1476.1" r="24.2" style="fill:rgb(35,25,90);"/>
                <circle cx="1300.9" cy="1476.1" r="16.2" style="fill:rgb(35,25,90);"/>
                <circle cx="815.6" cy="1476.1" r="8.1" style="fill:rgb(35,25,90);"/>
                <circle cx="1786.2" cy="505.5" r="48.5" style="fill:rgb(35,25,90);"/>
                <circle cx="1300.9" cy="505.5" r="24.2" style="fill:rgb(35,25,90);"/>
                <circle cx="815.6" cy="505.5" r="24.2" style="fill:rgb(35,25,90);"/>
                <circle cx="330.3" cy="505.5" r="16.2" style="fill:rgb(35,25,90);"/>
                <circle cx="3727.3" cy="2932" r="24.2" style="fill:rgb(35,25,90);"/>
                <circle cx="3242" cy="2932" r="24.2" style="fill:rgb(35,25,90);"/>
                <circle cx="2756.7" cy="2932" r="16.2" style="fill:rgb(35,25,90);"/>
                <circle cx="2271.5" cy="2932" r="8.1" style="fill:rgb(35,25,90);"/>
                <circle cx="3727.3" cy="3417.3" r="24.2" style="fill:rgb(35,25,90);"/>
                <circle cx="3242" cy="3417.3" r="16.2" style="fill:rgb(35,25,90);"/>
                <circle cx="2756.7" cy="3417.3" r="8.1" style="fill:rgb(35,25,90);"/>
                <circle cx="3002" cy="1954.2" r="24.2" style="fill:rgb(35,25,90);"/>
                <circle cx="2516.7" cy="1954.2" r="24.2" style="fill:rgb(35,25,90);"/>
                <circle cx="2031.4" cy="1954.2" r="16.2" style="fill:rgb(35,25,90);"/>
                <circle cx="1546.1" cy="1954.2" r="8.1" style="fill:rgb(35,25,90);"/>
                <circle cx="3487.3" cy="2439.5" r="24.2" style="fill:rgb(35,25,90);"/>
                <circle cx="3002" cy="2439.5" r="24.2" style="fill:rgb(35,25,90);"/>
                <circle cx="2516.7" cy="2439.5" r="16.2" style="fill:rgb(35,25,90);"/>
                <circle cx="2031.4" cy="2439.5" r="8.1" style="fill:rgb(35,25,90);"/>
                <circle cx="2031.4" cy="983.6" r="24.2" style="fill:rgb(35,25,90);"/>
                <circle cx="1546.1" cy="983.6" r="24.2" style="fill:rgb(35,25,90);"/>
                <circle cx="1060.8" cy="983.6" r="16.2" style="fill:rgb(35,25,90);"/>
                <circle cx="575.5" cy="983.6" r="8.1" style="fill:rgb(35,25,90);"/>
                <circle cx="2516.7" cy="1468.9" r="24.2" style="fill:rgb(35,25,90);"/>
                <circle cx="2031.4" cy="1468.9" r="24.2" style="fill:rgb(35,25,90);"/>
                <circle cx="1546.1" cy="1468.9" r="16.2" style="fill:rgb(35,25,90);"/>
                <circle cx="1060.8" cy="1468.9" r="8.1" style="fill:rgb(35,25,90);"/>
                <circle cx="1546.1" cy="498.3" r="24.2" style="fill:rgb(35,25,90);"/>
                <circle cx="1060.8" cy="498.3" r="24.2" style="fill:rgb(35,25,90);"/>
                <circle cx="575.5" cy="498.3" r="16.2" style="fill:rgb(35,25,90);"/>
                <circle cx="3487.3" cy="2924.8" r="24.2" style="fill:rgb(35,25,90);"/>
                <circle cx="3002" cy="2924.8" r="16.2" style="fill:rgb(35,25,90);"/>
                <circle cx="2516.7" cy="2924.8" r="8.1" style="fill:rgb(35,25,90);"/>
                <circle cx="3487.3" cy="3410.1" r="16.2" style="fill:rgb(35,25,90);"/>
                <circle cx="3002" cy="3410.1" r="8.1" style="fill:rgb(35,25,90);"/>
                <circle cx="3727.3" cy="2199.4" r="48.5" style="fill:rgb(35,25,90);"/>
                <circle cx="3242" cy="2199.4" r="48.5" style="fill:rgb(35,25,90);"/>
                <circle cx="2756.7" cy="2199.4" r="24.2" style="fill:rgb(35,25,90);"/>
                <circle cx="2271.5" cy="2199.4" r="24.2" style="fill:rgb(35,25,90);"/>
                <circle cx="1786.2" cy="2199.4" r="16.2" style="fill:rgb(35,25,90);"/>
                <circle cx="1300.9" cy="2199.4" r="8.1" style="fill:rgb(35,25,90);"/>
                <circle cx="3727.3" cy="2684.7" r="48.5" style="fill:rgb(35,25,90);"/>
                <circle cx="3242" cy="2684.7" r="24.2" style="fill:rgb(35,25,90);"/>
                <circle cx="2756.7" cy="2684.7" r="24.2" style="fill:rgb(35,25,90);"/>
                <circle cx="2271.5" cy="2684.7" r="16.2" style="fill:rgb(35,25,90);"/>
                <circle cx="1786.2" cy="2684.7" r="8.1" style="fill:rgb(35,25,90);"/>
                <circle cx="2271.5" cy="1228.8" r="48.5" style="fill:rgb(35,25,90);"/>
                <circle cx="1786.2" cy="1228.8" r="24.2" style="fill:rgb(35,25,90);"/>
                <circle cx="1300.9" cy="1228.8" r="24.2" style="fill:rgb(35,25,90);"/>
                <circle cx="815.6" cy="1228.8" r="16.2" style="fill:rgb(35,25,90);"/>
                <circle cx="330.3" cy="1228.8" r="8.1" style="fill:rgb(35,25,90);"/>
                <circle cx="3242" cy="1714.1" r="48.5" style="fill:rgb(35,25,90);"/>
                <circle cx="2756.7" cy="1714.1" r="48.5" style="fill:rgb(35,25,90);"/>
                <circle cx="2271.5" cy="1714.1" r="24.2" style="fill:rgb(35,25,90);"/>
                <circle cx="1786.2" cy="1714.1" r="24.2" style="fill:rgb(35,25,90);"/>
                <circle cx="1300.9" cy="1714.1" r="16.2" style="fill:rgb(35,25,90);"/>
                <circle cx="815.6" cy="1714.1" r="8.1" style="fill:rgb(35,25,90);"/>
                <circle cx="2271.5" cy="743.5" r="48.5" style="fill:rgb(35,25,90);"/>
                <circle cx="1786.2" cy="743.5" r="48.5" style="fill:rgb(35,25,90);"/>
                <circle cx="1300.9" cy="743.5" r="24.2" style="fill:rgb(35,25,90);"/>
                <circle cx="815.6" cy="743.5" r="24.2" style="fill:rgb(35,25,90);"/>
                <circle cx="330.3" cy="743.5" r="16.2" style="fill:rgb(35,25,90);"/>
                <circle cx="3727.3" cy="3170" r="24.2" style="fill:rgb(35,25,90);"/>
                <circle cx="3242" cy="3170" r="24.2" style="fill:rgb(35,25,90);"/>
                <circle cx="2756.7" cy="3170" r="16.2" style="fill:rgb(35,25,90);"/>
                <circle cx="2271.5" cy="3170" r="8.1" style="fill:rgb(35,25,90);"/>
                <circle cx="3727.3" cy="3655.3" r="24.2" style="fill:rgb(35,25,90);"/>
                <circle cx="3242" cy="3655.3" r="16.2" style="fill:rgb(35,25,90);"/>
                <circle cx="2756.7" cy="3655.3" r="8.1" style="fill:rgb(35,25,90);"/>
                <circle cx="2759.9" cy="1234.4" r="48.5" style="fill:rgb(35,25,90);"/>
            </g>
            <path d="M1330.1,1907.2C1060.2,1637.3 1115.2,1079.6 1356.6,1359.5C1598,1639.4 1860.1,2437.3 1330.1,1907.2Z" style="fill:rgb(35,25,90);fill-rule:nonzero;"/>
            <path d="M1860.4,2215.6C1761,2228 1791.1,2053 1868.5,2084.9C1945.9,2116.8 2019.9,2195.6 1860.4,2215.6Z" style="fill:rgb(35,25,90);fill-rule:nonzero;"/>
            <g>
                <circle cx="3672.5" cy="1142.5" r="31.4" style="fill:rgb(35,25,90);"/>
                <circle cx="3358.4" cy="1142.5" r="15.7" style="fill:rgb(35,25,90);"/>
                <circle cx="3044.3" cy="1142.5" r="15.7" style="fill:rgb(35,25,90);"/>
                <circle cx="2730.2" cy="1142.5" r="10.5" style="fill:rgb(35,25,90);"/>
                <circle cx="2416" cy="1142.5" r="5.2" style="fill:rgb(35,25,90);"/>
                <circle cx="3672.5" cy="1456.7" r="15.7" style="fill:rgb(35,25,90);"/>
                <circle cx="3358.4" cy="1456.7" r="15.7" style="fill:rgb(35,25,90);"/>
                <circle cx="3044.3" cy="1456.7" r="10.5" style="fill:rgb(35,25,90);"/>
                <circle cx="2730.2" cy="1456.7" r="5.2" style="fill:rgb(35,25,90);"/>
                <circle cx="3672.5" cy="514.3" r="31.4" style="fill:rgb(35,25,90);"/>
                <circle cx="3358.4" cy="514.3" r="31.4" style="fill:rgb(35,25,90);"/>
                <circle cx="3044.3" cy="514.3" r="31.4" style="fill:rgb(35,25,90);"/>
                <circle cx="2730.2" cy="514.3" r="15.7" style="fill:rgb(35,25,90);"/>
                <circle cx="2416" cy="514.3" r="15.7" style="fill:rgb(35,25,90);"/>
                <circle cx="2101.9" cy="514.3" r="10.5" style="fill:rgb(35,25,90);"/>
                <circle cx="1787.8" cy="514.3" r="5.2" style="fill:rgb(35,25,90);"/>
                <circle cx="3672.5" cy="828.4" r="31.4" style="fill:rgb(35,25,90);"/>
                <circle cx="3358.4" cy="828.4" r="31.4" style="fill:rgb(35,25,90);"/>
                <circle cx="3044.3" cy="828.4" r="15.7" style="fill:rgb(35,25,90);"/>
                <circle cx="2730.2" cy="828.4" r="15.7" style="fill:rgb(35,25,90);"/>
                <circle cx="2416" cy="828.4" r="10.5" style="fill:rgb(35,25,90);"/>
                <circle cx="2101.9" cy="828.4" r="5.2" style="fill:rgb(35,25,90);"/>
                <circle cx="3672.5" cy="200.1" r="31.4" style="fill:rgb(35,25,90);"/>
                <circle cx="3358.4" cy="200.1" r="31.4" style="fill:rgb(35,25,90);"/>
                <circle cx="3044.3" cy="200.1" r="31.4" style="fill:rgb(35,25,90);"/>
                <circle cx="2730.2" cy="200.1" r="31.4" style="fill:rgb(35,25,90);"/>
                <circle cx="2416" cy="200.1" r="15.7" style="fill:rgb(35,25,90);"/>
                <circle cx="2101.9" cy="200.1" r="15.7" style="fill:rgb(35,25,90);"/>
                <circle cx="1787.8" cy="200.1" r="10.5" style="fill:rgb(35,25,90);"/>
                <circle cx="3672.5" cy="1770.8" r="15.7" style="fill:rgb(35,25,90);"/>
                <circle cx="3358.4" cy="1770.8" r="10.5" style="fill:rgb(35,25,90);"/>
                <circle cx="3044.3" cy="1770.8" r="5.2" style="fill:rgb(35,25,90);"/>
                <circle cx="3672.5" cy="2084.9" r="10.5" style="fill:rgb(35,25,90);"/>
                <circle cx="3358.4" cy="2084.9" r="5.2" style="fill:rgb(35,25,90);"/>
            </g>
        </g>
    </g>
</svg>
