<?xml version="1.0" encoding="UTF-8" standalone="no"?>
<!DOCTYPE svg PUBLIC "-//W3C//DTD SVG 1.1//EN" "http://www.w3.org/Graphics/SVG/1.1/DTD/svg11.dtd">
<svg width="100%" height="100%" viewBox="0 0 78 84" version="1.1" xmlns="http://www.w3.org/2000/svg" xmlns:xlink="http://www.w3.org/1999/xlink" xml:space="preserve" xmlns:serif="http://www.serif.com/" style="fill-rule:evenodd;clip-rule:evenodd;stroke-linejoin:round;stroke-miterlimit:2;">
    <g transform="matrix(1,0,0,1,-851.048,-20.5895)">
        <g transform="matrix(1.26943,4.38376e-07,8.19372e-07,1.26785,850.44,20.3629)">
            <path d="M30.715,65.478C24.213,62.36 18.648,57.768 14.176,51.806C10.433,46.83 7.415,40.85 5.204,34.037C1.283,21.963 0.791,10.2 0.851,4.264L0.851,0.538L60.887,0.538L60.887,0.898C60.887,0.931 60.881,4.098 60.887,4.264C60.944,10.2 60.451,21.963 56.531,34.037C54.319,40.85 51.301,46.83 47.563,51.81C43.09,57.768 37.527,62.363 31.025,65.482L30.869,65.556L30.715,65.478Z" style="fill:rgb(0,52,62);"/>
        </g>
        <g transform="matrix(1.26943,4.38376e-07,8.19372e-07,1.26785,850.44,20.408)">
            <path d="M60.527,0.862C60.527,0.862 60.521,4.062 60.527,4.231C60.633,15.478 58.738,51.778 30.869,65.117C2.997,51.778 1.101,15.48 1.211,4.231L1.211,0.862L60.527,0.862M61.247,0.143L0.482,0.143L0.482,4.22C0.43,10.183 0.926,21.99 4.861,34.112C7.088,40.964 10.121,46.979 13.883,51.991C18.39,57.995 24,62.63 30.554,65.766L30.865,65.915L31.175,65.766C37.729,62.63 43.339,57.995 47.846,51.991C51.608,46.979 54.644,40.964 56.868,34.112C60.804,21.99 61.297,10.183 61.242,4.224L61.242,0.146L61.247,0.143Z" style="fill:rgb(165,225,210);fill-rule:nonzero;"/>
        </g>
        <g transform="matrix(1.26943,4.38376e-07,8.19372e-07,1.26785,850.44,14.8347)">
            <path d="M25.841,27.972C23.562,26.36 20.86,25.544 18.252,24.614C14.606,23.434 10.645,22.419 7.348,21.315C8.053,23.54 8.922,25.709 9.95,27.804C13.054,28.88 16.25,29.674 19.497,30.175C16.694,30.486 13.863,30.418 11.078,29.973C11.788,31.252 12.554,32.494 13.376,33.698C15.857,33.792 18.341,33.718 20.812,33.477C18.74,34.258 16.592,34.82 14.404,35.154C15.066,36.05 15.76,36.922 16.487,37.77C29.8,35.238 26.57,41.344 23.323,44.313C25.678,46.157 28.203,47.773 30.865,49.139L30.865,33.676C29.66,31.408 27.939,29.454 25.841,27.972Z" style="fill:rgb(40,180,130);fill-rule:nonzero;"/>
        </g>
        <g transform="matrix(1.26943,4.38376e-07,8.19372e-07,1.26785,850.44,14.8347)">
            <path d="M54.381,21.315C51.084,22.419 47.124,23.434 43.477,24.614C40.869,25.54 38.172,26.357 35.888,27.972C33.79,29.454 32.069,31.408 30.865,33.676L30.865,49.139C33.524,47.775 36.048,46.161 38.402,44.319C35.154,41.347 31.926,35.241 45.238,37.773C45.965,36.926 46.659,36.055 47.319,35.157C45.132,34.825 42.985,34.264 40.915,33.484C43.386,33.726 45.87,33.799 48.351,33.705C49.173,32.506 49.939,31.264 50.649,29.98C47.864,30.425 45.032,30.493 42.229,30.183C45.477,29.681 48.674,28.887 51.78,27.812C52.806,25.713 53.676,23.542 54.381,21.315Z" style="fill:rgb(0,114,114);fill-rule:nonzero;"/>
        </g>
        <g transform="matrix(1.26943,4.38376e-07,8.19372e-07,1.26785,850.44,-48.8597)">
            <path d="M38.038,62.205L37.798,61.456L36.391,61.456L36.151,62.205L35.498,62.205L36.847,58.487L37.362,58.487L38.712,62.205L38.038,62.205ZM36.561,60.94L37.629,60.94L37.097,59.278L36.561,60.94Z" style="fill:rgb(40,180,130);fill-rule:nonzero;"/>
        </g>
        <g transform="matrix(1.26943,4.38376e-07,8.19372e-07,1.26785,850.44,-48.8597)">
            <path d="M44.058,62.205L43.409,62.205L43.341,59.772L42.427,61.945L41.922,61.945L41.002,59.761L40.939,62.205L40.318,62.205L40.466,58.487L41.104,58.487L42.184,61.117L43.263,58.487L43.907,58.487L44.058,62.205Z" style="fill:rgb(40,180,130);fill-rule:nonzero;"/>
        </g>
        <g transform="matrix(1.26943,4.38376e-07,8.19372e-07,1.26785,850.44,-48.8597)">
            <path d="M46.582,61.69L48.128,61.69L48.128,62.205L45.946,62.205L45.946,58.487L46.584,58.487L46.582,61.69Z" style="fill:rgb(40,180,130);fill-rule:nonzero;"/>
        </g>
        <g transform="matrix(1.26943,4.38376e-07,8.19372e-07,1.26785,850.44,-48.8621)">
            <rect x="49.774" y="58.488" width="0.638" height="3.718" style="fill:rgb(40,180,130);"/>
        </g>
        <g transform="matrix(1.26943,4.38376e-07,8.19372e-07,1.26785,850.44,-48.8597)">
            <path d="M54.567,59.001L53.015,59.001L53.015,60.096L54.364,60.096L54.364,60.605L53.015,60.605L53.015,62.205L52.378,62.205L52.378,58.487L54.567,58.487L54.567,59.001Z" style="fill:rgb(40,180,130);fill-rule:nonzero;"/>
        </g>
    </g>
</svg>
