<?xml version="1.0" encoding="UTF-8" standalone="no"?>
<!DOCTYPE svg PUBLIC "-//W3C//DTD SVG 1.1//EN" "http://www.w3.org/Graphics/SVG/1.1/DTD/svg11.dtd">
<svg width="100%" height="100%" viewBox="0 0 94 5000" version="1.1" xmlns="http://www.w3.org/2000/svg" xmlns:xlink="http://www.w3.org/1999/xlink" xml:space="preserve" xmlns:serif="http://www.serif.com/" style="fill-rule:evenodd;clip-rule:evenodd;stroke-linejoin:round;stroke-miterlimit:2;">
    <g transform="matrix(1,0,0,1,0,4916)">
        <path d="M89.668,31.944C89.096,31.475 88.478,31.067 87.822,30.726L87.644,30.637L87.799,30.503C89.69,28.745 90.704,26.234 90.564,23.655C90.558,20.322 89.42,17.835 87.151,16.262C85.238,14.909 82.592,14.248 79.059,14.254L68.927,14.272C68.344,14.281 67.869,14.758 67.862,15.341L67.922,48.561C67.923,49.146 68.405,49.626 68.99,49.626L80.567,49.605C84.211,49.598 87.143,48.815 89.251,47.278C90.46,46.403 91.423,45.23 92.045,43.873C92.733,42.344 93.072,40.681 93.036,39.005C93.053,36.262 91.811,33.657 89.668,31.944L89.668,31.944ZM71.155,17.58L79.065,17.565C81.865,17.56 83.932,18.023 85.267,18.954C86.113,19.552 87.27,20.706 87.276,23.661C87.285,28.95 83.108,29.379 81.842,29.381L71.176,29.401L71.155,17.58ZM80.561,46.316L71.206,46.333L71.182,32.689L81.848,32.67C86.47,32.662 89.719,35.277 89.725,39.011C89.729,40.811 89.738,46.3 80.561,46.316Z" style="fill:rgb(238,237,239);fill-rule:nonzero;"/>
    </g>
    <g transform="matrix(1,0,0,1,0,4916)">
        <path d="M59.902,-4916L59.989,48.798C59.998,49.232 59.717,49.624 59.302,49.754C59.204,49.797 59.098,49.82 58.991,49.821C58.665,49.822 58.358,49.665 58.168,49.4L36.364,21.73L36.44,84L33.129,84L33.042,15.092C33.042,14.653 33.331,14.263 33.751,14.136C33.85,14.098 33.956,14.082 34.062,14.091C34.383,14.086 34.689,14.234 34.885,14.489L56.689,42.181L56.159,-4916L59.902,-4916Z" style="fill:rgb(238,237,239);fill-rule:nonzero;"/>
    </g>
    <g transform="matrix(1,0,0,1,0,4916)">
        <path d="M22.495,19.622C21.004,17.811 19.084,16.401 16.91,15.521C14.926,14.75 12.814,14.362 10.686,14.377L1.065,14.394C0.475,14.406 -0.003,14.896 0,15.485L0.06,48.683C0.061,49.268 0.543,49.749 1.128,49.748L10.75,49.73C12.879,49.749 14.992,49.353 16.969,48.564C19.144,47.692 21.061,46.281 22.539,44.464C25.932,40.281 26.433,35.013 26.428,32.236C26.424,29.881 26.036,23.948 22.495,19.622L22.495,19.622ZM19.98,42.38C17.683,45.069 14.278,46.566 10.744,46.442L3.367,46.455L3.315,17.701L10.692,17.688C14.228,17.54 17.642,19.027 19.943,21.715C22.883,25.31 23.115,30.687 23.118,32.242C23.122,34.576 22.73,38.998 19.981,42.38L19.98,42.38Z" style="fill:rgb(238,237,239);fill-rule:nonzero;"/>
    </g>
</svg>
