<?xml version="1.0" encoding="UTF-8" standalone="no"?>
<!DOCTYPE svg PUBLIC "-//W3C//DTD SVG 1.1//EN" "http://www.w3.org/Graphics/SVG/1.1/DTD/svg11.dtd">
<svg width="100%" height="100%" viewBox="0 0 601 112" version="1.1" xmlns="http://www.w3.org/2000/svg" xmlns:xlink="http://www.w3.org/1999/xlink" xml:space="preserve" xmlns:serif="http://www.serif.com/" style="fill-rule:evenodd;clip-rule:evenodd;stroke-linejoin:round;stroke-miterlimit:2;">
    <g transform="matrix(1,0,0,1,-21.725,-249.2)">
        <path d="M584,261.2C584,260 584.1,258.8 585.1,258.1C585.8,257.6 586.5,257.6 586.8,257.6C587.6,257.6 588,257.9 588.3,258C589.5,258.8 589.5,260.1 589.6,261.3L589.6,270.2C589.7,271 589.9,273.5 592.8,273.5C593.8,273.5 594.4,273.1 594.8,272.8C596.2,271.7 596.1,269.7 596.1,268.1L596.1,260.8C596.1,260.4 596,258.8 597.3,257.9C597.5,257.7 598.1,257.4 598.9,257.4C599.2,257.4 599.8,257.4 600.5,257.9C601.8,258.7 601.7,260.4 601.7,260.7L601.7,274.1C601.7,274.6 601.9,277.8 599,277.8C598.6,277.8 597.2,277.8 596.6,276.4C596.4,275.9 596.3,275.4 596.3,275.3C596,275.8 595.8,276 595.7,276.2C595,277 593.5,278.1 590.8,278.1C589.7,278.1 586.3,278 584.8,274.6C584.3,273.5 584.1,272.3 584.1,269.8L584.1,261.2" style="fill:rgb(0,95,111);fill-rule:nonzero;"/>
    </g>
    <g transform="matrix(1,0,0,1,-21.725,-249.2)">
        <path d="M616.4,258.8C616.6,258.7 616.7,258.5 616.9,258.4C617.1,258.2 617.8,257.6 618.8,257.6C620.2,257.6 621.3,258.8 621.3,260.1C621.3,261.1 620.8,261.7 620.1,262.3L616.4,265.8L620.9,272.7C621.7,273.9 621.9,274.4 621.9,275.1C621.9,275.4 621.9,275.9 621.5,276.5C621,277.4 619.9,278 618.8,278C618.2,278 617.8,277.8 617.6,277.7C616.8,277.3 616.4,276.6 616,275.9L612.3,269.7L610.4,271.5L610.4,274.7C610.4,275.1 610.5,276.8 609.2,277.6C608.8,277.9 608.2,278 607.7,278C606.9,278 606,277.7 605.4,277.1C604.7,276.2 604.8,274.9 604.7,274.7L604.7,252.9C604.7,252.5 604.9,251.4 606,250.7C606.6,250.4 607.3,250.3 607.5,250.3C608.8,250.3 609.8,251 610.2,252.3C610.3,252.7 610.3,253.2 610.3,253.6L610.3,265.4L616.4,258.8" style="fill:rgb(0,95,111);fill-rule:nonzero;"/>
    </g>
    <g transform="matrix(1,0,0,1,-21.725,-249.2)">
        <path d="M161.8,341.8C161.8,344.2 161.8,345.9 161.2,348.3C159.5,354.8 154.4,358.8 147.7,358.8C146.3,358.8 143.2,358.6 140.2,356.8C133.1,352.6 133.6,345.4 133.4,343L133.4,293.5C133.5,289.9 134,287 136.1,283.9C139.7,278.2 145.3,277.6 147.7,277.6C153.9,277.8 159,281.4 160.9,287.2C161.3,288.9 161.6,290.5 161.8,293.7L161.8,341.8" style="fill:rgb(0,95,111);fill-rule:nonzero;"/>
    </g>
    <g transform="matrix(1,0,0,1,-21.725,-249.2)">
        <path d="M160.3,261.9C160.3,268.9 154.6,274.7 147.6,274.7C140.6,274.7 134.8,269 134.8,261.9C134.8,254.9 140.5,249.2 147.6,249.2C154.6,249.2 160.3,254.9 160.3,261.9" style="fill:rgb(0,95,111);fill-rule:nonzero;"/>
    </g>
    <g transform="matrix(1,0,0,1,-21.725,-249.2)">
        <path d="M110.6,282.9C103.4,278.1 96.3,277.6 93.2,277.6C83.4,277.6 77,281.8 74.3,284.4C73.7,285 73.2,285.6 72.2,287L72.2,263.3C72.2,262.9 72.2,260.1 71.3,258C69.5,252.7 63.9,249.4 58.5,249.4C56.8,249.4 52.5,249.7 49,253C44.3,257.4 44.5,263.2 44.3,269.2L44.3,287.3C44.3,287.8 43.9,287.6 43.6,287.4C43.2,287.2 42.8,287.1 42.4,286.9C41.7,286.6 41,286.4 40.4,286C39.4,285.4 38.9,284.3 38.8,284.2C38.6,284 38.6,283.6 38.6,283.3L38.6,282.9C38.6,282.5 38.7,282.1 38.7,281.7C38.7,281.5 38.6,281.2 38.8,281C39,280.8 39.3,280.8 39.4,280.6C39.5,280.3 39.6,280 39.7,279.9C39.7,279.8 40,279.1 39.8,278.5C39.7,278.3 39.7,278.1 39.4,278.1C39.3,278.1 39.3,278.2 39.2,278.2C39.1,278.2 39.1,278.2 39.1,278.1C39.1,277.9 39.2,277.7 39.2,277.5C39.2,277.3 39.2,274.7 37.5,273.7C35.8,272.7 35.1,272.6 33.8,273.1C33,273.3 32.4,274.2 32,274.8C31.7,275.3 31.3,275.8 31.1,276.4C30.9,277 31,277.6 31.1,278.2C31.1,278.4 31.2,278.6 31.1,278.8C31.1,279 31,278.8 30.9,278.9C30.8,278.9 30.5,279 30.6,279.6C30.7,280.1 31.1,280.5 31.1,280.7C31.1,281 31.2,281.2 31.4,281.3C31.5,281.3 31.6,281.9 31.6,282.2C31.6,282.4 31.9,282.9 32.1,283.1C32.5,283.5 32.9,283.7 33,284.3C33.1,285 33.1,285.5 32.6,286C31.7,287 30.7,287.6 29.5,288.1C28.3,288.6 27.5,289.6 26.8,290.7C26.5,291.2 26.3,291.8 26,292.2C25.4,293.1 24.6,293.8 24.1,294.7C23.6,295.6 23.2,296.5 23,297.5C22.8,298.4 22.6,299.5 22.7,300.4C22.9,301.5 24.5,301.7 25.4,302.1C26,302.3 26.9,302.3 27.4,302.8C27.9,303.4 27.5,304.6 27.4,305.3C27.1,306.6 26.8,307.8 26.5,309.1C26.3,309.8 26.2,310.5 26.1,311.1C26,311.8 25.7,312.8 25.8,313.6C26,314.5 27,314.7 27.1,315.7C27.3,316.8 26.8,318 26.7,319.1C26.5,320.3 26.6,321.5 26.7,322.6C26.9,326.3 27.9,329.9 27.2,333.5C27,334.5 26.8,335.5 26.8,336.5C26.7,338.3 26.8,340.3 27.1,342.1C27.3,343.6 27.5,345.1 27.1,346.7C27.1,346.9 27.1,347.1 27,347.3L27,348.4C27,348.8 27.1,349.1 27.2,349.5C27.2,350.2 26.7,351 26.1,351.4C25.6,351.7 25.2,351.9 24.6,352.1C24.2,352.2 23.9,352.3 23.4,352.5C23.1,352.6 22.8,352.7 22.4,352.9C22.2,353 21.9,353.2 21.8,353.4C21.7,353.6 21.7,353.7 21.8,353.9C22.2,354.8 23.3,355.3 24.2,355.4C25.2,355.5 26.1,355.4 27.1,355.2C28,355 29,354.3 30,354.5C31.3,354.8 33.4,354.9 34.7,354.4C35.7,354 35.2,352.6 34.9,351.9C34.6,351.2 34.6,350.4 34.4,349.7C34.1,348.9 33.9,348.1 33.9,347.3C33.9,346.5 34.1,345.7 34.1,345C34.1,343 34.8,341 34.7,338.9C34.7,338.2 34.8,337.5 35,336.9C35.1,336.2 35,335.5 35.1,334.7C35.2,333.7 35.6,333 35.9,332.1C36.3,331.1 36.5,332.3 36.6,332.7C36.8,333.5 37.1,334.4 37.1,335.2C37.1,336 37.4,336.6 37.6,337.3C37.7,337.5 37.7,337.7 37.7,337.8C38,339 37.9,340.2 37.7,341.4C37.4,343.5 36.9,345.4 36.5,347.5C36.3,348.5 36,349.6 35.8,350.6C35.7,351.2 36,351.7 36.2,352.2C36.4,352.6 36.9,353.5 36.5,353.9C36.5,354 36.4,354 36.4,354.1C36.3,354.2 36.2,354.4 36.1,354.5C35.7,355 35.2,355.5 34.8,356C34,357.1 34.4,358.4 35.7,358.6L36,358.6C36.9,358.7 37.8,358.7 38.6,358.5C39.2,358.4 39.9,358.2 40.4,357.8C40.9,357.4 40.7,356.8 41.4,356.3C41.4,356.3 42.4,355.6 42.8,355.4C43.2,355.2 43.1,354.5 43.1,354.4C43.1,354.3 42.9,353.2 42.9,353.2C42.9,353.1 42.8,352.9 42.8,352.8C42.8,352.7 42.8,352.6 42.7,352.5C42.7,352.4 42.7,352.2 42.8,352.1C42.9,351.9 43,351.8 43.1,351.7C43.2,351.6 43.2,351.4 43.2,351.3C43.2,351 43.1,350.8 43.1,350.5L43.1,349.5C43.1,348.6 43.2,347.8 43.4,346.9C43.5,346.5 43.6,346 43.7,345.6C43.8,345.4 43.8,344.9 44.1,345C44.3,345.1 44.3,345.3 44.3,345.4C44.3,345.7 44.3,345.9 44.4,346.2C44.5,346.7 44.5,347.3 44.6,347.8C45,350.1 45.9,352.2 47.3,354C48.2,355.2 49.4,356.1 50.7,356.9C53.7,358.5 56.3,358.7 57.5,358.7C59.9,358.7 62,358.1 62.9,357.6C66.4,356.2 68.2,353.8 70.1,350.8C71,351.5 71.9,352.5 73.1,353.4C74.6,354.5 76.1,355.2 76.7,355.5C79.9,357.1 84.1,359 91.9,359C108,359 116.1,349.8 119.5,344.7C126.4,334.5 126.7,322.2 126.7,318.3C126.9,304.9 122.6,290.9 110.6,282.9M97.6,318.1C97.6,323.5 96.8,331.5 93.1,336C90.1,339.6 85.9,339.9 84.2,339.9C76.2,339.9 73.7,333.4 72.9,330.9C71.5,327 71.2,322.9 71.2,318.9C71.2,312.7 71.8,304.6 76.5,300C79.1,297.6 81.6,297.1 83.1,297C87.2,296.6 91.1,298.5 93.5,301.8C97.7,307.4 97.6,316.9 97.6,318.1Z" style="fill:rgb(0,95,111);fill-rule:nonzero;"/>
    </g>
    <g transform="matrix(1,0,0,1,-21.725,-249.2)">
        <path d="M289.6,299.9C284.9,304.6 284.3,312.7 284.3,318.8C284.3,322.9 284.6,326.9 286,330.8C286.7,333.4 289.3,339.8 297.3,339.8C299,339.8 303.2,339.5 306.2,335.9C310,331.4 310.7,323.4 310.7,318C310.7,316.8 310.9,307.3 306.6,301.6C304.2,298.3 300.3,296.3 296.2,296.8C294.7,297 292.1,297.5 289.6,299.9M285.2,287C286.2,285.6 286.7,285.1 287.3,284.4C290,281.8 296.5,277.6 306.2,277.6C309.4,277.6 316.4,278 323.6,282.9C335.6,290.9 339.8,304.8 339.8,318.4C339.8,322.3 339.5,334.6 332.6,344.8C329.1,349.9 321,359.1 305,359.1C297.2,359.1 293,357.3 289.8,355.7C289.2,355.4 287.7,354.7 286.2,353.6C285,352.7 284.1,351.8 283.2,351C281.2,354 279.4,356.4 276,357.8C275.1,358.2 273,358.8 270.6,358.8C269.4,358.8 266.8,358.6 263.8,357C256.6,352.9 257.3,344.4 257.3,342.3L257.3,269.3C257.4,263.3 257.3,257.4 262,253.1C265.5,249.8 269.8,249.5 271.5,249.5C276.9,249.5 282.5,252.8 284.3,258.1C285.2,260.2 285.2,262.9 285.2,263.4L285.2,287Z" style="fill:rgb(0,95,111);fill-rule:nonzero;"/>
    </g>
    <g transform="matrix(1,0,0,1,-21.725,-249.2)">
        <path d="M394.1,321.4C391.7,322.2 389.3,323 387,323.8C384.4,324.5 381.9,325.3 379.5,325.9C375.9,327 370.9,328.5 370.9,333.1C370.9,336.3 372.9,339.9 379,339.9C386.8,339.9 392.1,335.2 394,333.5L394,321.4M420.4,345.9C420.4,346.3 420.4,349.7 419.5,352.1C418.4,355 415.6,359 408.1,359C406.2,359 400.6,358.6 397.3,353.4C396.5,352.2 396.1,351.1 395.3,348.7C394.4,349.5 392.1,352 389.3,354C385.7,356.4 379.8,359.1 369.6,359.1C367.5,359.1 360,358.9 354,355.3C353.2,354.8 351.1,353.5 349.2,351.2C343.9,345 343.9,338.4 343.9,335.4C343.9,329.8 345,320.1 357.6,314.1C365.4,310.5 379.8,308.7 388.1,306.7C388.9,306.6 393.4,305.8 393.4,301.4C393.4,298.2 390.5,295.2 384.1,295.2C383.3,295.2 382.6,295.2 381.7,295.3C380.3,295.4 376.1,295.5 373.4,298.7C372.3,299.9 371.7,301.4 370.8,302.8C368.4,306.1 364.8,308.2 360.6,308.2C354.4,308.2 348.3,303.8 348.3,297.2C348.3,295.4 348.9,292.2 351.6,288.6C358.7,279.6 372,277.5 382.7,277.5C385.9,277.5 388.9,277.6 391.9,278C395.7,278.3 411.7,279.8 418,293.5C419.5,296.8 420.3,299.4 420.4,306.3L420.4,345.9Z" style="fill:rgb(0,95,111);fill-rule:nonzero;"/>
    </g>
    <g transform="matrix(1,0,0,1,-21.725,-249.2)">
        <path d="M584.2,334.6L568,310.3L578.9,299.1C581.6,296.1 584.2,292.9 584.2,288.5C584.2,283.8 581,279.3 576.6,277.6C576.1,277.4 574.5,277 572.8,277C567.5,277 564.3,280 560.9,283.5L541.1,305.7L541.1,267C541,265 541.4,256.1 534.5,251.6C531.3,249.5 528.3,249.3 527,249.3C525.3,249.3 521.7,249.5 518.1,252.3C514.3,255.3 513,259.5 512.7,264.2C512.5,265.6 512.5,266.8 512.5,268.1L512.5,287.5C512.5,287.7 512.7,287.6 512.8,287.5C513,287.4 513.1,287.3 513.2,287.2C513.6,286.9 514,286.7 514.4,286.4C515.1,286 515.1,285.2 515.6,284.6C515.8,284.3 516.2,284.5 516.4,284.4C516.8,284 517,282.9 516.8,282.4C516.6,282.1 516.3,282.1 516.2,281.9C516.1,281.7 516.1,281.4 516,281.2C515.9,281.1 515.6,281.2 515.5,281C515,280 514.7,278.7 514.8,277.5C514.9,276.7 515.5,276.3 515.7,275.5C515.8,274.8 515.7,274.6 516.4,274C517.6,272.9 519.1,272.5 520.7,272.5C521.2,272.5 522.4,272.8 522.8,273C523.6,273.4 524.1,273.7 524.4,274.5C524.9,275.6 524.4,275.8 524.4,276.8C524.4,277.2 524.6,277.5 524.6,278C524.7,278.5 524.7,278.9 524.7,279.3C524.7,280.2 524.9,280.5 524.6,281.3C524.3,282.1 524,282.7 523.9,283.7C523.8,284.5 523.6,285.2 522.7,285.4C522.5,285.4 522.3,285.4 522.1,285.6C521.7,286.1 522.3,286.3 522.4,286.8C522.5,287.2 522.2,287.4 522.3,287.8C522.4,288.3 522.5,288.8 522.7,289.2C523.1,290 523.4,291.2 524.1,291.8C524.4,292.1 524.7,292.2 524.8,292.6C524.9,292.9 525,293.4 525,293.7C525.1,294.5 525.1,295.3 525.3,296.2C525.6,297.9 525.7,299.6 526,301.3C526.2,302.7 527,304 527,305.4C527,306.6 527.4,307.7 527.5,308.8C527.6,311.1 527.3,313.3 527.5,315.6C527.5,315.7 527.6,315.7 527.8,316.8C527.9,318.3 528.1,318.2 528.1,318.6L528.1,319C528.1,319.1 527.9,319.1 527.9,319.2C527.8,319.3 527.8,319.3 527.8,319.4C527.8,319.6 527.7,319.7 527.6,319.7C527.4,319.8 527,319.7 527.1,320C527.6,322.4 529.1,328.3 529.1,329.4C529.1,330.2 528.7,330.8 528.6,331.6C528.4,332.4 528.4,333.2 528.4,334C528.5,334.8 528.3,335.7 528.1,336.5C527.8,338.2 527.6,339.9 527.2,341.6C526.9,343.3 526.6,344.9 526.3,346.6C526.2,347 526.1,347.4 526.1,347.8C526.1,348 526,348.2 526,348.4C525.9,348.8 525.8,349.2 525.8,349.6L525.8,350.1C525.8,350.3 525.9,350.5 526,350.6C526.3,351 526.9,351.1 527.4,351.2C527.9,351.3 528.2,351.3 528.8,351.4C529.3,351.4 529.8,351.4 530.2,351.7C530.6,352 530.4,352.6 530.5,353C530.6,353.2 530,353.5 529.6,353.6C529.4,353.7 529.2,353.7 529,353.8C528.3,353.9 527.5,354 526.8,354C526.5,354 524.2,354 523.3,353.8C523.1,353.8 522.9,353.7 522.7,353.6L522.6,353.5C522.4,353.4 522.2,353.5 522.2,353.5L522.2,353.7C522.2,354 522,354 521.8,354C521.4,354 521,353.9 520.6,353.9C520.5,353.9 520.3,353.8 520.3,353.9C520.2,354.2 520.7,354.7 520.9,354.9C521.3,355.3 521.7,355.6 522.1,355.9C522.4,356.2 522.7,356.7 522.7,357.1L522.7,357.9C522.7,358.1 522.7,358.3 522.9,358.4C523,358.4 523.1,358.5 523.2,358.5C523.4,358.5 523.5,358.6 523.7,358.6C524.6,358.8 525.5,358.9 526.5,359L527.3,359C533.6,359 538.9,355.2 540.7,348.9C541.3,346.8 541.4,344.7 541.4,343.8L541.4,334.7L547.7,328.5L562,350.8C562.9,352.2 563.8,353.4 564.9,354.4C567.6,357.3 570.9,358.9 574.9,358.9C582.4,358.9 588.5,353.2 588.6,345.5C588.3,340.1 585.1,336 584.2,334.6" style="fill:rgb(0,95,111);fill-rule:nonzero;"/>
    </g>
    <g transform="matrix(1,0,0,1,-21.725,-249.2)">
        <path d="M229.2,280.6C221.4,277.1 213.7,277 210.7,277C190.7,276.8 180.4,285.7 175.4,292.5C168.2,302.4 168.2,313.7 168.2,317.7C168.2,322.9 168.2,335.6 177.8,347C182.5,352.5 190.4,359 206.2,359.7C205.9,357.9 205.6,356 205.1,354.2C204,350.3 205.1,345.5 205.1,345.5C205.3,343.2 204.5,339 204.1,337.2C204.1,337 204,336.9 204,336.8C203.9,336.7 203.8,336.7 203.7,336.7C203.6,336.7 203.4,336.7 203.3,336.6C203.1,336.4 203.2,336.1 203,335.9C202.9,335.8 202.7,335.7 202.5,335.6C202.1,335.4 202,334.9 201.9,334.5C201.8,333.9 202.1,332.9 201.8,332.3C201.5,331.7 200.6,331.7 200.1,331.3C198.9,330.4 200.1,329.1 200,328C199.9,327.3 199.6,326.6 199.5,325.9C199.4,325.2 199.4,324.5 199.4,323.8C199.4,322.2 199.6,320.6 199.9,319.1L199.9,318.6C199.6,315.6 199.8,312.6 200.4,309.7C200.7,308.4 201.1,307.1 201.6,305.9C201.8,305.4 202.1,304.8 202.4,304.3C203.3,302.6 201.9,302.7 201.9,301.2C201.9,300 202.7,298.8 203.2,297.7C204.2,295.4 204.1,293.1 205.1,290.8C205.4,289.9 205.8,289.2 206.5,288.5C207.1,287.9 208.3,287.5 209.2,287.6C211.6,287.7 213.2,289.2 213.8,291.5C214,292.4 214.4,294.7 214.8,296.8C214.9,297.6 215.3,299 216,299.5C216.1,299.6 216.3,299.6 216.4,299.7C216.7,299.8 216.9,299.9 216.8,300.3C216.7,300.8 216.5,301.3 216.2,301.7C215.9,302.1 215.4,302.3 215.2,302.7C215,303.1 215.3,303.2 215.6,303.3C216.6,303.7 217.1,304.3 217.5,305.3C218.3,307.1 218.7,309.2 218.9,311.1C219.1,312.4 219.2,313.7 219.3,315.1C219.3,315.6 219.2,316.2 219.1,316.7C219,317.4 219.2,317.7 219.4,318.3C219.8,319.8 219.4,321.8 219.4,323.4L219.4,325.7C219.4,326 219.5,326.4 219.6,326.7C219.7,327 220,327.2 220.1,327.5C220.4,328 220.3,328.6 220,329.1C219.8,329.4 219.7,329.6 219.4,329.8C219,330.2 218.4,330.4 218.2,330.9C218,331.3 218.2,331.8 218.2,332.2C218.2,332.6 218.3,333.1 218.3,333.5C218.2,333.8 217.8,334.4 217.7,334.6C217.5,334.9 217.4,335.3 217.1,335.5C217.1,335.5 217,335.5 217,335.6C216.9,335.7 216.8,335.8 216.6,335.9C216.5,335.9 216.3,336.1 216.2,336.1L216,336.1C215.9,336.1 215.9,336 215.8,336.1C215.8,336.2 215.8,336.3 215.7,336.4C215.6,336.6 215.6,336.8 215.6,337C215.5,337.4 215.5,337.8 215.4,338.2C215.2,339.2 214.9,340.1 214.6,341.1C214.3,341.9 214,342.7 213.5,343.4C213.3,343.8 213.1,344.1 213.1,344.5C213.1,344.9 213,345.3 213,345.7C212.9,346.2 212.8,346.7 212.7,347.2C212.5,347.7 212.2,348 212.1,348.5L212.1,348.8C212.1,349.4 211.6,355.9 211.5,358.5C211.5,359 211.4,359.6 211.4,360.1C219.5,359.8 239.3,357.4 247.4,338.2C250.9,330.2 251.1,321.7 251.1,318.8C250.9,302.6 244.3,287.3 229.2,280.6" style="fill:rgb(0,95,111);fill-rule:nonzero;"/>
    </g>
    <g transform="matrix(1,0,0,1,-21.725,-249.2)">
        <path d="M505.7,291.9C503.6,286.7 497.5,277.7 483,277.7C481.7,277.7 480.5,277.8 479.2,277.9C478,278 476.8,278.3 475.7,278.5C474.6,278.8 473.6,279.1 472.5,279.5C471.5,279.8 470.6,280.3 469.7,280.7C468.8,281.1 468,281.6 467.2,282.1C466.5,282.6 465.7,283 465,283.6C464.7,283.8 464.4,284.1 464,284.3C463.9,284.4 463.7,284.6 463.6,284.7C463.4,284.9 463.3,284.6 463.3,284.5C463.2,284.3 463.1,284.1 463,283.9L463,283.8C462.5,282.9 461.2,282.4 460.3,282.1C459.3,281.7 458.3,281.5 457.3,281.3C456.9,281.2 456.4,281.1 456,280.9C455.5,280.6 455.2,280.2 455,279.6C454.9,279.4 454.9,279.1 454.7,278.9C454.4,278.7 453.9,279 453.8,278.6C453.7,278.3 453.7,278 453.9,277.8C454.1,277.4 454.4,277.1 454.5,276.6C454.6,276 454.6,275.6 454.8,275.1C455,274.8 455,274.4 455,274.1C455.1,273.4 455,272.6 454.7,272C454.3,271.1 454.1,270.1 453.4,269.4C452.6,268.7 451.2,268.4 450.8,268.3C450.5,268.2 450.1,268.2 449.7,268.2C448.9,268.2 448.1,268.5 447.5,268.9C447.2,269.1 446.9,269.2 446.7,269.5C446.6,269.6 446.6,269.8 446.5,269.9L446.5,270.2C446.4,270.7 446,271.1 445.8,271.5C445.7,271.7 445.6,271.9 445.7,272.2C445.7,272.5 445.6,272.7 445.6,273L445.6,274.8C445.6,275 445.7,275.2 445.7,275.4C445.9,275.8 446.2,276.2 446.4,276.6C446.7,277.1 446.9,277.6 447.2,278.2C447.2,278.3 447.3,278.4 447.4,278.5C447.6,278.7 447.7,278.8 447.9,278.9C448.1,279 448.2,279.6 448.3,279.8C448.4,280.1 448.1,280.1 448.1,280.2L448.1,280.5C448.2,280.7 448.4,281 448.3,281.2C448,281.7 447.5,281.9 447,282.1C446.9,282.2 446.7,282.2 446.6,282.2C446.4,281.4 445.9,280.4 445.6,279.8C445.3,279.1 444.8,278.4 444.3,277.9C443.8,277.3 443.1,277.2 442.3,277.2C442,277.2 441.6,276.9 441.3,276.8C439.7,276.6 439,278.2 438.3,279.4C438,280 437.5,280.5 437.2,281.2C437,281.6 436.9,282.1 436.8,282.6C436.7,283.2 436.9,283.5 436.9,284.1C437,284.8 436.5,285.5 436.5,286.2C436.5,286.7 436.6,287 436.8,287.4C437.2,288.1 437.5,288.9 437.2,289.6C436.9,290.4 436.2,291 435.4,291.4C435.1,291.5 434.5,291.8 434.2,291.6C433.3,291.1 433.5,289.7 432.8,289.1C432.5,288.8 431.9,288.8 431.5,288.7C430.9,288.6 430.4,288.3 431,287.7C431.1,287.6 431.2,287.4 431.3,287.2C431.3,287.1 431.4,287 431.5,287C431.6,286.9 431.7,286.9 431.8,286.9C432,286.9 432,286.7 432.1,286.6C432.3,286.3 432.6,286 432.7,285.7C432.7,285.6 432.8,285.3 432.7,285.2C432.7,285.1 432.4,285 432.4,285C432.4,284.8 432.5,284.5 432.6,284.3C432.8,283.8 432.8,283.3 432.7,282.7C432.7,282.1 432.4,281.7 432,281.3C431.8,281.1 431.5,280.9 431.2,280.8C431,280.7 430.7,280.7 430.4,280.7C430.2,280.7 430.1,280.5 429.9,280.4C429.6,280.2 429.1,280.2 428.8,280.2C428.2,280.1 427.6,280.2 427.1,280.6C426.8,280.8 426.9,280.9 426.7,281.2C426.6,281.5 426.3,281.6 426.1,281.8C425.9,282 425.8,282.3 425.7,282.5C425.5,283 425.2,283.6 425.2,284.1C425.2,284.2 425.2,284.2 425.3,284.3C425.4,284.4 425.4,284.6 425.3,284.7C425.2,284.9 425,284.9 425,285.1C425,285.5 425.4,285.8 425.5,286.2C425.6,286.5 425.7,286.9 426,287L426.4,287C426.8,287.1 426.9,287.8 427,288.1C427.2,288.7 426.6,288.9 426.2,289.1C425.4,289.5 424.4,290.5 424,291.4C423.7,292.1 423,294.2 423,294.4C422.9,294.7 422.9,295 422.8,295.2C422.7,295.4 422.6,295.6 422.6,295.8C422.6,296 423.3,297.6 423.6,298C423.9,298.4 424.2,298.6 424.6,298.9C424.8,299.1 425,299.2 425.2,299.4C425.3,299.5 425.5,299.6 425.6,299.7C425.7,299.9 425.6,300.1 425.6,300.3C425.6,300.5 425.8,300.6 425.9,300.8C426,301 426,301.2 426,301.4C426,301.8 426.1,302.3 426.3,302.7C426.6,303.4 427.1,303.7 427.7,304.1C428.2,304.4 428.1,305 428.3,305.5C428.5,306 428.9,306.3 429.4,306.6C430.4,307.2 430.1,307.9 429.7,308.8C429.3,309.8 428.9,310.9 428.6,312C428.4,312.5 428.3,313.1 428.3,313.6C428.3,313.9 428.1,314.6 428.2,314.9C428.3,315.2 428.5,315 428.6,315.4C428.6,315.7 428.6,316.1 428.4,316.3C428.2,316.6 427.8,316.8 427.9,317.2C428,317.9 428.8,318.3 429,319C429.1,319.3 429,319.7 429,320C428.9,322 429.3,324 429.6,326.1C430,328.6 431.4,337 431.6,337.3C431.6,337.4 431.7,337.5 431.7,337.5L432.3,337.5C432.4,337.5 432.4,337.8 432.4,337.9L432.4,344.1C432.4,344.2 432.4,344.2 432.3,344.2L432.1,344.2C432,344.2 431.9,344.2 431.9,344.3C431.7,344.4 431.7,344.5 431.7,344.7L431.7,348.7C431.8,349.1 431.8,349.4 431.8,349.8C432,351.1 432,352.4 431.9,353.8C431.9,354.2 431.8,354.6 431.8,355C431.8,355.2 431.8,355.4 431.7,355.6C431.7,355.9 431.6,356.1 431.5,356.4C431.4,356.6 431.3,356.8 431.1,357C430.9,357.4 430.6,357.8 430.4,358.2C430,358.9 429.6,359.5 429.2,360.2C429,360.5 429,360.8 429.4,361C429.7,361.1 430.1,361 430.3,360.9C430.8,360.8 432.5,360.2 432.9,360.1C433.5,359.9 433.9,359.6 434.3,359C434.5,358.7 434.7,358.4 434.8,358.1C434.9,357.9 434.9,357.8 435,357.6L435.1,357.5L435.3,357.5C435.5,357.6 435.7,357.7 435.9,357.6C436,357.5 436.2,357.3 436.2,357.2C436.3,357.1 436.3,357 436.3,356.9C436.2,356.6 436.2,356.3 436.2,356C436.2,355.8 436.1,355.6 436.1,355.5C436,355.2 436.1,354.9 436.1,354.6L436.1,353.1C436.1,352.6 435.8,352.1 435.8,351.5C435.8,350.2 435.9,348.8 436.1,347.5C436.2,346.7 436.4,345.9 436.6,345C436.7,344.7 436.7,344.5 436.8,344.3C436.8,344.2 436.9,344.1 436.8,344C436.7,343.9 436.4,344 436.4,343.9C436.4,343.8 436.4,343.7 436.5,343.7L436.5,343.4C436.6,343.2 436.6,343 436.6,342.8C436.7,342.3 436.8,341.8 436.9,341.3C437,340.9 437,340.6 437,340.2C437,339.7 437,339.2 436.9,338.7L436.9,337.9C436.9,337.7 436.8,337.4 437,337.3C437.2,337.2 437.5,337.2 437.6,337.2C437.9,337.2 438.1,337.1 438.4,337.1C438.5,337.1 438.8,337 438.9,337.1L438.9,337.2C439,337.3 438.9,337.6 438.9,337.7C438.9,338.2 438.9,338.7 438.8,339.2C438.8,339.6 438.8,340.8 438.7,340.9C438.6,341 438.5,340.9 438.4,341C438.3,341.1 438.4,344.6 438.4,345.8C438.4,346.2 438.3,346.7 438.2,347.1C438.1,347.6 437.9,348.1 437.7,348.6C437.5,349.1 437.5,349.8 437.5,350.3C437.5,351.1 437.5,352 437.6,352.8C437.6,353.1 437.6,353.4 437.7,353.8C437.7,354.3 438.8,354.4 439,354.2C439.1,354.1 439.2,353.8 439.2,353.8C439.3,353.8 439.3,354 439.4,354.1C439.5,354.3 439.5,354.5 439.6,354.7C439.6,354.9 439.7,355.1 439.7,355.2C439.8,355.6 441.1,355.8 441.7,355.9C442.3,356 443.2,356.1 443.2,356.1C443.2,356.1 444.5,356.3 444.4,355.6C444.4,355.3 444.2,355.1 443.9,354.9C443.7,354.7 442.9,353.9 442.8,353.7C442.6,353.5 442.5,353.3 442.3,353.1C442.1,352.8 442,352.2 441.9,351.8C441.8,351.4 441.7,351.1 441.6,350.7C441.5,350.5 441.5,350.2 441.4,350C441.3,349.7 441.4,349.4 441.4,349.1C441.4,348.8 441.5,348.5 441.5,348.2C441.6,347.5 441.7,346.9 441.9,346.2C442.2,345.3 442.4,344.4 442.7,343.5C442.8,343 443,342.6 443.1,342.1C443.1,342 443.2,341.7 443.2,341.7C443.1,341.6 442.8,341.6 442.7,341.6C442.6,341.6 442.6,341.5 442.6,341.4C442.6,341.2 442.7,341 442.7,340.7C442.8,340.2 442.9,339.7 443,339.2C443,339 443.1,338.8 443.1,338.6C443.2,338.2 443.2,337.8 443.2,337.5L443.2,336.9C443.3,336.7 443.5,336.7 443.6,336.7C443.7,336.7 444,336.7 444.1,336.6C444.2,336.5 444.2,336.4 444.2,336.2C444.2,335.9 444.3,335.5 444.3,335.2C444.4,334.5 444.4,333.9 444.5,333.2C444.5,332.9 444.5,331.8 444.6,331.6C444.6,331.4 444.8,331.3 444.9,331.5C445,331.6 445,331.7 445,331.8C445.1,332.1 445.2,332.5 445.2,332.8C445.5,334 445.7,335.2 446,336.4C446.3,337.8 446.6,339.2 446.9,340.5C447.2,341.9 447.6,343.3 448,344.7C448.4,345.9 448.7,347.2 449.2,348.4C449.3,348.7 449.4,349 449.6,349.3C449.8,349.6 449.9,350 450.1,350.3C450.3,350.6 450.4,350.9 450.6,351.1C450.8,351.3 450.9,351.1 451.1,351.1C451.3,351.1 451.4,351.2 451.3,351.5C451.2,351.7 451.1,351.9 450.9,352.1C450.7,352.4 450.4,352.8 450.1,353.1C449.6,353.6 449,353.9 448.4,354.2C447.9,354.4 447.4,354.5 446.8,354.6C446.4,354.7 446,354.7 445.6,354.9C445.3,355 445.2,355.3 445.1,355.6C445.1,355.7 445.2,355.9 445.2,356C445.2,356.1 445.1,356.1 445.1,356.2C445,356.3 445,356.5 445.1,356.6C445.2,357 445.6,357.1 446,357.2C446.9,357.4 447.9,357.3 448.8,357.3C449.6,357.2 450.4,357.1 451.2,357C451.7,356.9 452.2,356.8 452.7,356.8C452.9,356.8 453.1,356.7 453.3,356.7C453.4,356.7 453.6,356.6 453.7,356.7C453.8,356.8 453.8,356.9 453.9,357C454,357.1 456.5,357 456.8,357C457.2,357 457.3,356.6 457.3,356.3L457.3,355.4C457.3,355.2 457.3,354.4 457.6,354.4C457.9,354.4 458,355.5 458,355.7L458,356.9C458,357.6 457.5,359.9 460.1,359.9C461.5,359.9 463.4,359.9 463.4,358.6C463.4,357.7 463.2,357.3 462.7,356.3C462.4,355.7 462.1,355 461.8,354.4C461.6,354 461.5,353.7 461.5,353.2L461.5,352.6C461.5,352.5 461.5,352.3 461.6,352.2C461.7,352.2 461.9,352.2 461.9,352C461.9,350.6 461.8,347.7 461.7,345.8C461.6,344.3 461.4,341.3 460.8,338.1C460.1,333.9 459.9,333.7 459.9,333.1C460,331 459.3,329.1 459.3,326.6C459.3,325.7 459.1,324.8 459,323.9C458.9,323.5 458.9,323.2 458.8,322.9C458.7,322.7 458.6,322.3 458.7,322C458.8,321.9 459,321.9 459.2,321.8C459.3,321.7 459.5,321.6 459.6,321.5C459.7,321.3 459.7,321.2 459.8,321.1C460,321 460.3,321.1 460.6,321C460.9,320.9 461.1,320.7 461.3,320.5C461.6,320.3 461.8,319.9 461.8,319.6C461.8,319.2 461.8,318.9 461.9,318.5C462,318.1 462.1,317.8 462.1,317.4C462.1,317.1 462,316.8 462.3,316.6C462.5,316.4 462.8,316.4 463.1,316.2C463.4,316 463.3,315.7 463.2,315.4C463,314.5 463,313.7 463.2,312.8L463.2,312.6C463.3,311.8 463.4,310.9 463.6,310.1C463.8,308.9 464.1,307.7 464.3,306.5C464.4,305.9 464.5,305.4 464.6,304.8C464.7,304.3 464.9,302.5 464.8,300.7C464.8,300.4 464.8,300.3 465,300.2C465.2,300.1 465.3,300 465.5,300C465.8,299.9 466.1,299.7 466.4,299.6C467.5,299.2 468.8,298.9 470,298.9C472.4,298.9 477.6,299.8 478.9,306.2C479.2,307.4 479.2,308.3 479.2,310.7L479.2,342.4C479.4,344.7 479.4,346.6 480,348.8C481.7,354.3 485.8,357.1 487.6,358C490,359.1 492.5,359.1 493.4,359.1C500.1,359.2 505.2,354.9 506.9,348.3C507.4,346.2 507.4,345.1 507.5,342.8L507.5,301.9C507,298 506.9,295.2 505.7,291.9" style="fill:rgb(0,95,111);fill-rule:nonzero;"/>
    </g>
</svg>
