<?xml version="1.0" encoding="UTF-8" standalone="no"?>
<!DOCTYPE svg PUBLIC "-//W3C//DTD SVG 1.1//EN" "http://www.w3.org/Graphics/SVG/1.1/DTD/svg11.dtd">
<svg width="100%" height="100%" viewBox="0 0 1449 1542" version="1.1" xmlns="http://www.w3.org/2000/svg" xmlns:xlink="http://www.w3.org/1999/xlink" xml:space="preserve" xmlns:serif="http://www.serif.com/" style="fill-rule:evenodd;clip-rule:evenodd;stroke-linecap:round;stroke-linejoin:round;stroke-miterlimit:1.5;">
    <g id="Head---brain" serif:id="Head + brain" transform="matrix(1,0,0,1,-1099.91,-162.394)">
        <g transform="matrix(0.105668,0,0,0.380711,1935.75,503.419)">
            <path d="M1249.68,3072.43L3802.91,3072.43" style="fill:none;stroke:rgb(51,51,51);stroke-width:223.71px;"/>
        </g>
        <g transform="matrix(6.47029e-18,0.105668,-0.380711,2.33118e-17,3507.3,1271.28)">
            <path d="M1249.68,3072.43L3802.91,3072.43" style="fill:none;stroke:rgb(51,51,51);stroke-width:223.71px;"/>
        </g>
        <g transform="matrix(0.0704453,0,0,0.380711,2249.56,233.624)">
            <path d="M1249.68,3072.43L3802.91,3072.43" style="fill:none;stroke:rgb(51,51,51);stroke-width:228.29px;"/>
        </g>
        <g transform="matrix(0.0704453,0.122015,-0.329705,0.190356,3262.56,354.467)">
            <path d="M1249.68,3072.43L3802.91,3072.43" style="fill:none;stroke:rgb(51,51,51);stroke-width:217.73px;"/>
        </g>
        <g transform="matrix(2.11337e-17,0.140891,-0.380711,6.34011e-17,3507.3,556.006)">
            <path d="M1249.68,3072.43L3802.91,3072.43" style="fill:none;stroke:rgb(51,51,51);stroke-width:217.73px;"/>
        </g>
        <g transform="matrix(0.419052,0,0,0.374047,847.849,-939.986)">
            <path d="M3555.03,4470.19C3555.03,3675.19 2910.56,3030.72 2115.56,3030.72C1320.56,3030.72 676.088,3675.19 676.088,4470.19L3555.03,4470.19Z" style="fill:none;stroke:rgb(51,51,51);stroke-width:157.36px;"/>
        </g>
        <g transform="matrix(-1.1039,0,0,1.1039,2748.32,-6041.15)">
            <path d="M372.217,6129.53C365.354,5974.32 603.058,5747.21 924.358,5747.88C1245.66,5748.54 1465.07,5944.11 1464.95,6129.53C1464.82,6314.94 1321.8,6394.04 1284.32,6407.82C1246.84,6421.6 1188.45,6421.51 1220.8,6487.7C1253.14,6553.9 1259.14,6578.28 1259.14,6578.28L1131.69,6578.28C1131.69,6578.28 1038.73,6388.16 819.102,6379.76C599.477,6371.37 381.457,6338.48 372.217,6129.53Z" style="fill:rgb(152,116,178);stroke:rgb(51,51,51);stroke-width:56.62px;"/>
        </g>
        <g id="Brain-networks" serif:id="Brain networks">
            <g transform="matrix(0.276974,0,0,0.400994,42.7341,-1788.54)">
                <path d="M6416.38,5700.7C6429.95,5874.97 6411.03,6026.13 6397.74,6163.65C6384.45,6301.18 6392.12,6288.03 6385.19,6340.35C6378.26,6392.66 6394.15,6453.81 6274.13,6410.8C6154.11,6367.8 6047.24,6308.28 5958.45,6281.25C5869.67,6254.21 5816.45,6269.29 5832.17,6113.06C5847.88,5956.84 5856.4,5831.23 5847.09,5659.63C5837.78,5488.03 5809.28,5338.03 5804.56,5299.66C5797.98,5246.15 5776.58,5209.22 6075.86,5218.25C6309.98,5225.32 6384.24,5181.8 6383.96,5357.24C6383.8,5462.05 6402.81,5526.43 6416.38,5700.7Z" style="fill:rgb(92,36,131);stroke:rgb(51,51,51);stroke-width:2.9px;"/>
            </g>
            <g transform="matrix(-0.442267,0,0,0.600448,4040.85,-2756.78)">
                <path d="M6578.54,5715.36C6592.11,5889.63 6500.64,6027.76 6397.74,6163.65C6305.26,6285.79 6207.89,6296.98 6223.61,6140.75C6239.32,5984.53 6231.4,5610.81 6365.9,5472.34C6429.06,5407.33 6564.97,5541.09 6578.54,5715.36Z" style="fill:rgb(92,36,131);stroke:rgb(51,51,51);stroke-width:1.9px;"/>
            </g>
            <g transform="matrix(0.745704,0,0,0.400994,-2450.62,-1643.13)">
                <path d="M6416.38,5700.7C6429.95,5874.97 6395.03,6025.51 6397.74,6163.65C6400.06,6282.08 6241.75,6474.43 6083.7,6532.08C5996.51,6563.88 5883.89,6663.45 5899.61,6507.23C5915.32,6351 5970.26,6025.05 5960.95,5853.45C5951.65,5681.85 5912.56,5204.84 5908.79,5166.1C5889.94,4972.52 5876.85,4877.54 6106.52,5092.84C6173.53,5155.66 6402.81,5526.43 6416.38,5700.7Z" style="fill:rgb(92,36,131);stroke:rgb(51,51,51);stroke-width:1.67px;"/>
            </g>
        </g>
        <g transform="matrix(-1.1039,0,0,1.1039,2748.32,-6041.15)">
            <path d="M372.217,6129.53C365.354,5974.32 603.058,5747.21 924.358,5747.88C1245.66,5748.54 1465.07,5944.11 1464.95,6129.53C1464.82,6314.94 1321.8,6394.04 1284.32,6407.82C1246.84,6421.6 1188.45,6421.51 1220.8,6487.7C1253.14,6553.9 1259.14,6578.28 1259.14,6578.28L1131.69,6578.28C1131.69,6578.28 1038.73,6388.16 819.102,6379.76C599.477,6371.37 381.457,6338.48 372.217,6129.53Z" style="fill:none;stroke:rgb(51,51,51);stroke-width:56.62px;"/>
        </g>
    </g>
</svg>
