<?xml version="1.0" encoding="UTF-8" standalone="no"?>
<!DOCTYPE svg PUBLIC "-//W3C//DTD SVG 1.1//EN" "http://www.w3.org/Graphics/SVG/1.1/DTD/svg11.dtd">
<svg width="100%" height="100%" viewBox="0 0 945 2363" version="1.1" xmlns="http://www.w3.org/2000/svg" xmlns:xlink="http://www.w3.org/1999/xlink" xml:space="preserve" xmlns:serif="http://www.serif.com/" style="fill-rule:evenodd;clip-rule:evenodd;stroke-linecap:round;stroke-linejoin:round;stroke-miterlimit:1.5;">
    <g transform="matrix(2.41935,0,0,1.1233,-2058.31,-20.1533)">
        <path d="M947.5,267L1146,267" style="fill:none;stroke:rgb(51,51,51);stroke-width:44.18px;"/>
    </g>
    <g transform="matrix(1.59591,0,0,1.1233,-1198.08,139.893)">
        <path d="M947.5,267L1146,267" style="fill:none;stroke:rgb(51,51,51);stroke-width:60.39px;"/>
    </g>
    <g transform="matrix(2.41935,0,0,1.1233,-2060.01,720.486)">
        <path d="M947.5,267L1146,267" style="fill:none;stroke:rgb(152,116,178);stroke-width:44.18px;"/>
    </g>
    <g transform="matrix(1.91328,0,0,1.1233,-1527.73,560.44)">
        <path d="M947.5,267L1146,267" style="fill:none;stroke:rgb(51,51,51);stroke-width:53.12px;"/>
    </g>
    <g transform="matrix(2.41935,0,0,1.1233,-2060.01,1042.28)">
        <path d="M947.5,267L1146,267" style="fill:none;stroke:rgb(51,51,51);stroke-width:44.18px;"/>
    </g>
    <g transform="matrix(1.59591,0,0,1.1233,-1198.08,1202.33)">
        <path d="M947.5,267L1146,267" style="fill:none;stroke:rgb(51,51,51);stroke-width:60.39px;"/>
    </g>
    <g transform="matrix(2.67667,0,0,1.1233,-2329.36,881.182)">
        <path d="M947.5,267L1146,267" style="fill:none;stroke:rgb(51,51,51);stroke-width:40.6px;"/>
    </g>
    <g transform="matrix(2.41935,0,0,1.1233,-2060.01,1782.52)">
        <path d="M947.5,267L1146,267" style="fill:none;stroke:rgb(51,51,51);stroke-width:44.18px;"/>
    </g>
    <g transform="matrix(1.99048,0,0,1.1233,-1611.09,1622.47)">
        <path d="M947.5,267L1146,267" style="fill:none;stroke:rgb(51,51,51);stroke-width:51.56px;"/>
    </g>
    <g transform="matrix(0.561648,0,0,0.561648,-192.55,-12.9523)">
        <path d="M1657,236.22C1657,1076.7 711,1075.05 711,2125.98" style="fill:none;stroke:rgb(51,51,51);stroke-width:148.37px;"/>
    </g>
    <g transform="matrix(-0.561648,0,0,0.561648,1137.43,-12.9523)">
        <path d="M1657,236.22C1657,1076.7 711,1075.05 711,2125.98" style="fill:none;stroke:rgb(51,51,51);stroke-width:148.37px;"/>
    </g>
    <g transform="matrix(0.561648,0,0,0.561648,-192.55,1048.43)">
        <path d="M1657,236.22C1657,1076.7 711,1075.05 711,2125.98" style="fill:none;stroke:rgb(51,51,51);stroke-width:148.37px;"/>
    </g>
    <g transform="matrix(-0.561648,0,0,0.561648,1137.43,1048.43)">
        <path d="M1657,236.22C1657,1076.7 711,1075.05 711,2125.98" style="fill:none;stroke:rgb(51,51,51);stroke-width:148.37px;"/>
    </g>
</svg>
