<?xml version="1.0" encoding="UTF-8" standalone="no"?>
<!DOCTYPE svg PUBLIC "-//W3C//DTD SVG 1.1//EN" "http://www.w3.org/Graphics/SVG/1.1/DTD/svg11.dtd">
<svg width="100%" height="100%" viewBox="0 0 4000 2000" version="1.1" xmlns="http://www.w3.org/2000/svg" xmlns:xlink="http://www.w3.org/1999/xlink" xml:space="preserve" xmlns:serif="http://www.serif.com/" style="fill-rule:evenodd;clip-rule:evenodd;stroke-linecap:round;stroke-linejoin:round;stroke-miterlimit:1.5;">
    <g id="Head---brain" serif:id="Head + brain" transform="matrix(1,0,0,1,171.769,174.341)">
        <g transform="matrix(0.105668,0,0,0.380711,1935.75,503.419)">
            <path d="M1249.68,3072.43L3802.91,3072.43" style="fill:none;stroke:rgb(51,51,51);stroke-width:223.71px;"/>
        </g>
        <g transform="matrix(6.47029e-18,0.105668,-0.380711,2.33118e-17,3507.3,1271.28)">
            <path d="M1249.68,3072.43L3802.91,3072.43" style="fill:none;stroke:rgb(51,51,51);stroke-width:223.71px;"/>
        </g>
        <g transform="matrix(0.0704453,0,0,0.380711,2249.56,233.624)">
            <path d="M1249.68,3072.43L3802.91,3072.43" style="fill:none;stroke:rgb(51,51,51);stroke-width:228.29px;"/>
        </g>
        <g transform="matrix(0.0704453,0.122015,-0.329705,0.190356,3262.56,354.467)">
            <path d="M1249.68,3072.43L3802.91,3072.43" style="fill:none;stroke:rgb(51,51,51);stroke-width:217.73px;"/>
        </g>
        <g transform="matrix(2.11337e-17,0.140891,-0.380711,6.34011e-17,3507.3,556.006)">
            <path d="M1249.68,3072.43L3802.91,3072.43" style="fill:none;stroke:rgb(51,51,51);stroke-width:217.73px;"/>
        </g>
        <g transform="matrix(0.419052,0,0,0.374047,847.849,-939.986)">
            <path d="M3555.03,4470.19C3555.03,3675.19 2910.56,3030.72 2115.56,3030.72C1320.56,3030.72 676.088,3675.19 676.088,4470.19L3555.03,4470.19Z" style="fill:none;stroke:rgb(51,51,51);stroke-width:157.36px;"/>
        </g>
        <g transform="matrix(-1.1039,0,0,1.1039,2748.32,-6041.15)">
            <path d="M372.217,6129.53C365.354,5974.32 603.058,5747.21 924.358,5747.88C1245.66,5748.54 1465.07,5944.11 1464.95,6129.53C1464.82,6314.94 1321.8,6394.04 1284.32,6407.82C1246.84,6421.6 1188.45,6421.51 1220.8,6487.7C1253.14,6553.9 1259.14,6578.28 1259.14,6578.28L1131.69,6578.28C1131.69,6578.28 1038.73,6388.16 819.102,6379.76C599.477,6371.37 381.457,6338.48 372.217,6129.53Z" style="fill:rgb(152,116,178);stroke:rgb(51,51,51);stroke-width:56.62px;"/>
        </g>
        <g transform="matrix(0.276974,0,0,0.400994,42.7341,-1788.54)">
            <path d="M6416.38,5700.7C6429.95,5874.97 6411.03,6026.13 6397.74,6163.65C6384.45,6301.18 6392.12,6288.03 6385.19,6340.35C6378.26,6392.66 6394.15,6453.81 6274.13,6410.8C6154.11,6367.8 6047.24,6308.28 5958.45,6281.25C5869.67,6254.21 5816.45,6269.29 5832.17,6113.06C5847.88,5956.84 5856.4,5831.23 5847.09,5659.63C5837.78,5488.03 5809.28,5338.03 5804.56,5299.66C5797.98,5246.15 5776.58,5209.22 6075.86,5218.25C6309.98,5225.32 6384.24,5181.8 6383.96,5357.24C6383.8,5462.05 6402.81,5526.43 6416.38,5700.7Z" style="fill:rgb(92,36,131);stroke:rgb(51,51,51);stroke-width:2.9px;"/>
        </g>
        <g transform="matrix(-0.442267,0,0,0.600448,4040.85,-2756.78)">
            <path d="M6578.54,5715.36C6592.11,5889.63 6500.64,6027.76 6397.74,6163.65C6305.26,6285.79 6207.89,6296.98 6223.61,6140.75C6239.32,5984.53 6231.4,5610.81 6365.9,5472.34C6429.06,5407.33 6564.97,5541.09 6578.54,5715.36Z" style="fill:rgb(92,36,131);stroke:rgb(51,51,51);stroke-width:1.9px;"/>
        </g>
        <g transform="matrix(0.745704,0,0,0.400994,-2450.62,-1643.13)">
            <path d="M6416.38,5700.7C6429.95,5874.97 6395.03,6025.51 6397.74,6163.65C6400.06,6282.08 6241.75,6474.43 6083.7,6532.08C5996.51,6563.88 5883.89,6663.45 5899.61,6507.23C5915.32,6351 5970.26,6025.05 5960.95,5853.45C5951.65,5681.85 5912.56,5204.84 5908.79,5166.1C5889.94,4972.52 5876.85,4877.54 6106.52,5092.84C6173.53,5155.66 6402.81,5526.43 6416.38,5700.7Z" style="fill:rgb(92,36,131);stroke:rgb(51,51,51);stroke-width:1.67px;"/>
        </g>
        <g transform="matrix(-1.1039,0,0,1.1039,2748.32,-6041.15)">
            <path d="M372.217,6129.53C365.354,5974.32 603.058,5747.21 924.358,5747.88C1245.66,5748.54 1465.07,5944.11 1464.95,6129.53C1464.82,6314.94 1321.8,6394.04 1284.32,6407.82C1246.84,6421.6 1188.45,6421.51 1220.8,6487.7C1253.14,6553.9 1259.14,6578.28 1259.14,6578.28L1131.69,6578.28C1131.69,6578.28 1038.73,6388.16 819.102,6379.76C599.477,6371.37 381.457,6338.48 372.217,6129.53Z" style="fill:none;stroke:rgb(51,51,51);stroke-width:56.62px;"/>
        </g>
    </g>
    <g id="FC" transform="matrix(0.653124,0,0,0.653124,80.4662,-351.723)">
        <g transform="matrix(1,0,0,1,0,105.018)">
            <path d="M3245.17,1632C3157.28,1556.97 2950.9,1531.43 2865.36,1567" style="fill:none;stroke:rgb(185,207,216);stroke-width:62.78px;"/>
        </g>
        <g transform="matrix(1,0,0,1,-448.296,80.8274)">
            <path d="M3173.17,1439C2973.28,1391.97 2475.9,1611.43 2402.36,1799" style="fill:none;stroke:rgb(229,63,65);stroke-width:62.78px;"/>
        </g>
        <g transform="matrix(1,0,0,1,-422.262,90.8274)">
            <path d="M3773.17,1977C3469.28,2147.97 2687.9,2132.43 2402.36,1971" style="fill:none;stroke:rgb(29,116,151);stroke-width:62.78px;"/>
        </g>
        <g transform="matrix(1,0,0,1,0,105.018)">
            <path d="M3245.17,1632C3157.28,1556.97 2950.9,1531.43 2865.36,1567" style="fill:none;stroke:rgb(104,174,225);stroke-width:62.78px;"/>
        </g>
        <g transform="matrix(1,0,0,1,-448.296,80.8274)">
            <path d="M3173.17,1439C2973.28,1391.97 2475.9,1611.43 2402.36,1799" style="fill:none;stroke:rgb(104,174,225);stroke-width:62.78px;"/>
        </g>
        <g transform="matrix(1,0,0,1,-422.262,90.8274)">
            <path d="M3773.17,1977C3469.28,2147.97 2687.9,2132.43 2402.36,1971" style="fill:none;stroke:rgb(104,174,225);stroke-width:62.78px;"/>
        </g>
    </g>
    <g id="FC-aligned" serif:id="FC aligned" transform="matrix(0.653124,0,0,0.653124,1811.39,-173.764)">
        <g transform="matrix(1,0,0,1,-649.9,598.021)">
            <path d="M3245.17,1632C3157.28,1556.97 2950.9,1531.43 2865.36,1567" style="fill:none;stroke:rgb(104,174,225);stroke-width:95.69px;"/>
        </g>
        <g transform="matrix(1,0,0,1,-382.4,21.4707)">
            <path d="M3173.17,1439C2973.28,1391.97 2475.9,1611.43 2402.36,1799" style="fill:none;stroke:rgb(104,174,225);stroke-width:95.69px;"/>
        </g>
        <g transform="matrix(1,0,0,1,-682.4,552.835)">
            <path d="M3773.17,1977C3469.28,2147.97 2687.9,2132.43 2402.36,1971" style="fill:none;stroke:rgb(104,174,225);stroke-width:95.69px;"/>
        </g>
        <g transform="matrix(1.5311,0,0,1.5311,-74.5631,346.957)">
            <text x="1571.17px" y="1063.51px" style="font-family:'Poppins-SemiBold', 'Poppins';font-weight:600;font-size:144px;fill:rgb(51,51,51);">+</text>
        </g>
        <g transform="matrix(1.5311,0,0,1.5311,-74.5631,848.144)">
            <text x="1571.17px" y="1063.51px" style="font-family:'Poppins-SemiBold', 'Poppins';font-weight:600;font-size:144px;fill:rgb(51,51,51);">+</text>
        </g>
    </g>
    <g id="Time-Series" serif:id="Time Series" transform="matrix(0.216557,0,0,0.216557,-827.33,-1454.24)">
        <g id="TP5" transform="matrix(0.529401,0,0,0.529401,3887.81,7115.58)">
            <g opacity="0.2">
                <g transform="matrix(-2.12843,0,0,2.12843,4298.61,-9888.88)">
                    <path d="M372.217,6129.53C365.354,5974.32 603.058,5747.21 924.358,5747.88C1245.66,5748.54 1465.07,5944.11 1464.95,6129.53C1464.82,6314.94 1321.8,6394.04 1284.32,6407.82C1246.84,6421.6 1188.45,6421.51 1220.8,6487.7C1253.14,6553.9 1259.14,6578.28 1259.14,6578.28L1131.69,6578.28C1131.69,6578.28 1038.73,6388.16 819.102,6379.76C599.477,6371.37 381.457,6338.48 372.217,6129.53Z" style="fill:rgb(152,116,178);stroke:rgb(51,51,51);stroke-width:61.47px;"/>
                </g>
                <g transform="matrix(-2.12843,0,0,2.12843,4298.61,-9888.88)">
                    <path d="M372.217,6129.53C365.354,5974.32 603.058,5747.21 924.358,5747.88C1245.66,5748.54 1465.07,5944.11 1464.95,6129.53C1464.82,6314.94 1321.8,6394.04 1284.32,6407.82C1246.84,6421.6 1188.45,6421.51 1220.8,6487.7C1253.14,6553.9 1259.14,6578.28 1259.14,6578.28L1131.69,6578.28C1131.69,6578.28 1038.73,6388.16 819.102,6379.76C599.477,6371.37 381.457,6338.48 372.217,6129.53Z" style="fill:none;stroke:rgb(51,51,51);stroke-width:61.47px;"/>
                </g>
            </g>
        </g>
        <g id="TP4" transform="matrix(0.529401,0,0,0.529401,3801.69,7186.51)">
            <g opacity="0.4">
                <g transform="matrix(-2.12843,0,0,2.12843,4298.61,-9888.88)">
                    <path d="M372.217,6129.53C365.354,5974.32 603.058,5747.21 924.358,5747.88C1245.66,5748.54 1465.07,5944.11 1464.95,6129.53C1464.82,6314.94 1321.8,6394.04 1284.32,6407.82C1246.84,6421.6 1188.45,6421.51 1220.8,6487.7C1253.14,6553.9 1259.14,6578.28 1259.14,6578.28L1131.69,6578.28C1131.69,6578.28 1038.73,6388.16 819.102,6379.76C599.477,6371.37 381.457,6338.48 372.217,6129.53Z" style="fill:rgb(152,116,178);stroke:rgb(51,51,51);stroke-width:61.47px;"/>
                </g>
                <g transform="matrix(-2.12843,0,0,2.12843,4298.61,-9888.88)">
                    <path d="M372.217,6129.53C365.354,5974.32 603.058,5747.21 924.358,5747.88C1245.66,5748.54 1465.07,5944.11 1464.95,6129.53C1464.82,6314.94 1321.8,6394.04 1284.32,6407.82C1246.84,6421.6 1188.45,6421.51 1220.8,6487.7C1253.14,6553.9 1259.14,6578.28 1259.14,6578.28L1131.69,6578.28C1131.69,6578.28 1038.73,6388.16 819.102,6379.76C599.477,6371.37 381.457,6338.48 372.217,6129.53Z" style="fill:none;stroke:rgb(51,51,51);stroke-width:61.47px;"/>
                </g>
            </g>
        </g>
        <g id="TP3" transform="matrix(0.529401,0,0,0.529401,3698.98,7289.62)">
            <g opacity="0.6">
                <g transform="matrix(-2.12843,0,0,2.12843,4298.61,-9888.88)">
                    <path d="M372.217,6129.53C365.354,5974.32 603.058,5747.21 924.358,5747.88C1245.66,5748.54 1465.07,5944.11 1464.95,6129.53C1464.82,6314.94 1321.8,6394.04 1284.32,6407.82C1246.84,6421.6 1188.45,6421.51 1220.8,6487.7C1253.14,6553.9 1259.14,6578.28 1259.14,6578.28L1131.69,6578.28C1131.69,6578.28 1038.73,6388.16 819.102,6379.76C599.477,6371.37 381.457,6338.48 372.217,6129.53Z" style="fill:rgb(152,116,178);stroke:rgb(51,51,51);stroke-width:61.47px;"/>
                </g>
                <g transform="matrix(-2.12843,0,0,2.12843,4298.61,-9888.88)">
                    <path d="M372.217,6129.53C365.354,5974.32 603.058,5747.21 924.358,5747.88C1245.66,5748.54 1465.07,5944.11 1464.95,6129.53C1464.82,6314.94 1321.8,6394.04 1284.32,6407.82C1246.84,6421.6 1188.45,6421.51 1220.8,6487.7C1253.14,6553.9 1259.14,6578.28 1259.14,6578.28L1131.69,6578.28C1131.69,6578.28 1038.73,6388.16 819.102,6379.76C599.477,6371.37 381.457,6338.48 372.217,6129.53Z" style="fill:none;stroke:rgb(51,51,51);stroke-width:61.47px;"/>
                </g>
            </g>
        </g>
        <g id="TP2" transform="matrix(0.529401,0,0,0.529401,3568.27,7385.24)">
            <g opacity="0.8">
                <g transform="matrix(-2.12843,0,0,2.12843,4298.61,-9888.88)">
                    <path d="M372.217,6129.53C365.354,5974.32 603.058,5747.21 924.358,5747.88C1245.66,5748.54 1465.07,5944.11 1464.95,6129.53C1464.82,6314.94 1321.8,6394.04 1284.32,6407.82C1246.84,6421.6 1188.45,6421.51 1220.8,6487.7C1253.14,6553.9 1259.14,6578.28 1259.14,6578.28L1131.69,6578.28C1131.69,6578.28 1038.73,6388.16 819.102,6379.76C599.477,6371.37 381.457,6338.48 372.217,6129.53Z" style="fill:rgb(152,116,178);stroke:rgb(51,51,51);stroke-width:61.47px;"/>
                </g>
                <g transform="matrix(-2.12843,0,0,2.12843,4298.61,-9888.88)">
                    <path d="M372.217,6129.53C365.354,5974.32 603.058,5747.21 924.358,5747.88C1245.66,5748.54 1465.07,5944.11 1464.95,6129.53C1464.82,6314.94 1321.8,6394.04 1284.32,6407.82C1246.84,6421.6 1188.45,6421.51 1220.8,6487.7C1253.14,6553.9 1259.14,6578.28 1259.14,6578.28L1131.69,6578.28C1131.69,6578.28 1038.73,6388.16 819.102,6379.76C599.477,6371.37 381.457,6338.48 372.217,6129.53Z" style="fill:none;stroke:rgb(51,51,51);stroke-width:61.47px;"/>
                </g>
            </g>
        </g>
        <g id="TP1" transform="matrix(0.529401,0,0,0.529401,3462.59,7478.24)">
            <g transform="matrix(-2.12843,0,0,2.12843,4298.61,-9888.88)">
                <path d="M372.217,6129.53C365.354,5974.32 603.058,5747.21 924.358,5747.88C1245.66,5748.54 1465.07,5944.11 1464.95,6129.53C1464.82,6314.94 1321.8,6394.04 1284.32,6407.82C1246.84,6421.6 1188.45,6421.51 1220.8,6487.7C1253.14,6553.9 1259.14,6578.28 1259.14,6578.28L1131.69,6578.28C1131.69,6578.28 1038.73,6388.16 819.102,6379.76C599.477,6371.37 381.457,6338.48 372.217,6129.53Z" style="fill:rgb(152,116,178);stroke:rgb(51,51,51);stroke-width:61.47px;"/>
            </g>
            <g transform="matrix(-2.12843,0,0,2.12843,4298.61,-9888.88)">
                <path d="M372.217,6129.53C365.354,5974.32 603.058,5747.21 924.358,5747.88C1245.66,5748.54 1465.07,5944.11 1464.95,6129.53C1464.82,6314.94 1321.8,6394.04 1284.32,6407.82C1246.84,6421.6 1188.45,6421.51 1220.8,6487.7C1253.14,6553.9 1259.14,6578.28 1259.14,6578.28L1131.69,6578.28C1131.69,6578.28 1038.73,6388.16 819.102,6379.76C599.477,6371.37 381.457,6338.48 372.217,6129.53Z" style="fill:none;stroke:rgb(51,51,51);stroke-width:61.47px;"/>
            </g>
        </g>
    </g>
    <g id="MRI" transform="matrix(0.216557,0,0,0.216557,-827.33,-1454.24)">
        <g transform="matrix(0.777747,0,0,0.777747,407.467,-244.963)">
            <path d="M6675.27,12271.2C6733.32,12281.4 6792.14,12286.6 6851.08,12286.6C7409.84,12286.6 7863.49,11832.9 7863.49,11274.1C7863.49,10715.4 7409.84,10261.7 6851.08,10261.7C6457.62,10261.7 6099.8,10489.7 5933.52,10846.3C6099.8,10489.7 6457.62,10261.7 6851.08,10261.7C7409.84,10261.7 7863.49,10715.4 7863.49,11274.1C7863.49,11832.9 7409.84,12286.6 6851.08,12286.6C6792.14,12286.6 6733.32,12281.4 6675.27,12271.2Z" style="fill:rgb(249,167,86);stroke:rgb(51,51,51);stroke-width:207.81px;"/>
        </g>
        <path d="M4673.59,8132.45C4673.59,7389.72 4673.1,7421.1 5772.76,7421.1C6872.42,7421.1 6875.12,7332.89 6875.12,8523.46C6875.12,9714.03 6867.93,9625.82 5772.76,9625.82" style="fill:none;stroke:rgb(51,51,51);stroke-width:161.62px;"/>
        <path d="M5772.76,9625.82C5772.76,9625.82 5008.55,9628.56 4846.43,9572.49" style="fill:none;stroke:rgb(51,51,51);stroke-width:161.62px;"/>
        <path d="M6622.05,7705.51C6622.05,7681.62 6602.66,7662.23 6578.77,7662.23L6492.22,7662.23C6468.33,7662.23 6448.94,7681.62 6448.94,7705.51L6448.94,7869.75C6448.94,7893.64 6468.33,7913.03 6492.22,7913.03L6578.77,7913.03C6602.66,7913.03 6622.05,7893.64 6622.05,7869.75L6622.05,7705.51Z" style="fill:rgb(51,51,51);stroke:rgb(51,51,51);stroke-width:161.62px;"/>
        <g transform="matrix(0.727787,0,0,0.727787,1842.04,2552.33)">
            <circle cx="6492.22" cy="9286.41" r="43.276" style="fill:rgb(51,51,51);stroke:rgb(51,51,51);stroke-width:222.07px;"/>
        </g>
    </g>
    <g transform="matrix(1,0,0,1,-406.858,127.378)">
        <g transform="matrix(1,-0,-0,1,406.858,-127.378)">
            <path d="M1102.63,921.683L1150.45,978.48L1093.65,1026.3" style="fill:none;stroke:rgb(51,51,51);stroke-width:35px;stroke-linejoin:miter;stroke-miterlimit:10;"/>
            <path d="M661.524,697.564C734.361,833.938 894.114,953.212 1150.45,978.48" style="fill:none;stroke:rgb(51,51,51);stroke-width:35px;"/>
        </g>
    </g>
    <g transform="matrix(1.93499,0,0,0.681399,-89.1291,674.939)">
        <g transform="matrix(0.516797,-0,-0,1.46757,46.0617,-990.521)">
            <path d="M2896.22,1201.67L2947.22,1255.63L2893.27,1306.63" style="fill:none;stroke:rgb(51,51,51);stroke-width:35px;stroke-linejoin:miter;stroke-miterlimit:10;"/>
            <path d="M1978.18,1063.46C2121.29,1157.82 2437.77,1240.15 2947.22,1255.63" style="fill:none;stroke:rgb(51,51,51);stroke-width:35px;"/>
        </g>
    </g>
    <g transform="matrix(1,0,0,1,-209.03,343.901)">
        <text x="836.18px" y="1063.51px" style="font-family:'Poppins-ExtraBold', 'Poppins';font-weight:800;font-size:90px;fill:rgb(51,51,51);">Measures of</text>
        <text x="541.34px" y="1162.51px" style="font-family:'Poppins-ExtraBold', 'Poppins';font-weight:800;font-size:90px;fill:rgb(51,51,51);">brain connectivity</text>
        <text x="330.92px" y="1261.51px" style="font-family:'Poppins-SemiBold', 'Poppins';font-weight:600;font-size:90px;fill:rgb(51,51,51);">Functional connectivity</text>
        <text x="736.55px" y="1360.51px" style="font-family:'Poppins-SemiBold', 'Poppins';font-weight:600;font-size:90px;fill:rgb(51,51,51);">Node variance</text>
    </g>
    <g transform="matrix(-1.0037,0.0122587,-0.00884451,0.727262,5588.16,-2524.2)">
        <path d="M4277.76,5489.87L3962.82,4886.8" style="fill:none;stroke:rgb(51,51,51);stroke-width:31.33px;"/>
    </g>
    <g transform="matrix(-0.440518,0,0,0.167721,4036.68,436.691)">
        <path d="M6334.99,5364.32L6334.99,7563.32" style="fill:none;stroke:rgb(51,51,51);stroke-width:83.34px;"/>
    </g>
</svg>
