<?xml version="1.0" encoding="UTF-8" standalone="no"?>
<!DOCTYPE svg PUBLIC "-//W3C//DTD SVG 1.1//EN" "http://www.w3.org/Graphics/SVG/1.1/DTD/svg11.dtd">
<svg width="100%" height="100%" viewBox="0 0 629 514" version="1.1" xmlns="http://www.w3.org/2000/svg" xmlns:xlink="http://www.w3.org/1999/xlink" xml:space="preserve" xmlns:serif="http://www.serif.com/" style="fill-rule:evenodd;clip-rule:evenodd;stroke-linecap:round;stroke-linejoin:round;stroke-miterlimit:1.5;">
    <g id="Time-Series" serif:id="Time Series" transform="matrix(0.216557,0,0,0.216557,-877.697,-1589.27)">
        <g id="TP5" transform="matrix(0.529401,0,0,0.529401,3887.81,7115.58)">
            <g opacity="0.2">
                <g transform="matrix(-2.12843,0,0,2.12843,4298.61,-9888.88)">
                    <path d="M372.217,6129.53C365.354,5974.32 603.058,5747.21 924.358,5747.88C1245.66,5748.54 1465.07,5944.11 1464.95,6129.53C1464.82,6314.94 1321.8,6394.04 1284.32,6407.82C1246.84,6421.6 1188.45,6421.51 1220.8,6487.7C1253.14,6553.9 1259.14,6578.28 1259.14,6578.28L1131.69,6578.28C1131.69,6578.28 1038.73,6388.16 819.102,6379.76C599.477,6371.37 381.457,6338.48 372.217,6129.53Z" style="fill:rgb(152,116,178);stroke:rgb(51,51,51);stroke-width:61.47px;"/>
                </g>
                <g transform="matrix(-2.12843,0,0,2.12843,4298.61,-9888.88)">
                    <path d="M372.217,6129.53C365.354,5974.32 603.058,5747.21 924.358,5747.88C1245.66,5748.54 1465.07,5944.11 1464.95,6129.53C1464.82,6314.94 1321.8,6394.04 1284.32,6407.82C1246.84,6421.6 1188.45,6421.51 1220.8,6487.7C1253.14,6553.9 1259.14,6578.28 1259.14,6578.28L1131.69,6578.28C1131.69,6578.28 1038.73,6388.16 819.102,6379.76C599.477,6371.37 381.457,6338.48 372.217,6129.53Z" style="fill:none;stroke:rgb(51,51,51);stroke-width:61.47px;"/>
                </g>
            </g>
        </g>
        <g id="TP4" transform="matrix(0.529401,0,0,0.529401,3801.69,7186.51)">
            <g opacity="0.4">
                <g transform="matrix(-2.12843,0,0,2.12843,4298.61,-9888.88)">
                    <path d="M372.217,6129.53C365.354,5974.32 603.058,5747.21 924.358,5747.88C1245.66,5748.54 1465.07,5944.11 1464.95,6129.53C1464.82,6314.94 1321.8,6394.04 1284.32,6407.82C1246.84,6421.6 1188.45,6421.51 1220.8,6487.7C1253.14,6553.9 1259.14,6578.28 1259.14,6578.28L1131.69,6578.28C1131.69,6578.28 1038.73,6388.16 819.102,6379.76C599.477,6371.37 381.457,6338.48 372.217,6129.53Z" style="fill:rgb(152,116,178);stroke:rgb(51,51,51);stroke-width:61.47px;"/>
                </g>
                <g transform="matrix(-2.12843,0,0,2.12843,4298.61,-9888.88)">
                    <path d="M372.217,6129.53C365.354,5974.32 603.058,5747.21 924.358,5747.88C1245.66,5748.54 1465.07,5944.11 1464.95,6129.53C1464.82,6314.94 1321.8,6394.04 1284.32,6407.82C1246.84,6421.6 1188.45,6421.51 1220.8,6487.7C1253.14,6553.9 1259.14,6578.28 1259.14,6578.28L1131.69,6578.28C1131.69,6578.28 1038.73,6388.16 819.102,6379.76C599.477,6371.37 381.457,6338.48 372.217,6129.53Z" style="fill:none;stroke:rgb(51,51,51);stroke-width:61.47px;"/>
                </g>
            </g>
        </g>
        <g id="TP3" transform="matrix(0.529401,0,0,0.529401,3698.98,7289.62)">
            <g opacity="0.6">
                <g transform="matrix(-2.12843,0,0,2.12843,4298.61,-9888.88)">
                    <path d="M372.217,6129.53C365.354,5974.32 603.058,5747.21 924.358,5747.88C1245.66,5748.54 1465.07,5944.11 1464.95,6129.53C1464.82,6314.94 1321.8,6394.04 1284.32,6407.82C1246.84,6421.6 1188.45,6421.51 1220.8,6487.7C1253.14,6553.9 1259.14,6578.28 1259.14,6578.28L1131.69,6578.28C1131.69,6578.28 1038.73,6388.16 819.102,6379.76C599.477,6371.37 381.457,6338.48 372.217,6129.53Z" style="fill:rgb(152,116,178);stroke:rgb(51,51,51);stroke-width:61.47px;"/>
                </g>
                <g transform="matrix(-2.12843,0,0,2.12843,4298.61,-9888.88)">
                    <path d="M372.217,6129.53C365.354,5974.32 603.058,5747.21 924.358,5747.88C1245.66,5748.54 1465.07,5944.11 1464.95,6129.53C1464.82,6314.94 1321.8,6394.04 1284.32,6407.82C1246.84,6421.6 1188.45,6421.51 1220.8,6487.7C1253.14,6553.9 1259.14,6578.28 1259.14,6578.28L1131.69,6578.28C1131.69,6578.28 1038.73,6388.16 819.102,6379.76C599.477,6371.37 381.457,6338.48 372.217,6129.53Z" style="fill:none;stroke:rgb(51,51,51);stroke-width:61.47px;"/>
                </g>
            </g>
        </g>
        <g id="TP2" transform="matrix(0.529401,0,0,0.529401,3568.27,7385.24)">
            <g opacity="0.8">
                <g transform="matrix(-2.12843,0,0,2.12843,4298.61,-9888.88)">
                    <path d="M372.217,6129.53C365.354,5974.32 603.058,5747.21 924.358,5747.88C1245.66,5748.54 1465.07,5944.11 1464.95,6129.53C1464.82,6314.94 1321.8,6394.04 1284.32,6407.82C1246.84,6421.6 1188.45,6421.51 1220.8,6487.7C1253.14,6553.9 1259.14,6578.28 1259.14,6578.28L1131.69,6578.28C1131.69,6578.28 1038.73,6388.16 819.102,6379.76C599.477,6371.37 381.457,6338.48 372.217,6129.53Z" style="fill:rgb(152,116,178);stroke:rgb(51,51,51);stroke-width:61.47px;"/>
                </g>
                <g transform="matrix(-2.12843,0,0,2.12843,4298.61,-9888.88)">
                    <path d="M372.217,6129.53C365.354,5974.32 603.058,5747.21 924.358,5747.88C1245.66,5748.54 1465.07,5944.11 1464.95,6129.53C1464.82,6314.94 1321.8,6394.04 1284.32,6407.82C1246.84,6421.6 1188.45,6421.51 1220.8,6487.7C1253.14,6553.9 1259.14,6578.28 1259.14,6578.28L1131.69,6578.28C1131.69,6578.28 1038.73,6388.16 819.102,6379.76C599.477,6371.37 381.457,6338.48 372.217,6129.53Z" style="fill:none;stroke:rgb(51,51,51);stroke-width:61.47px;"/>
                </g>
            </g>
        </g>
        <g id="TP1" transform="matrix(0.529401,0,0,0.529401,3462.59,7478.24)">
            <g transform="matrix(-2.12843,0,0,2.12843,4298.61,-9888.88)">
                <path d="M372.217,6129.53C365.354,5974.32 603.058,5747.21 924.358,5747.88C1245.66,5748.54 1465.07,5944.11 1464.95,6129.53C1464.82,6314.94 1321.8,6394.04 1284.32,6407.82C1246.84,6421.6 1188.45,6421.51 1220.8,6487.7C1253.14,6553.9 1259.14,6578.28 1259.14,6578.28L1131.69,6578.28C1131.69,6578.28 1038.73,6388.16 819.102,6379.76C599.477,6371.37 381.457,6338.48 372.217,6129.53Z" style="fill:rgb(152,116,178);stroke:rgb(51,51,51);stroke-width:61.47px;"/>
            </g>
            <g transform="matrix(-2.12843,0,0,2.12843,4298.61,-9888.88)">
                <path d="M372.217,6129.53C365.354,5974.32 603.058,5747.21 924.358,5747.88C1245.66,5748.54 1465.07,5944.11 1464.95,6129.53C1464.82,6314.94 1321.8,6394.04 1284.32,6407.82C1246.84,6421.6 1188.45,6421.51 1220.8,6487.7C1253.14,6553.9 1259.14,6578.28 1259.14,6578.28L1131.69,6578.28C1131.69,6578.28 1038.73,6388.16 819.102,6379.76C599.477,6371.37 381.457,6338.48 372.217,6129.53Z" style="fill:none;stroke:rgb(51,51,51);stroke-width:61.47px;"/>
            </g>
        </g>
    </g>
    <g id="MRI" transform="matrix(0.216557,0,0,0.216557,-877.697,-1589.27)">
        <g transform="matrix(0.777747,0,0,0.777747,407.467,-244.963)">
            <path d="M6675.27,12271.2C6733.32,12281.4 6792.14,12286.6 6851.08,12286.6C7409.84,12286.6 7863.49,11832.9 7863.49,11274.1C7863.49,10715.4 7409.84,10261.7 6851.08,10261.7C6457.62,10261.7 6099.8,10489.7 5933.52,10846.3C6099.8,10489.7 6457.62,10261.7 6851.08,10261.7C7409.84,10261.7 7863.49,10715.4 7863.49,11274.1C7863.49,11832.9 7409.84,12286.6 6851.08,12286.6C6792.14,12286.6 6733.32,12281.4 6675.27,12271.2Z" style="fill:rgb(249,167,86);stroke:rgb(51,51,51);stroke-width:207.81px;"/>
        </g>
        <path d="M4673.59,8132.45C4673.59,7389.72 4673.1,7421.1 5772.76,7421.1C6872.42,7421.1 6875.12,7332.89 6875.12,8523.46C6875.12,9714.03 6867.93,9625.82 5772.76,9625.82" style="fill:none;stroke:rgb(51,51,51);stroke-width:161.62px;"/>
        <path d="M5772.76,9625.82C5772.76,9625.82 5008.55,9628.56 4846.43,9572.49" style="fill:none;stroke:rgb(51,51,51);stroke-width:161.62px;"/>
        <path d="M6622.05,7705.51C6622.05,7681.62 6602.66,7662.23 6578.77,7662.23L6492.22,7662.23C6468.33,7662.23 6448.94,7681.62 6448.94,7705.51L6448.94,7869.75C6448.94,7893.64 6468.33,7913.03 6492.22,7913.03L6578.77,7913.03C6602.66,7913.03 6622.05,7893.64 6622.05,7869.75L6622.05,7705.51Z" style="fill:rgb(51,51,51);stroke:rgb(51,51,51);stroke-width:161.62px;"/>
        <g transform="matrix(0.727787,0,0,0.727787,1842.04,2552.33)">
            <circle cx="6492.22" cy="9286.41" r="43.276" style="fill:rgb(51,51,51);stroke:rgb(51,51,51);stroke-width:222.07px;"/>
        </g>
    </g>
</svg>
