<?xml version="1.0" encoding="UTF-8" standalone="no"?>
<!DOCTYPE svg PUBLIC "-//W3C//DTD SVG 1.1//EN" "http://www.w3.org/Graphics/SVG/1.1/DTD/svg11.dtd">
<svg width="100%" height="100%" viewBox="0 0 571 397" version="1.1" xmlns="http://www.w3.org/2000/svg" xmlns:xlink="http://www.w3.org/1999/xlink" xml:space="preserve" xmlns:serif="http://www.serif.com/" style="fill-rule:evenodd;clip-rule:evenodd;stroke-linecap:round;stroke-linejoin:round;stroke-miterlimit:1.5;">
    <g transform="matrix(0.640403,-0.056028,0.056028,0.640403,-353.905,-622.341)">
        <g transform="matrix(0.828254,0,0,0.778558,14.4355,152.159)">
            <path d="M1023.22,1225.92C1023.22,1184.5 991.605,1150.86 952.664,1150.86L610.8,1150.86C571.859,1150.86 540.244,1184.5 540.244,1225.92L540.244,1802.47C540.244,1843.9 571.859,1877.53 610.8,1877.53L952.664,1877.53C991.605,1877.53 1023.22,1843.9 1023.22,1802.47L1023.22,1225.92Z" style="fill:white;stroke:rgb(35,31,32);stroke-width:14.51px;"/>
        </g>
        <g transform="matrix(1,0,0,1,24.1694,-1.86768)">
            <g transform="matrix(1.53807,0,0,1.53807,-1161.61,-684.87)">
                <circle cx="1098.37" cy="1237.23" r="8.121" style="fill:rgb(51,51,51);"/>
            </g>
            <path d="M560.263,1218.07L760.214,1218.07" style="fill:none;stroke:rgb(51,51,51);stroke-width:7.78px;"/>
        </g>
        <g transform="matrix(1,0,0,1,24.1694,55.5559)">
            <g transform="matrix(1.53807,0,0,1.53807,-1161.61,-684.87)">
                <circle cx="1098.37" cy="1237.23" r="8.121" style="fill:rgb(51,51,51);"/>
            </g>
            <path d="M560.263,1218.07L760.214,1218.07" style="fill:none;stroke:rgb(51,51,51);stroke-width:7.78px;"/>
        </g>
        <g transform="matrix(1,0,0,1,24.1694,-59.2913)">
            <g transform="matrix(1.53807,0,0,1.53807,-1161.61,-684.87)">
                <circle cx="1098.37" cy="1237.23" r="8.121" style="fill:rgb(51,51,51);"/>
            </g>
            <path d="M560.263,1218.07L760.214,1218.07" style="fill:none;stroke:rgb(51,51,51);stroke-width:7.78px;"/>
        </g>
        <g transform="matrix(1,0,0,1,24.1694,42.2403)">
            <g transform="matrix(1.53807,0,0,1.53807,-1161.61,-614.131)">
                <circle cx="1098.37" cy="1237.23" r="8.121" style="fill:rgb(51,51,51);"/>
            </g>
            <g transform="matrix(1,0,0,1,0,70.7391)">
                <path d="M560.263,1218.07L760.214,1218.07" style="fill:none;stroke:rgb(51,51,51);stroke-width:7.78px;"/>
            </g>
        </g>
        <g transform="matrix(1,0,0,1,24.1694,63.1483)">
            <g transform="matrix(1.53807,0,0,1.53807,-1161.61,-577.615)">
                <circle cx="1098.37" cy="1237.23" r="8.121" style="fill:rgb(51,51,51);"/>
            </g>
            <g transform="matrix(1,0,0,1,0,107.255)">
                <path d="M560.263,1218.07L760.214,1218.07" style="fill:none;stroke:rgb(51,51,51);stroke-width:7.78px;"/>
            </g>
        </g>
        <g transform="matrix(1,0,0,1,24.1694,85.7334)">
            <g transform="matrix(1.53807,0,0,1.53807,-1161.61,-542.777)">
                <circle cx="1098.37" cy="1237.23" r="8.121" style="fill:rgb(51,51,51);"/>
            </g>
            <g transform="matrix(1,0,0,1,0,142.093)">
                <path d="M560.263,1218.07L760.214,1218.07" style="fill:none;stroke:rgb(51,51,51);stroke-width:7.78px;"/>
            </g>
        </g>
        <g transform="matrix(1,0,0,1,24.1694,-26.3875)">
            <g transform="matrix(1.53807,0,0,1.53807,-1161.61,-373.232)">
                <circle cx="1098.37" cy="1237.23" r="8.121" style="fill:rgb(51,51,51);"/>
            </g>
            <g transform="matrix(1,0,0,1,0,311.638)">
                <path d="M560.263,1218.07L760.214,1218.07" style="fill:none;stroke:rgb(51,51,51);stroke-width:7.78px;"/>
            </g>
        </g>
    </g>
    <g transform="matrix(0.642849,0,0,0.642849,-140.139,-664.676)">
        <g transform="matrix(0.828254,0,0,0.778558,14.4355,152.159)">
            <path d="M1023.22,1225.92C1023.22,1184.5 991.605,1150.86 952.664,1150.86L610.8,1150.86C571.859,1150.86 540.244,1184.5 540.244,1225.92L540.244,1802.47C540.244,1843.9 571.859,1877.53 610.8,1877.53L952.664,1877.53C991.605,1877.53 1023.22,1843.9 1023.22,1802.47L1023.22,1225.92Z" style="fill:white;stroke:rgb(35,31,32);stroke-width:14.51px;"/>
        </g>
        <g transform="matrix(1,0,0,1,24.1694,-1.86768)">
            <g transform="matrix(1.53807,0,0,1.53807,-1161.61,-684.87)">
                <circle cx="1098.37" cy="1237.23" r="8.121" style="fill:rgb(51,51,51);"/>
            </g>
            <path d="M560.263,1218.07L760.214,1218.07" style="fill:none;stroke:rgb(51,51,51);stroke-width:7.78px;"/>
        </g>
        <g transform="matrix(1,0,0,1,24.1694,55.5559)">
            <g transform="matrix(1.53807,0,0,1.53807,-1161.61,-684.87)">
                <circle cx="1098.37" cy="1237.23" r="8.121" style="fill:rgb(51,51,51);"/>
            </g>
            <path d="M560.263,1218.07L760.214,1218.07" style="fill:none;stroke:rgb(51,51,51);stroke-width:7.78px;"/>
        </g>
        <g transform="matrix(1,0,0,1,24.1694,-59.2913)">
            <g transform="matrix(1.53807,0,0,1.53807,-1161.61,-684.87)">
                <circle cx="1098.37" cy="1237.23" r="8.121" style="fill:rgb(51,51,51);"/>
            </g>
            <path d="M560.263,1218.07L760.214,1218.07" style="fill:none;stroke:rgb(51,51,51);stroke-width:7.78px;"/>
        </g>
        <g transform="matrix(1,0,0,1,24.1694,42.2403)">
            <g transform="matrix(1.53807,0,0,1.53807,-1161.61,-614.131)">
                <circle cx="1098.37" cy="1237.23" r="8.121" style="fill:rgb(51,51,51);"/>
            </g>
            <g transform="matrix(1,0,0,1,0,70.7391)">
                <path d="M560.263,1218.07L760.214,1218.07" style="fill:none;stroke:rgb(51,51,51);stroke-width:7.78px;"/>
            </g>
        </g>
        <g transform="matrix(1,0,0,1,24.1694,63.1483)">
            <g transform="matrix(1.53807,0,0,1.53807,-1161.61,-577.615)">
                <circle cx="1098.37" cy="1237.23" r="8.121" style="fill:rgb(51,51,51);"/>
            </g>
            <g transform="matrix(1,0,0,1,0,107.255)">
                <path d="M560.263,1218.07L760.214,1218.07" style="fill:none;stroke:rgb(51,51,51);stroke-width:7.78px;"/>
            </g>
        </g>
        <g transform="matrix(1,0,0,1,24.1694,85.7334)">
            <g transform="matrix(1.53807,0,0,1.53807,-1161.61,-542.777)">
                <circle cx="1098.37" cy="1237.23" r="8.121" style="fill:rgb(51,51,51);"/>
            </g>
            <g transform="matrix(1,0,0,1,0,142.093)">
                <path d="M560.263,1218.07L760.214,1218.07" style="fill:none;stroke:rgb(51,51,51);stroke-width:7.78px;"/>
            </g>
        </g>
        <g transform="matrix(1,0,0,1,24.1694,-26.3875)">
            <g transform="matrix(1.53807,0,0,1.53807,-1161.61,-373.232)">
                <circle cx="1098.37" cy="1237.23" r="8.121" style="fill:rgb(51,51,51);"/>
            </g>
            <g transform="matrix(1,0,0,1,0,311.638)">
                <path d="M560.263,1218.07L760.214,1218.07" style="fill:none;stroke:rgb(51,51,51);stroke-width:7.78px;"/>
            </g>
        </g>
    </g>
    <g transform="matrix(0.640403,0.056028,-0.056028,0.640403,76.8648,-686.008)">
        <g transform="matrix(0.828254,0,0,0.778558,14.4355,152.159)">
            <path d="M1023.22,1225.92C1023.22,1184.5 991.605,1150.86 952.664,1150.86L610.8,1150.86C571.859,1150.86 540.244,1184.5 540.244,1225.92L540.244,1802.47C540.244,1843.9 571.859,1877.53 610.8,1877.53L952.664,1877.53C991.605,1877.53 1023.22,1843.9 1023.22,1802.47L1023.22,1225.92Z" style="fill:white;stroke:rgb(35,31,32);stroke-width:14.51px;"/>
        </g>
        <g transform="matrix(1,0,0,1,24.1694,-1.86768)">
            <g transform="matrix(1.53807,0,0,1.53807,-1161.61,-684.87)">
                <circle cx="1098.37" cy="1237.23" r="8.121" style="fill:rgb(51,51,51);"/>
            </g>
            <path d="M560.263,1218.07L760.214,1218.07" style="fill:none;stroke:rgb(51,51,51);stroke-width:7.78px;"/>
        </g>
        <g transform="matrix(1,0,0,1,24.1694,55.5559)">
            <g transform="matrix(1.53807,0,0,1.53807,-1161.61,-684.87)">
                <circle cx="1098.37" cy="1237.23" r="8.121" style="fill:rgb(51,51,51);"/>
            </g>
            <path d="M560.263,1218.07L760.214,1218.07" style="fill:none;stroke:rgb(51,51,51);stroke-width:7.78px;"/>
        </g>
        <g transform="matrix(1,0,0,1,24.1694,-59.2913)">
            <g transform="matrix(1.53807,0,0,1.53807,-1161.61,-684.87)">
                <circle cx="1098.37" cy="1237.23" r="8.121" style="fill:rgb(51,51,51);"/>
            </g>
            <path d="M560.263,1218.07L760.214,1218.07" style="fill:none;stroke:rgb(51,51,51);stroke-width:7.78px;"/>
        </g>
        <g transform="matrix(1,0,0,1,24.1694,42.2403)">
            <g transform="matrix(1.53807,0,0,1.53807,-1161.61,-614.131)">
                <circle cx="1098.37" cy="1237.23" r="8.121" style="fill:rgb(51,51,51);"/>
            </g>
            <g transform="matrix(1,0,0,1,0,70.7391)">
                <path d="M560.263,1218.07L760.214,1218.07" style="fill:none;stroke:rgb(51,51,51);stroke-width:7.78px;"/>
            </g>
        </g>
        <g transform="matrix(1,0,0,1,24.1694,63.1483)">
            <g transform="matrix(1.53807,0,0,1.53807,-1161.61,-577.615)">
                <circle cx="1098.37" cy="1237.23" r="8.121" style="fill:rgb(51,51,51);"/>
            </g>
            <g transform="matrix(1,0,0,1,0,107.255)">
                <path d="M560.263,1218.07L760.214,1218.07" style="fill:none;stroke:rgb(51,51,51);stroke-width:7.78px;"/>
            </g>
        </g>
        <g transform="matrix(1,0,0,1,24.1694,85.7334)">
            <g transform="matrix(1.53807,0,0,1.53807,-1161.61,-542.777)">
                <circle cx="1098.37" cy="1237.23" r="8.121" style="fill:rgb(51,51,51);"/>
            </g>
            <g transform="matrix(1,0,0,1,0,142.093)">
                <path d="M560.263,1218.07L760.214,1218.07" style="fill:none;stroke:rgb(51,51,51);stroke-width:7.78px;"/>
            </g>
        </g>
        <g transform="matrix(1,0,0,1,24.1694,-26.3875)">
            <g transform="matrix(1.53807,0,0,1.53807,-1161.61,-373.232)">
                <circle cx="1098.37" cy="1237.23" r="8.121" style="fill:rgb(51,51,51);"/>
            </g>
            <g transform="matrix(1,0,0,1,0,311.638)">
                <path d="M560.263,1218.07L760.214,1218.07" style="fill:none;stroke:rgb(51,51,51);stroke-width:7.78px;"/>
            </g>
        </g>
    </g>
</svg>
