<?xml version="1.0" encoding="utf-8"?>
<!-- Generator: Adobe Illustrator 19.2.1, SVG Export Plug-In . SVG Version: 6.00 Build 0)  -->
<svg version="1.1" id="layer" xmlns="http://www.w3.org/2000/svg" xmlns:xlink="http://www.w3.org/1999/xlink" x="0px" y="0px"
	 viewBox="0 0 652 652" style="enable-background:new 0 0 652 652;" xml:space="preserve">
<style type="text/css">
	.st0{fill:#005F6F;}
</style>
<path class="st0" d="M584,261.2c0-1.2,0.1-2.4,1.1-3.1c0.7-0.5,1.4-0.5,1.7-0.5c0.8,0,1.2,0.3,1.5,0.4c1.2,0.8,1.2,2.1,1.3,3.3v8.9
	c0.1,0.8,0.3,3.3,3.2,3.3c1,0,1.6-0.4,2-0.7c1.4-1.1,1.3-3.1,1.3-4.7v-7.3c0-0.4-0.1-2,1.2-2.9c0.2-0.2,0.8-0.5,1.6-0.5
	c0.3,0,0.9,0,1.6,0.5c1.3,0.8,1.2,2.5,1.2,2.8v13.4c0,0.5,0.2,3.7-2.7,3.7c-0.4,0-1.8,0-2.4-1.4c-0.2-0.5-0.3-1-0.3-1.1
	c-0.3,0.5-0.5,0.7-0.6,0.9c-0.7,0.8-2.2,1.9-4.9,1.9c-1.1,0-4.5-0.1-6-3.5c-0.5-1.1-0.7-2.3-0.7-4.8V261.2"/>
<path class="st0" d="M616.4,258.8c0.2-0.1,0.3-0.3,0.5-0.4c0.2-0.2,0.9-0.8,1.9-0.8c1.4,0,2.5,1.2,2.5,2.5c0,1-0.5,1.6-1.2,2.2
	l-3.7,3.5l4.5,6.9c0.8,1.2,1,1.7,1,2.4c0,0.3,0,0.8-0.4,1.4c-0.5,0.9-1.6,1.5-2.7,1.5c-0.6,0-1-0.2-1.2-0.3
	c-0.8-0.4-1.2-1.1-1.6-1.8l-3.7-6.2l-1.9,1.8v3.2c0,0.4,0.1,2.1-1.2,2.9c-0.4,0.3-1,0.4-1.5,0.4c-0.8,0-1.7-0.3-2.3-0.9
	c-0.7-0.9-0.6-2.2-0.7-2.4v-21c0-0.3,0-0.5,0-0.8c0-0.4,0.2-1.5,1.3-2.2c0.6-0.3,1.3-0.4,1.5-0.4c1.3,0,2.3,0.7,2.7,2
	c0.1,0.4,0.1,0.9,0.1,1.3v11.8L616.4,258.8"/>
<path class="st0" d="M161.8,341.8c0,2.4,0,4.1-0.6,6.5c-1.7,6.5-6.8,10.5-13.5,10.5c-1.4,0-4.5-0.2-7.5-2
	c-7.1-4.2-6.6-11.4-6.8-13.8v-49.5c0.1-3.6,0.6-6.5,2.7-9.6c3.6-5.7,9.2-6.3,11.6-6.3c6.2,0.2,11.3,3.8,13.2,9.6
	c0.4,1.7,0.7,3.3,0.9,6.5V341.8"/>
<g>
	<path class="st0" d="M160.3,261.9c0,7-5.7,12.8-12.7,12.8c-7,0-12.8-5.7-12.8-12.8c0-7,5.7-12.7,12.8-12.7
		C154.6,249.2,160.3,254.9,160.3,261.9"/>
	<path class="st0" d="M110.6,282.9c-7.2-4.8-14.3-5.3-17.4-5.3c-9.8,0-16.2,4.2-18.9,6.8c-0.6,0.6-1.1,1.2-2.1,2.6v-23.7
		c0-0.4,0-3.2-0.9-5.3c-1.8-5.3-7.4-8.6-12.8-8.6c-1.7,0-6,0.3-9.5,3.6c-4.7,4.4-4.5,10.2-4.7,16.2c0,0.1,0,0.2,0,0.4
		c0,0.9,0,1.8,0,2.7c0,1.4,0,2.9,0,4.3c0,1.6,0,3.2,0,4.7c0,1.4,0,2.7,0,4.1c0,0.5,0,0.9,0,1.4c0,0.2,0,0.3,0,0.5
		c0,0.5-0.4,0.3-0.7,0.1c-0.4-0.2-0.8-0.3-1.2-0.5c-0.7-0.3-1.4-0.5-2-0.9c-1-0.6-1.5-1.7-1.6-1.8c-0.2-0.2-0.2-0.6-0.2-0.9
		c0-0.1,0-0.3,0-0.4c0-0.4,0.1-0.8,0.1-1.2c0-0.2-0.1-0.5,0.1-0.7c0.2-0.2,0.5-0.2,0.6-0.4c0.1-0.3,0.2-0.6,0.3-0.7
		c0-0.1,0.3-0.8,0.1-1.4c-0.1-0.2-0.1-0.4-0.4-0.4c-0.1,0-0.1,0.1-0.2,0.1c-0.1,0-0.1,0-0.1-0.1c0-0.2,0.1-0.4,0.1-0.6
		c0-0.2,0-2.8-1.7-3.8c-1.7-1-2.4-1.1-3.7-0.6c-0.8,0.2-1.4,1.1-1.8,1.7c-0.3,0.5-0.7,1-0.9,1.6c-0.2,0.6-0.1,1.2,0,1.8
		c0,0.2,0.1,0.4,0,0.6c0,0.2-0.1,0-0.2,0.1c-0.1,0-0.4,0.1-0.3,0.7c0.1,0.5,0.5,0.9,0.5,1.1c0,0.3,0.1,0.5,0.3,0.6
		c0.1,0,0.2,0.6,0.2,0.9c0,0.2,0.3,0.7,0.5,0.9c0.4,0.4,0.8,0.6,0.9,1.2c0.1,0.7,0.1,1.2-0.4,1.7c-0.9,1-1.9,1.6-3.1,2.1
		c-1.2,0.5-2,1.5-2.7,2.6c-0.3,0.5-0.5,1.1-0.8,1.5c-0.6,0.9-1.4,1.6-1.9,2.5c-0.5,0.9-0.9,1.8-1.1,2.8c-0.2,0.9-0.4,2-0.3,2.9
		c0.2,1.1,1.8,1.3,2.7,1.7c0.6,0.2,1.5,0.2,2,0.7c0.5,0.6,0.1,1.8,0,2.5c-0.3,1.3-0.6,2.5-0.9,3.8c-0.2,0.7-0.3,1.4-0.4,2
		c-0.1,0.7-0.4,1.7-0.3,2.5c0.2,0.9,1.2,1.1,1.3,2.1c0.2,1.1-0.3,2.3-0.4,3.4c-0.2,1.2-0.1,2.4,0,3.5c0.2,3.7,1.2,7.3,0.5,10.9
		c-0.2,1-0.4,2-0.4,3c-0.1,1.8,0,3.8,0.3,5.6c0.2,1.5,0.4,3,0,4.6c0,0.2,0,0.4-0.1,0.6c0,0.4,0,0.7,0,1.1c0,0.4,0.1,0.7,0.2,1.1
		c0,0.7-0.5,1.5-1.1,1.9c-0.5,0.3-0.9,0.5-1.5,0.7c-0.4,0.1-0.7,0.2-1.2,0.4c-0.3,0.1-0.6,0.2-1,0.4c-0.2,0.1-0.5,0.3-0.6,0.5
		c-0.1,0.2-0.1,0.3,0,0.5c0.4,0.9,1.5,1.4,2.4,1.5c1,0.1,1.9,0,2.9-0.2c0.9-0.2,1.9-0.9,2.9-0.7c1.3,0.3,3.4,0.4,4.7-0.1
		c1-0.4,0.5-1.8,0.2-2.5c-0.3-0.7-0.3-1.5-0.5-2.2c-0.3-0.8-0.5-1.6-0.5-2.4c0-0.8,0.2-1.6,0.2-2.3c0-2,0.7-4,0.6-6.1
		c0-0.7,0.1-1.4,0.3-2c0.1-0.7,0-1.4,0.1-2.2c0.1-1,0.5-1.7,0.8-2.6c0.4-1,0.6,0.2,0.7,0.6c0.2,0.8,0.5,1.7,0.5,2.5
		c0,0.8,0.3,1.4,0.5,2.1c0.1,0.2,0.1,0.4,0.1,0.5c0.3,1.2,0.2,2.4,0,3.6c-0.3,2.1-0.8,4-1.2,6.1c-0.2,1-0.5,2.1-0.7,3.1
		c-0.1,0.6,0.2,1.1,0.4,1.6c0.2,0.4,0.7,1.3,0.3,1.7c0,0.1-0.1,0.1-0.1,0.2c-0.1,0.1-0.2,0.3-0.3,0.4c-0.4,0.5-0.9,1-1.3,1.5
		c-0.8,1.1-0.4,2.4,0.9,2.6c0.1,0,0.2,0,0.3,0c0.9,0.1,1.8,0.1,2.6-0.1c0.6-0.1,1.3-0.3,1.8-0.7c0.5-0.4,0.3-1,1-1.5
		c0,0,1-0.7,1.4-0.9c0.4-0.2,0.3-0.9,0.3-1c0-0.1-0.2-1.2-0.2-1.2c0-0.1-0.1-0.3-0.1-0.4c0-0.1,0-0.2-0.1-0.3c0-0.1,0-0.3,0.1-0.4
		c0.1-0.2,0.2-0.3,0.3-0.4c0.1-0.1,0.1-0.3,0.1-0.4c0-0.3-0.1-0.5-0.1-0.8c0-0.2,0-0.5,0-0.7c0-0.1,0-0.2,0-0.3
		c0-0.9,0.1-1.7,0.3-2.6c0.1-0.4,0.2-0.9,0.3-1.3c0.1-0.2,0.1-0.7,0.4-0.6c0.2,0.1,0.2,0.3,0.2,0.4c0,0.3,0,0.5,0.1,0.8
		c0.1,0.5,0.1,1.1,0.2,1.6c0.4,2.3,1.3,4.4,2.7,6.2c0.9,1.2,2.1,2.1,3.4,2.9c3,1.6,5.6,1.8,6.8,1.8c2.4,0,4.5-0.6,5.4-1.1
		c3.5-1.4,5.3-3.8,7.2-6.8c0.9,0.7,1.8,1.7,3,2.6c1.5,1.1,3,1.8,3.6,2.1c3.2,1.6,7.4,3.5,15.2,3.5c16.1,0,24.2-9.2,27.6-14.3
		c6.9-10.2,7.2-22.5,7.2-26.4C126.9,304.9,122.6,290.9,110.6,282.9 M97.6,318.1c0,5.4-0.8,13.4-4.5,17.9c-3,3.6-7.2,3.9-8.9,3.9
		c-8,0-10.5-6.5-11.3-9c-1.4-3.9-1.7-8-1.7-12c0-6.2,0.6-14.3,5.3-18.9c2.6-2.4,5.1-2.9,6.6-3c4.1-0.4,8,1.5,10.4,4.8
		C97.7,307.4,97.6,316.9,97.6,318.1z"/>
</g>
<path class="st0" d="M289.6,299.9c-4.7,4.7-5.3,12.8-5.3,18.9c0,4.1,0.3,8.1,1.7,12c0.7,2.6,3.3,9,11.3,9c1.7,0,5.9-0.3,8.9-3.9
	c3.8-4.5,4.5-12.5,4.5-17.9c0-1.2,0.2-10.7-4.1-16.4c-2.4-3.3-6.3-5.3-10.4-4.8C294.7,297,292.1,297.5,289.6,299.9 M285.2,287
	c1-1.4,1.5-1.9,2.1-2.6c2.7-2.6,9.2-6.8,18.9-6.8c3.2,0,10.2,0.4,17.4,5.3c12,8,16.2,21.9,16.2,35.5c0,3.9-0.3,16.2-7.2,26.4
	c-3.5,5.1-11.6,14.3-27.6,14.3c-7.8,0-12-1.8-15.2-3.4c-0.6-0.3-2.1-1-3.6-2.1c-1.2-0.9-2.1-1.8-3-2.6c-2,3-3.8,5.4-7.2,6.8
	c-0.9,0.4-3,1-5.4,1c-1.2,0-3.8-0.2-6.8-1.8c-7.2-4.1-6.5-12.6-6.5-14.7v-73c0.1-6,0-11.9,4.7-16.2c3.5-3.3,7.8-3.6,9.5-3.6
	c5.4,0,11,3.3,12.8,8.6c0.9,2.1,0.9,4.8,0.9,5.3V287z"/>
<path class="st0" d="M394.1,321.4c-2.4,0.8-4.8,1.6-7.1,2.4c-2.6,0.7-5.1,1.5-7.5,2.1c-3.6,1.1-8.6,2.6-8.6,7.2c0,3.2,2,6.8,8.1,6.8
	c7.8,0,13.1-4.7,15-6.4V321.4 M420.4,345.9c0,0.4,0,3.8-0.9,6.2c-1.1,2.9-3.9,6.9-11.4,6.9c-1.9,0-7.5-0.4-10.8-5.6
	c-0.8-1.2-1.2-2.3-2-4.7c-0.9,0.8-3.2,3.3-6,5.3c-3.6,2.4-9.5,5.1-19.7,5.1c-2.1,0-9.6-0.2-15.6-3.8c-0.8-0.5-2.9-1.8-4.8-4.1
	c-5.3-6.2-5.3-12.8-5.3-15.8c0-5.6,1.1-15.3,13.7-21.3c7.8-3.6,22.2-5.4,30.5-7.4c0.8-0.1,5.3-0.9,5.3-5.3c0-3.2-2.9-6.2-9.3-6.2
	c-0.8,0-1.5,0-2.4,0.1c-1.4,0.1-5.6,0.2-8.3,3.4c-1.1,1.2-1.7,2.7-2.6,4.1c-2.4,3.3-6,5.4-10.2,5.4c-6.2,0-12.3-4.4-12.3-11
	c0-1.8,0.6-5,3.3-8.6c7.1-9,20.4-11.1,31.1-11.1c3.2,0,6.2,0.1,9.2,0.5c3.8,0.3,19.8,1.8,26.1,15.5c1.5,3.3,2.3,5.9,2.4,12.8V345.9z
	"/>
<path class="st0" d="M584.2,334.6L568,310.3l10.9-11.2c2.7-3,5.3-6.2,5.3-10.6c0-4.7-3.2-9.2-7.6-10.9c-0.5-0.2-2.1-0.6-3.8-0.6
	c-5.3,0-8.5,3-11.9,6.5l-19.8,22.2V267c-0.1-2,0.3-10.9-6.6-15.4c-3.2-2.1-6.2-2.3-7.5-2.3c-1.7,0-5.3,0.2-8.9,3
	c-3.8,3-5.1,7.2-5.4,11.9c-0.2,1.4-0.2,2.6-0.2,3.9c0,0.1,0,0.2,0,0.3c0,0.3,0,0.6,0,0.9c0,0.5,0,1,0,1.4c0,0.6,0,1.2,0,1.8
	c0,0.7,0,1.4,0,2.1c0,0.8,0,1.5,0,2.2c0,0.8,0,1.5,0,2.3c0,0.7,0,1.5,0,2.2c0,0.7,0,1.4,0,2.1c0,0.6,0,1.2,0,1.8c0,0.5,0,0.9,0,1.4
	c0,0.3,0,0.6,0,0.9c0,0.2,0.2,0.1,0.3,0c0.2-0.1,0.3-0.2,0.4-0.3c0.4-0.3,0.8-0.5,1.2-0.8c0.7-0.4,0.7-1.2,1.2-1.8
	c0.2-0.3,0.6-0.1,0.8-0.2c0.4-0.4,0.6-1.5,0.4-2c-0.2-0.3-0.5-0.3-0.6-0.5c-0.1-0.2-0.1-0.5-0.2-0.7c-0.1-0.1-0.4,0-0.5-0.2
	c-0.5-1-0.8-2.3-0.7-3.5c0.1-0.8,0.7-1.2,0.9-2c0.1-0.7,0-0.9,0.7-1.5c1.2-1.1,2.7-1.5,4.3-1.5c0.5,0,1.7,0.3,2.1,0.5
	c0.8,0.4,1.3,0.7,1.6,1.5c0.5,1.1,0,1.3,0,2.3c0,0.4,0.2,0.7,0.2,1.2c0.1,0.5,0.1,0.9,0.1,1.3c0,0.9,0.2,1.2-0.1,2
	c-0.3,0.8-0.6,1.4-0.7,2.4c-0.1,0.8-0.3,1.5-1.2,1.7c-0.2,0-0.4,0-0.6,0.2c-0.4,0.5,0.2,0.7,0.3,1.2c0.1,0.4-0.2,0.6-0.1,1
	c0.1,0.5,0.2,1,0.4,1.4c0.4,0.8,0.7,2,1.4,2.6c0.3,0.3,0.6,0.4,0.7,0.8c0.1,0.3,0.2,0.8,0.2,1.1c0.1,0.8,0.1,1.6,0.3,2.5
	c0.3,1.7,0.4,3.4,0.7,5.1c0.2,1.4,1,2.7,1,4.1c0,1.2,0.4,2.3,0.5,3.4c0.1,2.3-0.2,4.5,0,6.8c0,0.1,0.1,0.1,0.3,1.2
	c0.1,1.5,0.3,1.4,0.3,1.8c0,0.1,0,0.3,0,0.4c0,0.1-0.2,0.1-0.2,0.2c-0.1,0.1-0.1,0.1-0.1,0.2c0,0.2-0.1,0.3-0.2,0.3
	c-0.2,0.1-0.6,0-0.5,0.3c0.5,2.4,2,8.3,2,9.4c0,0.8-0.4,1.4-0.5,2.2c-0.2,0.8-0.2,1.6-0.2,2.4c0.1,0.8-0.1,1.7-0.3,2.5
	c-0.3,1.7-0.5,3.4-0.9,5.1c-0.3,1.7-0.6,3.3-0.9,5c-0.1,0.4-0.2,0.8-0.2,1.2c0,0.2-0.1,0.4-0.1,0.6c-0.1,0.4-0.2,0.8-0.2,1.2
	c0,0.2,0,0.3,0,0.5c0,0.2,0.1,0.4,0.2,0.5c0.3,0.4,0.9,0.5,1.4,0.6c0.5,0.1,0.8,0.1,1.4,0.2c0.5,0,1,0,1.4,0.3
	c0.4,0.3,0.2,0.9,0.3,1.3c0.1,0.2-0.5,0.5-0.9,0.6c-0.2,0.1-0.4,0.1-0.6,0.2c-0.7,0.1-1.5,0.2-2.2,0.2c-0.3,0-2.6,0-3.5-0.2
	c-0.2,0-0.4-0.1-0.6-0.2c0,0-0.1-0.1-0.1-0.1c-0.2-0.1-0.4,0-0.4,0c0,0,0,0.1,0,0.2c0,0.3-0.2,0.3-0.4,0.3c-0.4,0-0.8-0.1-1.2-0.1
	c-0.1,0-0.3-0.1-0.3,0c-0.1,0.3,0.4,0.8,0.6,1c0.4,0.4,0.8,0.7,1.2,1c0.3,0.3,0.6,0.8,0.6,1.2c0,0.3,0,0.6,0,0.8
	c0,0.2,0,0.4,0.2,0.5c0.1,0,0.2,0.1,0.3,0.1c0.2,0,0.3,0.1,0.5,0.1c0.9,0.2,1.8,0.3,2.8,0.4c0.3,0,0.6,0,0.8,0
	c6.3,0,11.6-3.8,13.4-10.1c0.6-2.1,0.7-4.2,0.7-5.1v-9.1l6.3-6.2l14.3,22.3c0.9,1.4,1.8,2.6,2.9,3.6c2.7,2.9,6,4.5,10,4.5
	c7.5,0,13.6-5.7,13.7-13.4C588.3,340.1,585.1,336,584.2,334.6"/>
<path class="st0" d="M229.2,280.6c-7.8-3.5-15.5-3.6-18.5-3.6c-20-0.2-30.3,8.7-35.3,15.5c-7.2,9.9-7.2,21.2-7.2,25.2
	c0,5.2,0,17.9,9.6,29.3c4.7,5.5,12.6,12,28.4,12.7c-0.3-1.8-0.6-3.7-1.1-5.5c-1.1-3.9,0-8.7,0-8.7c0.2-2.3-0.6-6.5-1-8.3
	c0-0.2-0.1-0.3-0.1-0.4c-0.1-0.1-0.2-0.1-0.3-0.1c-0.1,0-0.3,0-0.4-0.1c-0.2-0.2-0.1-0.5-0.3-0.7c-0.1-0.1-0.3-0.2-0.5-0.3
	c-0.4-0.2-0.5-0.7-0.6-1.1c-0.1-0.6,0.2-1.6-0.1-2.2c-0.3-0.6-1.2-0.6-1.7-1c-1.2-0.9,0-2.2-0.1-3.3c-0.1-0.7-0.4-1.4-0.5-2.1
	c-0.1-0.7-0.1-1.4-0.1-2.1c0-1.6,0.2-3.2,0.5-4.7v-0.5c-0.3-3-0.1-6,0.5-8.9c0.3-1.3,0.7-2.6,1.2-3.8c0.2-0.5,0.5-1.1,0.8-1.6
	c0.9-1.7-0.5-1.6-0.5-3.1c0-1.2,0.8-2.4,1.3-3.5c1-2.3,0.9-4.6,1.9-6.9c0.3-0.9,0.7-1.6,1.4-2.3c0.6-0.6,1.8-1,2.7-0.9
	c2.4,0.1,4,1.6,4.6,3.9c0.2,0.9,0.6,3.2,1,5.3c0.1,0.8,0.5,2.2,1.2,2.7c0.1,0.1,0.3,0.1,0.4,0.2c0.3,0.1,0.5,0.2,0.4,0.6
	c-0.1,0.5-0.3,1-0.6,1.4c-0.3,0.4-0.8,0.6-1,1c-0.2,0.4,0.1,0.5,0.4,0.6c1,0.4,1.5,1,1.9,2c0.8,1.8,1.2,3.9,1.4,5.8
	c0.2,1.3,0.3,2.6,0.4,4c0,0.5-0.1,1.1-0.2,1.6c-0.1,0.7,0.1,1,0.3,1.6c0.4,1.5,0,3.5,0,5.1c0,0.3,0,0.6,0,0.9c0,0,0,0,0,0
	c0,0,0,0,0,0.1c0,0.2,0,0.3,0,0.5c0,0.3,0,0.7,0,0.8c0,0.3,0.1,0.7,0.2,1c0.1,0.3,0.4,0.5,0.5,0.8c0.3,0.5,0.2,1.1-0.1,1.6
	c-0.2,0.3-0.3,0.5-0.6,0.7c-0.4,0.4-1,0.6-1.2,1.1c-0.2,0.4,0,0.9,0,1.3c0,0.4,0.1,0.9,0.1,1.3c-0.1,0.3-0.5,0.9-0.6,1.1
	c-0.2,0.3-0.3,0.7-0.6,0.9c0,0-0.1,0-0.1,0.1c-0.1,0.1-0.2,0.2-0.4,0.3c-0.1,0-0.3,0.2-0.4,0.2c-0.1,0-0.1,0-0.2,0
	c-0.1,0-0.1-0.1-0.2,0c0,0.1,0,0.2-0.1,0.3c-0.1,0.2-0.1,0.4-0.1,0.6c-0.1,0.4-0.1,0.8-0.2,1.2c-0.2,1-0.5,1.9-0.8,2.9
	c-0.3,0.8-0.6,1.6-1.1,2.3c-0.2,0.4-0.4,0.7-0.4,1.1c0,0.4-0.1,0.8-0.1,1.2c-0.1,0.5-0.2,1-0.3,1.5c-0.2,0.5-0.5,0.8-0.6,1.3
	c0,0.1,0,0.2,0,0.3c0,0.6-0.5,7.1-0.6,9.7c0,0.5-0.1,1.1-0.1,1.6c8.1-0.3,27.9-2.7,36-21.9c3.5-8,3.7-16.5,3.7-19.4
	C250.9,302.6,244.3,287.3,229.2,280.6"/>
<path class="st0" d="M47.8,387.6c0,0.6,0,1.4-0.5,1.9c-0.4,0.5-1,0.5-1.2,0.5c-0.2,0-0.7,0-1.1-0.3c-0.7-0.5-0.7-1.3-0.7-2v-11.1
	c0-0.3,0-0.6,0.1-0.9c0.1-0.4,0.5-1.3,1.7-1.3c0.8,0,1.5,0.5,1.6,1.3c0.1,0.3,0.1,0.9,0.1,0.9V387.6"/>
<path class="st0" d="M65.9,387.9c0,0.5,0,0.6-0.1,0.8c-0.2,0.7-0.8,1.1-1.5,1.1c-0.2,0-0.8,0-1.2-0.5c-0.4-0.4-0.4-0.9-0.4-1.5v-4.6
	c0-0.3,0.1-2.2-1.6-2.2c-0.8,0-1.4,0.5-1.6,1.3c0,0.2-0.1,0.5-0.1,0.9v4.6c0,0.6-0.1,1.2-0.6,1.6c-0.3,0.2-0.7,0.3-1,0.3
	c-1.1,0-1.5-0.8-1.6-1.2c-0.1-0.3-0.1-0.4-0.1-0.8v-4.3c0-0.5,0-1-0.2-1.5c-0.1-0.3-0.5-0.9-1.4-0.9c-0.2,0-0.6,0-1,0.3
	c-0.6,0.5-0.7,1.4-0.7,2.2v4.2c0,0.7,0,1.3-0.6,1.7c-0.3,0.2-0.6,0.2-0.9,0.2c-0.2,0-0.9,0-1.3-0.7c-0.2-0.4-0.3-0.8-0.3-1.3v-7.6
	c0-0.6,0.1-1.3,0.7-1.7c0.1-0.1,0.4-0.2,0.8-0.2c0.4,0,0.7,0.1,0.8,0.2c0.6,0.3,0.7,0.8,0.8,1.4c0.1-0.2,0.3-0.6,0.8-1
	c0.4-0.3,1-0.7,2.1-0.7c0.4,0,1.7,0,2.6,1.1c0.1,0.2,0.3,0.4,0.5,0.8c0-0.1,0.1-0.2,0.2-0.2c0.8-1.1,1.8-1.7,3.2-1.7
	c0.8,0,1.6,0.2,2.3,0.7c1.4,1,1.4,2.5,1.4,4V387.9"/>
<path class="st0" d="M70.9,391.1c0,1.1-0.2,1.5-0.7,1.9c-0.3,0.2-0.6,0.3-0.9,0.3c-0.3,0-1.2-0.1-1.5-1.1c-0.1-0.2-0.1-0.4-0.1-0.9
	v-10.8c0-0.5,0-0.6,0.1-0.8c0.2-0.8,0.7-1.2,1.5-1.2c0.5,0,0.7,0.1,0.9,0.2c0.1,0.1,0.3,0.2,0.5,0.5c0.1,0.2,0.1,0.3,0.2,0.6
	c0.1-0.2,0.3-0.5,0.5-0.6c0.4-0.4,1.2-1,2.7-1c0.2,0,0.6,0,1.1,0.1c1,0.2,1.8,0.8,2.4,1.6c0.6,0.8,1.2,1.9,1.2,4
	c0,0.4,0,1.7-0.5,2.9c-0.4,1-1.5,3.1-4.5,3.1c-1.1,0-1.9-0.4-2.2-0.6c-0.3-0.2-0.3-0.3-0.7-0.6V391.1 M72,381.2
	c-0.7,0.5-1.1,1.3-1.1,3c0,1,0.1,2.1,1,2.8c0.2,0.2,0.6,0.5,1.3,0.5c0.5,0,0.8-0.1,1-0.3c1.4-0.8,1.3-3,1.3-3.2c0-0.3,0-3.2-2.3-3.2
	C73,380.9,72.5,380.9,72,381.2z"/>
<path class="st0" d="M83.4,387.9c0,0.7,0,1.4-0.7,1.8c-0.3,0.1-0.6,0.2-0.9,0.2c-0.3,0-1.2-0.1-1.5-1c-0.1-0.3-0.1-0.7-0.1-1v-7.5
	c0-0.7,0-1.3,0.6-1.7c0.3-0.2,0.6-0.3,0.9-0.3c0.5,0,0.9,0.2,1.2,0.6c0.3,0.5,0.3,1,0.3,1.6c0.1-0.4,0.3-0.7,0.5-1
	c0.5-0.8,1.3-1.2,2.3-1.2c0.9,0,1.6,0.5,1.6,1.4c0,0.4-0.2,0.8-0.3,0.9c-0.5,0.6-1.3,0.5-2,0.6c-0.2,0-0.7,0.1-1.1,0.5
	c-0.7,0.7-0.7,1.8-0.7,2.7V387.9"/>
<path class="st0" d="M97.3,379.9c0.6,0.6,1.5,2,1.5,4.2c0,0.4,0,1.4-0.4,2.4c-1,2.4-3,3.1-3.9,3.3c-0.7,0.2-1.3,0.2-1.5,0.2
	c-1.3,0-2.2-0.3-2.7-0.6c-2.1-1-3-3.2-3-5.4c0-1.4,0.4-2.8,1.3-3.9c0.6-0.8,2.1-1.9,4.5-2C95.3,378.2,96.7,379.3,97.3,379.9
	 M92.2,381c-0.9,0.3-1.7,1.2-1.7,3.1c0,0.3,0,1.1,0.3,1.9c0.6,1.3,1.7,1.5,2.3,1.5c0.5,0,1-0.2,1.4-0.5c1.1-0.9,1.1-2.6,1.1-2.9
	c0-1-0.2-2.1-1-2.7c-0.6-0.5-1.3-0.5-1.5-0.5C92.6,380.8,92.3,380.9,92.2,381z"/>
<path class="st0" d="M103.8,385.4c0.1,0.3,0.1,0.6,0.2,0.9c0.1-0.9,0.2-1.2,0.3-1.7l1.3-4.6c0-0.1,0.1-0.3,0.2-0.5
	c0.1-0.3,0.4-1.1,1.4-1.1c0.1,0,0.4,0,0.7,0.2c0.3,0.1,0.8,0.5,0.8,1.3c0,0.2,0,0.4-0.2,0.9l-2.4,7.2c-0.5,1.3-0.6,1.9-2.2,1.9
	c-0.1,0-0.8,0-1.2-0.3c-0.4-0.2-0.6-0.8-0.8-1.2l-2.5-7.4c-0.1-0.3-0.2-0.6-0.2-1c0-0.1,0-0.4,0.1-0.6c0.2-0.6,0.8-0.9,1.4-0.9
	c0.4,0,0.6,0.1,0.8,0.2c0.6,0.3,0.8,1,1,1.6l1.1,4.5L103.8,385.4"/>
<path class="st0" d="M109.7,375.7c0-0.9,0.7-1.6,1.6-1.6c0.9,0,1.6,0.7,1.6,1.6c0,0.9-0.7,1.6-1.6,1.6c-0.2,0-0.7,0-1.1-0.5
	C110,376.7,109.7,376.3,109.7,375.7 M112.8,387.9c0,0,0,0.5-0.1,0.8c-0.1,0.3-0.4,1.2-1.5,1.2c-0.1,0-0.5,0-0.9-0.2
	c-0.6-0.4-0.7-1.1-0.7-1.8v-7.6c0-0.7,0.1-1.3,0.7-1.7c0.4-0.2,0.7-0.2,0.9-0.2c1,0,1.3,0.6,1.5,1c0.1,0.3,0.1,0.5,0.1,0.9V387.9z"
	/>
<path class="st0" d="M121.6,383.2c0-0.7-0.1-1.5-0.8-1.9c-0.1-0.1-0.5-0.3-0.9-0.3c-0.2,0-0.6,0-1.1,0.3c-1,0.6-0.9,1.9-0.9,2.2v4.5
	c0,0.5,0,0.6-0.1,0.9c-0.3,0.9-1.2,1-1.4,1c-0.2,0-0.9,0-1.3-0.7c-0.2-0.3-0.2-0.6-0.3-1.3v-7.7c0-0.5,0-0.7,0.1-0.9
	c0.3-0.9,1.2-0.9,1.5-0.9c0.9,0,1.3,0.6,1.4,0.9c0.1,0.1,0.1,0.3,0.2,0.6c0.1-0.1,0.2-0.3,0.3-0.4c0.4-0.5,1.2-1.2,2.7-1.2
	c2.3,0,3.3,1.5,3.5,2.3c0.2,0.6,0.3,1.2,0.3,1.8v5.5c0,0.7,0,1.3-0.6,1.7c-0.2,0.1-0.5,0.3-0.9,0.3c-0.2,0-0.5,0-0.8-0.2
	c-0.8-0.5-0.7-1.5-0.7-1.7V383.2"/>
<path class="st0" d="M137.2,387.9c0,0.4,0,0.8,0,1.1c-0.1,1.1-0.2,2.1-1,3c-1.1,1.3-3,1.8-4.7,1.8c-1,0-1.8-0.1-2.7-0.5
	c-0.8-0.3-1.6-0.8-1.6-1.8c0-0.8,0.6-1.4,1.4-1.4c0.3,0,0.5,0.1,0.6,0.1c0.4,0.1,0.7,0.5,1,0.7c0.5,0.3,0.9,0.4,1.5,0.4
	c0.3,0,1.3,0,1.9-0.8c0.5-0.6,0.4-1.3,0.5-2.8c-0.1,0.1-0.2,0.2-0.4,0.4c-0.5,0.4-1.3,1-2.9,1c-1.5,0-2.5-0.7-2.9-1
	c-0.7-0.6-1.8-2-1.8-4.3c0-0.5,0.1-2.1,0.9-3.4c0.5-0.7,1.6-2.1,3.9-2.1c0.4,0,1.5,0,2.4,0.7c0.3,0.2,0.5,0.5,0.7,0.7
	c0.1-0.3,0.4-1.2,1.5-1.2c0.2,0,0.9,0,1.3,0.6c0.3,0.5,0.3,0.9,0.3,1.4V387.9 M131,381c-0.6,0.2-1.7,0.9-1.7,2.7
	c0,0.4,0,0.7,0.2,1.1c0.1,0.5,0.7,1.6,2.1,1.6c0.2,0,0.6,0,1-0.2c0.6-0.3,1.4-1,1.4-2.7c0-0.9-0.3-1.9-1.1-2.4
	c-0.4-0.2-0.8-0.3-1.2-0.3C131.6,380.9,131.3,380.9,131,381z"/>
<path class="st0" d="M149.5,378.5c0.3,0,0.5,0,0.7,0.1c0.5,0.2,0.7,0.6,0.7,1.1c0,0.1,0,0.6-0.4,0.9c-0.4,0.3-1,0.3-1.1,0.3H149v5.4
	c0,0.3,0,0.4,0.1,0.6c0.1,0.3,0.3,0.5,0.9,0.5c0.2,0,0.3,0,0.4,0c0.6,0.1,0.8,0.6,0.8,1.1c0,0.1,0,0.4-0.2,0.7
	c-0.3,0.5-1,0.7-2.1,0.7c-1.3,0-2-0.3-2.4-0.8c-0.6-0.6-0.6-1.4-0.6-2.2v-6c-0.4,0-0.6,0-0.8,0c-0.3-0.1-0.8-0.4-0.8-1.2
	c0-0.3,0-0.5,0.2-0.7c0.3-0.5,0.8-0.5,1.4-0.5v-1.5c0-0.7,0.1-1.4,0.7-1.8c0.4-0.2,0.7-0.2,0.8-0.2c0.5,0,0.8,0.2,0.9,0.3
	c0.6,0.4,0.6,1.1,0.6,1.8v1.5H149.5"/>
<path class="st0" d="M161.8,388c0,0.2,0,0.3,0,0.4c0,0.7-0.3,1-0.5,1.2c-0.2,0.1-0.5,0.3-1,0.3c-0.4,0-0.8-0.1-1.1-0.4
	c-0.2-0.2-0.3-0.5-0.3-0.6c-0.1-0.3-0.1-0.6-0.1-0.9V383c0-0.4-0.1-1.9-1.7-1.9c-0.9,0-1.3,0.5-1.5,0.8c-0.3,0.5-0.4,1.2-0.4,1.8
	v4.1c0,0.7,0,1.4-0.7,1.8c-0.3,0.2-0.6,0.2-0.9,0.2c-0.1,0-0.4,0-0.8-0.2c-0.8-0.4-0.8-1.1-0.8-1.8v-12.2c0-0.3,0.1-0.9,0.8-1.3
	c0.3-0.2,0.7-0.2,0.8-0.2c0.3,0,0.7,0.1,0.9,0.3c0.8,0.5,0.7,1.5,0.7,1.7v3.4c0.1-0.2,0.3-0.3,0.4-0.4c0.4-0.3,1.3-0.9,2.6-0.9
	c0.2,0,0.6,0,1.1,0.1c0.5,0.1,1.9,0.7,2.4,2.2c0.2,0.5,0.2,0.9,0.2,1.8V388"/>
<path class="st0" d="M166.3,385.1c0.1,0.6,0.2,0.8,0.3,1.1c0.2,0.4,0.8,1.4,2.2,1.4c0.3,0,1,0,1.6-0.6c0.2-0.2,0.5-0.7,1.2-0.7
	c0.8,0,1.4,0.7,1.4,1.5c0,0.6-0.5,1.1-1,1.5c-0.6,0.4-1.6,0.9-3.4,0.9c-0.6,0-2.5,0-3.9-1.4c-0.7-0.7-1.8-2.1-1.8-4.5
	c0-0.8,0.1-3.3,2.3-4.9c0.6-0.4,1.7-1.1,3.5-1.1c0.7,0,2.6,0.1,3.9,1.7c1.1,1.4,1.2,3.1,1.2,3.6c0,0.2,0.1,1.1-0.7,1.4
	c-0.2,0-0.3,0.1-0.7,0.1H166.3 M170.9,382.7c0-0.1-0.1-0.6-0.3-1c-0.4-0.7-1.1-1-1.9-1c-0.3,0-1,0-1.6,0.6c-0.4,0.4-0.5,0.8-0.7,1.3
	L170.9,382.7z"/>
<path class="st0" d="M191.1,388c0,0.2,0,0.3,0,0.4c0,0.7-0.3,1-0.5,1.2c-0.2,0.1-0.5,0.3-1,0.3c-0.4,0-0.8-0.1-1.1-0.4
	c-0.2-0.2-0.3-0.5-0.3-0.6c-0.1-0.3-0.1-0.6-0.1-0.9V383c0-0.4-0.1-1.9-1.7-1.9c-0.9,0-1.3,0.5-1.5,0.8c-0.3,0.5-0.4,1.2-0.4,1.8
	v4.1c0,0.7,0,1.4-0.7,1.8c-0.3,0.2-0.6,0.2-0.9,0.2c-0.2,0-0.4,0-0.8-0.2c-0.8-0.4-0.8-1.1-0.8-1.8v-12.2c0-0.3,0.1-0.9,0.8-1.3
	c0.3-0.2,0.7-0.2,0.8-0.2c0.3,0,0.6,0.1,0.9,0.3c0.8,0.5,0.7,1.5,0.7,1.7v3.4c0.2-0.2,0.3-0.3,0.5-0.4c0.4-0.3,1.3-0.9,2.6-0.9
	c0.2,0,0.6,0,1.1,0.1c0.5,0.1,1.9,0.7,2.4,2.2c0.2,0.5,0.2,0.9,0.2,1.8V388"/>
<path class="st0" d="M195.9,385.1c0.1,0.6,0.2,0.8,0.3,1.1c0.2,0.4,0.8,1.4,2.2,1.4c0.3,0,1,0,1.6-0.6c0.2-0.2,0.5-0.7,1.2-0.7
	c0.8,0,1.4,0.7,1.4,1.5c0,0.6-0.5,1.1-1,1.5c-0.6,0.4-1.6,0.9-3.4,0.9c-0.6,0-2.5,0-3.9-1.4c-0.7-0.7-1.8-2.1-1.8-4.5
	c0-0.8,0.1-3.3,2.2-4.9c0.6-0.4,1.7-1.1,3.5-1.1c0.7,0,2.6,0.1,3.9,1.7c1.1,1.4,1.2,3.1,1.2,3.6c0,0.2,0.1,1.1-0.7,1.4
	c-0.2,0-0.3,0.1-0.7,0.1H195.9 M200.4,382.7c0-0.1-0.1-0.6-0.3-1c-0.4-0.7-1.1-1-1.9-1c-0.3,0-1,0-1.6,0.6c-0.4,0.4-0.5,0.8-0.7,1.3
	L200.4,382.7z"/>
<path class="st0" d="M214.6,387.5c0,0.2,0,0.3,0,0.5c0,0.3-0.1,1.9-1.6,1.9c-1.1,0-1.4-1-1.5-1.3c-0.1,0.1-0.4,0.4-0.8,0.6
	c-1.1,0.7-2.2,0.8-2.7,0.8c-0.3,0-1,0-1.8-0.3c-1.4-0.6-2.1-1.8-2.1-3.3c0-1.9,1.1-2.6,1.8-2.9c1.2-0.6,3.1-0.7,4.4-1
	c0.5-0.1,1-0.2,1-0.8c0-0.1,0-0.3-0.2-0.5c-0.4-0.5-1.1-0.5-1.7-0.5c-0.5,0-1.1,0.1-1.5,0.4c-0.2,0.1-0.3,0.3-0.3,0.3
	c-0.1,0.1-0.5,0.7-1.2,0.7c-0.8,0-1.4-0.6-1.4-1.4c0-1.3,1.6-2,1.7-2c0.7-0.3,1.5-0.5,3-0.5c0.2,0,0.8,0,1.3,0.1
	c2.1,0.3,2.9,1.5,3.2,2.4c0.2,0.6,0.3,1,0.3,2.1V387.5 M211.5,384.3c-0.6,0.2-0.8,0.3-1.9,0.5c0,0-0.8,0.2-1.3,0.4
	c-0.2,0.1-0.8,0.4-0.8,1.2c0,0.5,0.4,1.2,1.5,1.2c0.3,0,0.4,0,0.7-0.1c0.2,0,1-0.3,1.6-0.9c0.2-0.1,0.3-0.3,0.4-0.5L211.5,384.3z"/>
<path class="st0" d="M216.5,376.1c0-0.1,0-0.5,0.1-0.8c0.2-0.7,0.8-1.1,1.5-1.1c0.2,0,0.5,0,0.9,0.2c0.7,0.4,0.7,1,0.7,1.7V388
	c0,0.2,0,0.6-0.1,0.8c-0.1,0.4-0.5,1.1-1.5,1.1c-0.3,0-1.2,0-1.5-1c-0.1-0.3-0.1-0.6-0.1-0.9V376.1"/>
<path class="st0" d="M225.8,378.5c0.3,0,0.5,0,0.7,0.1c0.5,0.2,0.7,0.6,0.7,1.1c0,0.1,0,0.6-0.4,0.9c-0.4,0.3-1,0.3-1.1,0.3h-0.5
	v5.4c0,0.3,0,0.4,0.1,0.6c0.1,0.3,0.3,0.5,0.9,0.5c0.2,0,0.3,0,0.4,0c0.6,0.1,0.8,0.6,0.8,1.1c0,0.1,0,0.4-0.2,0.7
	c-0.3,0.5-1,0.7-2.1,0.7c-1.3,0-2-0.3-2.4-0.8c-0.6-0.6-0.6-1.4-0.6-2.2v-6c-0.4,0-0.6,0-0.8,0c-0.3-0.1-0.8-0.4-0.8-1.2
	c0-0.3,0-0.5,0.2-0.7c0.4-0.5,0.8-0.5,1.4-0.5v-1.5c0-0.7,0.1-1.4,0.7-1.8c0.4-0.2,0.7-0.2,0.8-0.2c0.5,0,0.8,0.2,0.9,0.3
	c0.6,0.4,0.6,1.1,0.6,1.8v1.5H225.8"/>
<path class="st0" d="M238.1,388c0,0.2,0,0.3,0,0.4c0,0.7-0.3,1-0.5,1.2c-0.2,0.1-0.5,0.3-1,0.3c-0.4,0-0.8-0.1-1.1-0.4
	c-0.2-0.2-0.3-0.5-0.3-0.6c-0.1-0.3-0.1-0.6-0.1-0.9V383c0-0.4-0.1-1.9-1.7-1.9c-0.9,0-1.3,0.5-1.5,0.8c-0.3,0.5-0.4,1.2-0.4,1.8
	v4.1c0,0.7,0,1.4-0.7,1.8c-0.3,0.2-0.6,0.2-0.9,0.2c-0.2,0-0.4,0-0.8-0.2c-0.8-0.4-0.8-1.1-0.8-1.8v-12.2c0-0.3,0.1-0.9,0.8-1.3
	c0.3-0.2,0.7-0.2,0.8-0.2c0.3,0,0.6,0.1,0.9,0.3c0.8,0.5,0.7,1.5,0.7,1.7v3.4c0.2-0.2,0.3-0.3,0.5-0.4c0.4-0.3,1.3-0.9,2.6-0.9
	c0.2,0,0.6,0,1.1,0.1c0.5,0.1,1.9,0.7,2.4,2.2c0.2,0.5,0.2,0.9,0.2,1.8V388"/>
<path class="st0" d="M255.4,379.9c0.6,0.6,1.5,2,1.5,4.2c0,0.4,0,1.4-0.5,2.4c-1,2.4-3,3.1-3.9,3.3c-0.7,0.2-1.3,0.2-1.5,0.2
	c-1.3,0-2.3-0.3-2.7-0.6c-2.1-1-3-3.2-3-5.4c0-1.4,0.4-2.8,1.3-3.9c0.6-0.8,2.1-1.9,4.5-2C253.5,378.2,254.9,379.3,255.4,379.9
	 M250.4,381c-0.9,0.3-1.7,1.2-1.7,3.1c0,0.3,0,1.1,0.3,1.9c0.6,1.3,1.7,1.5,2.3,1.5c0.5,0,1-0.2,1.4-0.5c1.1-0.9,1.1-2.6,1.1-2.9
	c0-1-0.2-2.1-1-2.7c-0.6-0.5-1.3-0.5-1.5-0.5C250.8,380.8,250.5,380.9,250.4,381z"/>
<path class="st0" d="M262,378.5h0.6c0.5,0,0.9,0,1.2,0.5c0.1,0.1,0.2,0.3,0.2,0.7c0,0.7-0.5,1-0.8,1.1c-0.3,0.1-0.4,0.1-0.7,0.1H262
	v6.9c0,0.3,0,0.5,0,0.8c-0.1,0.4-0.3,1.3-1.5,1.3c-0.1,0-0.5,0-0.9-0.2c-0.7-0.4-0.7-1.1-0.7-1.8v-7c-0.4,0-0.8,0-1.1-0.3
	c-0.2-0.1-0.4-0.4-0.4-0.9c0-0.8,0.6-1,0.8-1.1c0.2-0.1,0.7-0.1,0.7-0.1v-0.8c0-0.3-0.1-1.5,0.7-2.4c0.7-0.8,1.7-0.9,2.6-0.9
	c0.9,0,1.9,0.2,1.9,1.3c0,0.6-0.2,0.8-0.4,1c-0.3,0.2-0.6,0.2-1,0.3c-0.5,0.2-0.6,0.5-0.6,1V378.5"/>
<path class="st0" d="M274.2,378.5h0.6c0.5,0,0.9,0,1.2,0.5c0.1,0.1,0.2,0.3,0.2,0.7c0,0.7-0.5,1-0.8,1.1c-0.3,0.1-0.4,0.1-0.7,0.1
	h-0.6v6.9c0,0.3,0,0.5,0,0.8c-0.1,0.4-0.3,1.3-1.5,1.3c-0.1,0-0.5,0-0.9-0.2c-0.7-0.4-0.7-1.1-0.7-1.8v-7c-0.4,0-0.8,0-1.1-0.3
	c-0.2-0.1-0.4-0.4-0.4-0.9c0-0.8,0.6-1,0.8-1.1c0.2-0.1,0.7-0.1,0.7-0.1v-0.8c0-0.3-0.1-1.5,0.7-2.4c0.7-0.8,1.7-0.9,2.6-0.9
	c0.9,0,1.9,0.2,1.9,1.3c0,0.6-0.2,0.8-0.4,1c-0.3,0.2-0.6,0.2-1,0.3c-0.5,0.2-0.6,0.5-0.6,1V378.5"/>
<path class="st0" d="M276.7,380.5c0-0.6,0-1.3,0.6-1.7c0.4-0.3,0.8-0.3,1-0.3c0.4,0,0.7,0.2,0.9,0.2c0.6,0.4,0.7,1.2,0.7,1.8v5
	c0,0.5,0.2,1.9,1.8,1.9c0.6,0,0.9-0.2,1.1-0.4c0.8-0.6,0.7-1.8,0.7-2.6v-4.1c0-0.2-0.1-1.1,0.7-1.6c0.1-0.1,0.5-0.3,0.9-0.3
	c0.2,0,0.5,0,0.9,0.3c0.7,0.5,0.6,1.4,0.6,1.6v7.5c0,0.3,0.1,2.1-1.5,2.1c-0.2,0-1,0-1.4-0.8c-0.1-0.3-0.1-0.5-0.2-0.6
	c-0.2,0.3-0.3,0.4-0.3,0.5c-0.4,0.5-1.3,1.1-2.7,1.1c-0.6,0-2.5-0.1-3.4-2c-0.3-0.6-0.4-1.3-0.4-2.7V380.5"/>
<path class="st0" d="M292.9,378.5c0.3,0,0.5,0,0.7,0.1c0.5,0.2,0.7,0.6,0.7,1.1c0,0.1,0,0.6-0.4,0.9c-0.4,0.3-1,0.3-1.1,0.3h-0.5
	v5.4c0,0.3,0,0.4,0.1,0.6c0.1,0.3,0.3,0.5,0.9,0.5c0.2,0,0.3,0,0.4,0c0.6,0.1,0.8,0.6,0.8,1.1c0,0.1,0,0.4-0.2,0.7
	c-0.4,0.5-1,0.7-2.1,0.7c-1.3,0-2-0.3-2.4-0.8c-0.6-0.6-0.6-1.4-0.6-2.2v-6c-0.4,0-0.6,0-0.8,0c-0.3-0.1-0.8-0.4-0.8-1.2
	c0-0.3,0-0.5,0.2-0.7c0.3-0.5,0.8-0.5,1.4-0.5v-1.5c0-0.7,0.1-1.4,0.7-1.8c0.4-0.2,0.7-0.2,0.8-0.2c0.5,0,0.8,0.2,0.9,0.3
	c0.6,0.4,0.6,1.1,0.6,1.8v1.5H292.9"/>
<path class="st0" d="M295.2,380.5c0-0.6,0-1.3,0.6-1.7c0.4-0.3,0.8-0.3,0.9-0.3c0.4,0,0.7,0.2,0.9,0.2c0.7,0.4,0.7,1.2,0.7,1.8v5
	c0,0.5,0.2,1.9,1.8,1.9c0.6,0,0.9-0.2,1.1-0.4c0.8-0.6,0.7-1.8,0.7-2.6v-4.1c0-0.2-0.1-1.1,0.7-1.6c0.1-0.1,0.5-0.3,0.9-0.3
	c0.2,0,0.5,0,0.9,0.3c0.7,0.5,0.6,1.4,0.6,1.6v7.5c0,0.3,0.1,2.1-1.5,2.1c-0.2,0-1,0-1.4-0.8c-0.1-0.3-0.2-0.5-0.2-0.6
	c-0.2,0.3-0.3,0.4-0.3,0.5c-0.4,0.5-1.3,1.1-2.7,1.1c-0.6,0-2.5-0.1-3.4-2c-0.3-0.6-0.4-1.3-0.4-2.7V380.5"/>
<path class="st0" d="M310.5,387.9c0,0.7,0,1.4-0.7,1.8c-0.3,0.1-0.6,0.2-0.9,0.2c-0.3,0-1.2-0.1-1.5-1c-0.1-0.3-0.1-0.7-0.1-1v-7.5
	c0-0.7,0-1.3,0.6-1.7c0.3-0.2,0.6-0.3,0.9-0.3c0.5,0,0.9,0.2,1.2,0.6c0.3,0.5,0.3,1,0.3,1.6c0.1-0.4,0.3-0.7,0.5-1
	c0.5-0.8,1.3-1.2,2.3-1.2c0.9,0,1.6,0.5,1.6,1.4c0,0.4-0.2,0.8-0.3,0.9c-0.5,0.6-1.3,0.5-2,0.6c-0.2,0-0.7,0.1-1.1,0.5
	c-0.7,0.7-0.7,1.8-0.7,2.7V387.9"/>
<path class="st0" d="M317.5,385.1c0.1,0.6,0.2,0.8,0.3,1.1c0.2,0.4,0.8,1.4,2.2,1.4c0.3,0,1,0,1.6-0.6c0.2-0.2,0.5-0.7,1.2-0.7
	c0.8,0,1.4,0.7,1.4,1.5c0,0.6-0.5,1.1-1,1.5c-0.6,0.4-1.6,0.9-3.4,0.9c-0.6,0-2.5,0-3.9-1.4c-0.7-0.7-1.8-2.1-1.8-4.5
	c0-0.8,0.1-3.3,2.3-4.9c0.6-0.4,1.7-1.1,3.5-1.1c0.7,0,2.6,0.1,3.9,1.7c1.1,1.4,1.2,3.1,1.2,3.6c0,0.2,0.1,1.1-0.7,1.4
	c-0.2,0-0.3,0.1-0.7,0.1H317.5 M322,382.7c0-0.1-0.1-0.6-0.3-1c-0.4-0.7-1.1-1-1.9-1c-0.3,0-1,0-1.6,0.6c-0.4,0.4-0.5,0.8-0.7,1.3
	L322,382.7z"/>
<path class="st0" d="M342.8,387.9c0,0.4,0,0.8,0,1.1c-0.1,1.1-0.2,2.1-1,3c-1.2,1.3-3,1.8-4.7,1.8c-1,0-1.8-0.1-2.7-0.5
	c-0.8-0.3-1.6-0.8-1.6-1.8c0-0.8,0.6-1.4,1.4-1.4c0.3,0,0.5,0.1,0.6,0.1c0.4,0.1,0.7,0.5,1,0.7c0.5,0.3,0.9,0.4,1.5,0.4
	c0.3,0,1.3,0,1.9-0.8c0.4-0.6,0.4-1.3,0.5-2.8c-0.1,0.1-0.2,0.2-0.4,0.4c-0.5,0.4-1.3,1-2.9,1c-1.5,0-2.5-0.7-2.9-1
	c-0.7-0.6-1.8-2-1.8-4.3c0-0.5,0.1-2.1,0.9-3.4c0.5-0.7,1.6-2.1,3.9-2.1c0.4,0,1.4,0,2.4,0.7c0.3,0.2,0.5,0.5,0.7,0.7
	c0.1-0.3,0.4-1.2,1.5-1.2c0.2,0,0.9,0,1.3,0.6c0.3,0.5,0.3,0.9,0.3,1.4V387.9 M336.6,381c-0.6,0.2-1.7,0.9-1.7,2.7
	c0,0.4,0.1,0.7,0.2,1.1c0.1,0.5,0.7,1.6,2.1,1.6c0.2,0,0.6,0,1-0.2c0.6-0.3,1.4-1,1.4-2.7c0-0.9-0.3-1.9-1.1-2.4
	c-0.4-0.2-0.8-0.3-1.2-0.3C337.2,380.9,336.9,380.9,336.6,381z"/>
<path class="st0" d="M347.5,385.1c0.1,0.6,0.2,0.8,0.3,1.1c0.2,0.4,0.8,1.4,2.2,1.4c0.3,0,1,0,1.6-0.6c0.2-0.2,0.5-0.7,1.2-0.7
	c0.8,0,1.4,0.7,1.4,1.5c0,0.6-0.5,1.1-1,1.5c-0.6,0.4-1.6,0.9-3.4,0.9c-0.6,0-2.5,0-3.9-1.4c-0.7-0.7-1.7-2.1-1.7-4.5
	c0-0.8,0.1-3.3,2.2-4.9c0.6-0.4,1.7-1.1,3.5-1.1c0.7,0,2.6,0.1,3.9,1.7c1.1,1.4,1.2,3.1,1.2,3.6c0,0.2,0.1,1.1-0.7,1.4
	c-0.2,0-0.3,0.1-0.7,0.1H347.5 M352.1,382.7c0-0.1-0.1-0.6-0.3-1c-0.4-0.7-1.2-1-1.9-1c-0.3,0-1,0-1.6,0.6c-0.4,0.4-0.5,0.8-0.7,1.3
	L352.1,382.7z"/>
<path class="st0" d="M363.1,383.2c0-0.7-0.1-1.5-0.8-1.9c-0.2-0.1-0.5-0.3-0.9-0.3c-0.2,0-0.6,0-1.1,0.3c-1,0.6-0.9,1.9-0.9,2.2v4.5
	c0,0.5,0,0.6-0.1,0.9c-0.3,0.9-1.2,1-1.5,1c-0.2,0-0.9,0-1.3-0.7c-0.2-0.3-0.2-0.6-0.3-1.3v-7.7c0-0.5,0-0.7,0.1-0.9
	c0.3-0.9,1.2-0.9,1.4-0.9c0.9,0,1.3,0.6,1.4,0.9c0.1,0.1,0.1,0.3,0.2,0.6c0.1-0.1,0.2-0.3,0.3-0.4c0.4-0.5,1.2-1.2,2.7-1.2
	c2.3,0,3.3,1.5,3.6,2.3c0.2,0.6,0.3,1.2,0.3,1.8v5.5c0,0.7,0,1.3-0.6,1.7c-0.2,0.1-0.5,0.3-1,0.3c-0.2,0-0.5,0-0.8-0.2
	c-0.8-0.5-0.7-1.5-0.7-1.7V383.2"/>
<path class="st0" d="M370.9,385.1c0.1,0.6,0.2,0.8,0.3,1.1c0.2,0.4,0.8,1.4,2.2,1.4c0.3,0,1,0,1.6-0.6c0.1-0.2,0.5-0.7,1.2-0.7
	c0.8,0,1.4,0.7,1.4,1.5c0,0.6-0.5,1.1-1,1.5c-0.6,0.4-1.6,0.9-3.4,0.9c-0.6,0-2.5,0-3.9-1.4c-0.7-0.7-1.8-2.1-1.8-4.5
	c0-0.8,0.1-3.3,2.3-4.9c0.6-0.4,1.7-1.1,3.5-1.1c0.7,0,2.6,0.1,3.9,1.7c1.1,1.4,1.2,3.1,1.2,3.6c0,0.2,0.1,1.1-0.7,1.4
	c-0.2,0-0.3,0.1-0.7,0.1H370.9 M375.4,382.7c0-0.1-0.1-0.6-0.3-1c-0.4-0.7-1.1-1-1.9-1c-0.3,0-1,0-1.6,0.6c-0.4,0.4-0.5,0.8-0.7,1.3
	L375.4,382.7z"/>
<path class="st0" d="M382.9,387.9c0,0.7,0,1.4-0.7,1.8c-0.3,0.1-0.6,0.2-0.9,0.2c-0.3,0-1.2-0.1-1.5-1c-0.1-0.3-0.1-0.7-0.1-1v-7.5
	c0-0.7,0-1.3,0.6-1.7c0.3-0.2,0.6-0.3,0.9-0.3c0.5,0,0.9,0.2,1.2,0.6c0.3,0.5,0.3,1,0.3,1.6c0.1-0.4,0.3-0.7,0.5-1
	c0.5-0.8,1.3-1.2,2.3-1.2c0.9,0,1.6,0.5,1.6,1.4c0,0.4-0.2,0.8-0.3,0.9c-0.5,0.6-1.3,0.5-2,0.6c-0.2,0-0.7,0.1-1.1,0.5
	c-0.7,0.7-0.7,1.8-0.7,2.7V387.9"/>
<path class="st0" d="M397.4,387.5c0,0.2,0,0.3,0,0.5c0,0.3-0.1,1.9-1.6,1.9c-1.1,0-1.4-1-1.5-1.3c-0.2,0.1-0.4,0.4-0.8,0.6
	c-1.1,0.7-2.2,0.8-2.7,0.8c-0.3,0-1,0-1.7-0.3c-1.4-0.6-2.1-1.8-2.1-3.3c0-1.9,1.1-2.6,1.8-2.9c1.2-0.6,3.1-0.7,4.3-1
	c0.5-0.1,1-0.2,1-0.8c0-0.1,0-0.3-0.2-0.5c-0.4-0.5-1.1-0.5-1.7-0.5c-0.5,0-1.1,0.1-1.5,0.4c-0.2,0.1-0.3,0.3-0.3,0.3
	c-0.1,0.1-0.5,0.7-1.2,0.7c-0.8,0-1.4-0.6-1.4-1.4c0-1.3,1.6-2,1.7-2c0.7-0.3,1.5-0.5,3-0.5c0.2,0,0.8,0,1.3,0.1
	c2.1,0.3,2.9,1.5,3.2,2.4c0.2,0.6,0.3,1,0.3,2.1V387.5 M394.2,384.3c-0.6,0.2-0.8,0.3-1.9,0.5c0,0-0.8,0.2-1.3,0.4
	c-0.2,0.1-0.8,0.4-0.8,1.2c0,0.5,0.4,1.2,1.5,1.2c0.3,0,0.4,0,0.7-0.1c0.2,0,1-0.3,1.6-0.9c0.2-0.1,0.3-0.3,0.4-0.5L394.2,384.3z"/>
<path class="st0" d="M403.3,378.5c0.3,0,0.5,0,0.7,0.1c0.5,0.2,0.7,0.6,0.7,1.1c0,0.1,0,0.6-0.4,0.9c-0.4,0.3-1,0.3-1.1,0.3h-0.5
	v5.4c0,0.3,0,0.4,0.1,0.6c0.1,0.3,0.3,0.5,0.9,0.5c0.2,0,0.3,0,0.4,0c0.6,0.1,0.8,0.6,0.8,1.1c0,0.1,0,0.4-0.2,0.7
	c-0.4,0.5-1,0.7-2.2,0.7c-1.3,0-2-0.3-2.4-0.8c-0.6-0.6-0.6-1.4-0.6-2.2v-6c-0.4,0-0.6,0-0.8,0c-0.3-0.1-0.8-0.4-0.8-1.2
	c0-0.3,0-0.5,0.2-0.7c0.3-0.5,0.8-0.5,1.4-0.5v-1.5c0-0.7,0.1-1.4,0.7-1.8c0.4-0.2,0.7-0.2,0.8-0.2c0.5,0,0.8,0.2,0.9,0.3
	c0.6,0.4,0.6,1.1,0.6,1.8v1.5H403.3"/>
<path class="st0" d="M405.7,375.7c0-0.9,0.7-1.6,1.6-1.6c0.9,0,1.6,0.7,1.6,1.6c0,0.9-0.7,1.6-1.6,1.6c-0.2,0-0.7,0-1.1-0.5
	C406,376.7,405.7,376.3,405.7,375.7 M408.8,387.9c0,0,0,0.5-0.1,0.8c-0.1,0.3-0.4,1.2-1.5,1.2c-0.1,0-0.5,0-0.9-0.2
	c-0.6-0.4-0.7-1.1-0.7-1.8v-7.6c0-0.7,0.1-1.3,0.7-1.7c0.4-0.2,0.7-0.2,0.9-0.2c1,0,1.3,0.6,1.5,1c0.1,0.3,0.1,0.5,0.1,0.9V387.9z"
	/>
<path class="st0" d="M420.3,379.9c0.6,0.6,1.5,2,1.5,4.2c0,0.4,0,1.4-0.5,2.4c-0.9,2.4-3,3.1-3.8,3.3c-0.7,0.2-1.3,0.2-1.5,0.2
	c-1.3,0-2.3-0.3-2.7-0.6c-2.1-1-3-3.2-3-5.4c0-1.4,0.4-2.8,1.3-3.9c0.6-0.8,2.1-1.9,4.5-2C418.3,378.2,419.7,379.3,420.3,379.9
	 M415.2,381c-0.9,0.3-1.7,1.2-1.7,3.1c0,0.3,0,1.1,0.3,1.9c0.6,1.3,1.7,1.5,2.3,1.5c0.5,0,1-0.2,1.4-0.5c1.1-0.9,1.1-2.6,1.1-2.9
	c0-1-0.2-2.1-1-2.7c-0.6-0.5-1.3-0.5-1.5-0.5C415.6,380.8,415.4,380.9,415.2,381z"/>
<path class="st0" d="M430,383.2c0-0.7-0.1-1.5-0.8-1.9c-0.2-0.1-0.5-0.3-0.9-0.3c-0.2,0-0.7,0-1.1,0.3c-1,0.6-0.9,1.9-0.9,2.2v4.5
	c0,0.5,0,0.6-0.1,0.9c-0.3,0.9-1.2,1-1.4,1c-0.2,0-0.9,0-1.3-0.7c-0.2-0.3-0.2-0.6-0.3-1.3v-7.7c0-0.5,0-0.7,0.1-0.9
	c0.3-0.9,1.2-0.9,1.4-0.9c0.9,0,1.3,0.6,1.4,0.9c0.1,0.1,0.1,0.3,0.2,0.6c0.1-0.1,0.2-0.3,0.3-0.4c0.4-0.5,1.2-1.2,2.7-1.2
	c2.3,0,3.3,1.5,3.6,2.3c0.2,0.6,0.3,1.2,0.3,1.8v5.5c0,0.7,0,1.3-0.7,1.7c-0.2,0.1-0.5,0.3-0.9,0.3c-0.2,0-0.5,0-0.8-0.2
	c-0.8-0.5-0.7-1.5-0.7-1.7V383.2"/>
<path class="st0" d="M440.8,381.1c-0.5-0.5-1.4-0.5-1.5-0.5c-1,0-1.6,0.4-1.6,1c0,0.3,0.2,0.5,0.3,0.5c0.3,0.3,0.8,0.4,1.7,0.7
	c0.3,0.1,0.7,0.2,1,0.3c0.2,0,0.9,0.2,1.5,0.5c0.7,0.3,1.9,1,1.9,2.9c0,0.8-0.2,1.5-0.7,2.1c-1,1.2-2.6,1.5-4.1,1.5
	c-2.2,0-3.4-0.6-4.2-1.3c-0.2-0.1-0.8-0.7-0.8-1.6c0-0.8,0.6-1.4,1.5-1.4c0.6,0,0.9,0.3,1.2,0.7c0.2,0.2,0.3,0.5,0.5,0.7
	c0.3,0.3,0.9,0.5,1.8,0.5c0,0,1.6,0.1,1.6-1c0-0.1,0-0.3-0.1-0.5c-0.2-0.3-0.6-0.4-1.3-0.6c-1-0.3-2.4-0.6-3.3-1.1
	c-0.9-0.5-1.3-1.3-1.4-1.7c0-0.1-0.1-0.5-0.1-0.8c0-0.4,0-1.3,0.7-2.2c0.6-0.8,1.8-1.5,4-1.5c0.4,0,2.3,0,3.5,1.1
	c0.1,0.1,0.7,0.6,0.7,1.4c0,0.8-0.7,1.4-1.5,1.4c-0.7,0-1-0.4-1.1-0.6C441,381.3,441,381.2,440.8,381.1"/>
<path class="st0" d="M505.7,291.9c-2.1-5.2-8.2-14.2-22.7-14.2c-1.3,0-2.5,0.1-3.8,0.2c-1.2,0.1-2.4,0.4-3.5,0.6
	c-1.1,0.3-2.1,0.6-3.2,1c-1,0.3-1.9,0.8-2.8,1.2c-0.9,0.4-1.7,0.9-2.5,1.4c-0.7,0.5-1.5,0.9-2.2,1.5c-0.3,0.2-0.6,0.5-1,0.7
	c-0.1,0.1-0.3,0.3-0.4,0.4c-0.2,0.2-0.3-0.1-0.3-0.2c-0.1-0.2-0.2-0.4-0.3-0.6c0,0,0-0.1,0-0.1c-0.5-0.9-1.8-1.4-2.7-1.7
	c-1-0.4-2-0.6-3-0.8c-0.4-0.1-0.9-0.2-1.3-0.4c-0.5-0.3-0.8-0.7-1-1.3c-0.1-0.2-0.1-0.5-0.3-0.7c-0.3-0.2-0.8,0.1-0.9-0.3
	c-0.1-0.3-0.1-0.6,0.1-0.8c0.2-0.4,0.5-0.7,0.6-1.2c0.1-0.6,0.1-1,0.3-1.5c0.2-0.3,0.2-0.7,0.2-1c0.1-0.7,0-1.5-0.3-2.1
	c-0.4-0.9-0.6-1.9-1.3-2.6c-0.8-0.7-2.2-1-2.6-1.1c-0.3-0.1-0.7-0.1-1.1-0.1c-0.8,0-1.6,0.3-2.2,0.7c-0.3,0.2-0.6,0.3-0.8,0.6
	c-0.1,0.1-0.1,0.3-0.2,0.4c0,0.1,0,0.2,0,0.3c-0.1,0.5-0.5,0.9-0.7,1.3c-0.1,0.2-0.2,0.4-0.1,0.7c0,0.3-0.1,0.5-0.1,0.8
	c0,0.5,0,1,0,1.5c0,0.1,0,0.2,0,0.3c0,0.2,0.1,0.4,0.1,0.6c0.2,0.4,0.5,0.8,0.7,1.2c0.3,0.5,0.5,1,0.8,1.6c0,0.1,0.1,0.2,0.2,0.3
	c0.2,0.2,0.3,0.3,0.5,0.4c0.2,0.1,0.3,0.7,0.4,0.9c0.1,0.3-0.2,0.3-0.2,0.4c0,0.1,0,0.2,0,0.3c0.1,0.2,0.3,0.5,0.2,0.7
	c-0.3,0.5-0.8,0.7-1.3,0.9c-0.1,0.1-0.3,0.1-0.4,0.1c-0.2-0.8-0.7-1.8-1-2.4c-0.3-0.7-0.8-1.4-1.3-1.9c-0.5-0.6-1.2-0.7-2-0.7
	c-0.3,0-0.7-0.3-1-0.4c-1.6-0.2-2.3,1.4-3,2.6c-0.3,0.6-0.8,1.1-1.1,1.8c-0.2,0.4-0.3,0.9-0.4,1.4c-0.1,0.6,0.1,0.9,0.1,1.5
	c0.1,0.7-0.4,1.4-0.4,2.1c0,0.5,0.1,0.8,0.3,1.2c0.4,0.7,0.7,1.5,0.4,2.2c-0.3,0.8-1,1.4-1.8,1.8c-0.3,0.1-0.9,0.4-1.2,0.2
	c-0.9-0.5-0.7-1.9-1.4-2.5c-0.3-0.3-0.9-0.3-1.3-0.4c-0.6-0.1-1.1-0.4-0.5-1c0.1-0.1,0.2-0.3,0.3-0.5c0-0.1,0.1-0.2,0.2-0.2
	c0.1-0.1,0.2-0.1,0.3-0.1c0.2,0,0.2-0.2,0.3-0.3c0.2-0.3,0.5-0.6,0.6-0.9c0-0.1,0.1-0.4,0-0.5c0-0.1-0.3-0.2-0.3-0.2
	c0-0.2,0.1-0.5,0.2-0.7c0.2-0.5,0.2-1,0.1-1.6c0-0.6-0.3-1-0.7-1.4c-0.2-0.2-0.5-0.4-0.8-0.5c-0.2-0.1-0.5-0.1-0.8-0.1
	c-0.2,0-0.3-0.2-0.5-0.3c-0.3-0.2-0.8-0.2-1.1-0.2c-0.6-0.1-1.2,0-1.7,0.4c-0.3,0.2-0.2,0.3-0.4,0.6c-0.1,0.3-0.4,0.4-0.6,0.6
	c-0.2,0.2-0.3,0.5-0.4,0.7c-0.2,0.5-0.5,1.1-0.5,1.6c0,0.1,0,0.1,0.1,0.2c0.1,0.1,0.1,0.3,0,0.4c-0.1,0.2-0.3,0.2-0.3,0.4
	c0,0.4,0.4,0.7,0.5,1.1c0.1,0.3,0.2,0.7,0.5,0.8c0.1,0,0.3,0,0.4,0c0.4,0.1,0.5,0.8,0.6,1.1c0.2,0.6-0.4,0.8-0.8,1
	c-0.8,0.4-1.8,1.4-2.2,2.3c-0.3,0.7-1,2.8-1,3c-0.1,0.3-0.1,0.6-0.2,0.8c-0.1,0.2-0.2,0.4-0.2,0.6c0,0.2,0.7,1.8,1,2.2
	c0.3,0.4,0.6,0.6,1,0.9c0.2,0.2,0.4,0.3,0.6,0.5c0.1,0.1,0.3,0.2,0.4,0.3c0.1,0.2,0,0.4,0,0.6c0,0.2,0.2,0.3,0.3,0.5
	c0.1,0.2,0.1,0.4,0.1,0.6c0,0.4,0.1,0.9,0.3,1.3c0.3,0.7,0.8,1,1.4,1.4c0.5,0.3,0.4,0.9,0.6,1.4c0.2,0.5,0.6,0.8,1.1,1.1
	c1,0.6,0.7,1.3,0.3,2.2c-0.4,1-0.8,2.1-1.1,3.2c-0.2,0.5-0.3,1.1-0.3,1.6c0,0.3-0.2,1-0.1,1.3c0.1,0.3,0.3,0.1,0.4,0.5
	c0,0.3,0,0.7-0.2,0.9c-0.2,0.3-0.6,0.5-0.5,0.9c0.1,0.7,0.9,1.1,1.1,1.8c0.1,0.3,0,0.7,0,1c-0.1,2,0.3,4,0.6,6.1
	c0.4,2.5,1.8,10.9,2,11.2c0,0.1,0.1,0.2,0.1,0.2c0.1,0,0.3,0,0.4,0c0.1,0,0.1,0,0.2,0c0.1,0,0.1,0.3,0.1,0.4c0,0.1,0,0.3,0,0.4
	c0,0.3,0,0.7,0,1c0,0.7,0,1.5,0,2.2c0,0.6,0,1.3,0,1.9c0,0.2,0,0.5,0,0.7c0,0.1,0,0.1-0.1,0.1c-0.1,0-0.1,0-0.2,0
	c-0.1,0-0.2,0-0.2,0.1c-0.2,0.1-0.2,0.2-0.2,0.4c0,0.4,0,0.7,0,1.1c0,0.5,0,0.9,0,1.4c0,0.5,0,1,0,1.5c0.1,0.4,0.1,0.7,0.1,1.1
	c0.2,1.3,0.2,2.6,0.1,4c0,0.4-0.1,0.8-0.1,1.2c0,0.2,0,0.4-0.1,0.6c0,0.3-0.1,0.5-0.2,0.8c-0.1,0.2-0.2,0.4-0.4,0.6
	c-0.2,0.4-0.5,0.8-0.7,1.2c-0.4,0.7-0.8,1.3-1.2,2c-0.2,0.3-0.2,0.6,0.2,0.8c0.3,0.1,0.7,0,0.9-0.1c0.5-0.1,2.2-0.7,2.6-0.8
	c0.6-0.2,1-0.5,1.4-1.1c0.2-0.3,0.4-0.6,0.5-0.9c0.1-0.2,0.1-0.3,0.2-0.5c0,0,0.1-0.1,0.1-0.1c0.1,0,0.1,0,0.2,0
	c0.2,0.1,0.4,0.2,0.6,0.1c0.1-0.1,0.3-0.3,0.3-0.4c0.1-0.1,0.1-0.2,0.1-0.3c-0.1-0.3-0.1-0.6-0.1-0.9c0-0.2-0.1-0.4-0.1-0.5
	c-0.1-0.3,0-0.6,0-0.9l0-0.5c0-0.3,0-0.7,0-1c0-0.5-0.3-1-0.3-1.6c0-1.3,0.1-2.7,0.3-4c0.1-0.8,0.3-1.6,0.5-2.5
	c0.1-0.3,0.1-0.5,0.2-0.7c0-0.1,0.1-0.2,0-0.3c-0.1-0.1-0.4,0-0.4-0.1c0-0.1,0-0.2,0.1-0.2c0-0.1,0-0.2,0-0.3
	c0.1-0.2,0.1-0.4,0.1-0.6c0.1-0.5,0.2-1,0.3-1.5c0.1-0.4,0.1-0.7,0.1-1.1c0-0.5,0-1-0.1-1.5c0-0.3,0-0.5,0-0.8
	c0-0.2-0.1-0.5,0.1-0.6c0.2-0.1,0.5-0.1,0.6-0.1c0.3,0,0.5-0.1,0.8-0.1c0.1,0,0.4-0.1,0.5,0c0,0,0,0,0,0.1c0.1,0.1,0,0.4,0,0.5
	c0,0.5,0,1-0.1,1.5c0,0.4,0,1.6-0.1,1.7c-0.1,0.1-0.2,0-0.3,0.1c-0.1,0.1,0,3.6,0,4.8c0,0.4-0.1,0.9-0.2,1.3c-0.1,0.5-0.3,1-0.5,1.5
	c-0.2,0.5-0.2,1.2-0.2,1.7c0,0.8,0,1.7,0.1,2.5c0,0.3,0,0.6,0.1,1c0,0.5,1.1,0.6,1.3,0.4c0.1-0.1,0.2-0.4,0.2-0.4
	c0.1,0,0.1,0.2,0.2,0.3c0.1,0.2,0.1,0.4,0.2,0.6c0,0.2,0.1,0.4,0.1,0.5c0.1,0.4,1.4,0.6,2,0.7c0.6,0.1,1.5,0.2,1.5,0.2
	s1.3,0.2,1.2-0.5c0-0.3-0.2-0.5-0.5-0.7c-0.2-0.2-1-1-1.1-1.2c-0.2-0.2-0.3-0.4-0.5-0.6c-0.2-0.3-0.3-0.9-0.4-1.3
	c-0.1-0.4-0.2-0.7-0.3-1.1c-0.1-0.2-0.1-0.5-0.2-0.7c-0.1-0.3,0-0.6,0-0.9c0-0.3,0.1-0.6,0.1-0.9c0.1-0.7,0.2-1.3,0.4-2
	c0.3-0.9,0.5-1.8,0.8-2.7c0.1-0.5,0.3-0.9,0.4-1.4c0-0.1,0.1-0.4,0.1-0.4c-0.1-0.1-0.4-0.1-0.5-0.1c-0.1,0-0.1-0.1-0.1-0.2
	c0-0.2,0.1-0.4,0.1-0.7c0.1-0.5,0.2-1,0.3-1.5c0-0.2,0.1-0.4,0.1-0.6c0.1-0.4,0.1-0.8,0.1-1.1c0-0.2,0-0.4,0-0.6
	c0.1-0.2,0.3-0.2,0.4-0.2c0.1,0,0.4,0,0.5-0.1c0.1-0.1,0.1-0.2,0.1-0.4c0-0.3,0.1-0.7,0.1-1c0.1-0.7,0.1-1.3,0.2-2
	c0-0.3,0-1.4,0.1-1.6c0-0.2,0.2-0.3,0.3-0.1c0.1,0.1,0.1,0.2,0.1,0.3c0.1,0.3,0.2,0.7,0.2,1c0.3,1.2,0.5,2.4,0.8,3.6
	c0.3,1.4,0.6,2.8,0.9,4.1c0.3,1.4,0.7,2.8,1.1,4.2c0.4,1.2,0.7,2.5,1.2,3.7c0.1,0.3,0.2,0.6,0.4,0.9c0.2,0.3,0.3,0.7,0.5,1
	c0.2,0.3,0.3,0.6,0.5,0.8c0.2,0.2,0.3,0,0.5,0c0.2,0,0.3,0.1,0.2,0.4c-0.1,0.2-0.2,0.4-0.4,0.6c-0.2,0.3-0.5,0.7-0.8,1
	c-0.5,0.5-1.1,0.8-1.7,1.1c-0.5,0.2-1,0.3-1.6,0.4c-0.4,0.1-0.8,0.1-1.2,0.3c-0.3,0.1-0.4,0.4-0.5,0.7c0,0.1,0.1,0.3,0.1,0.4
	c0,0.1-0.1,0.1-0.1,0.2c-0.1,0.1-0.1,0.3,0,0.4c0.1,0.4,0.5,0.5,0.9,0.6c0.9,0.2,1.9,0.1,2.8,0.1c0.8-0.1,1.6-0.2,2.4-0.3
	c0.5-0.1,1-0.2,1.5-0.2c0.2,0,0.4-0.1,0.6-0.1c0.1,0,0.3-0.1,0.4,0c0.1,0.1,0.1,0.2,0.2,0.3c0.1,0.1,2.6,0,2.9,0
	c0.4,0,0.5-0.4,0.5-0.7c0-0.3,0-0.6,0-0.9c0-0.2,0-1,0.3-1c0.3,0,0.4,1.1,0.4,1.3c0,0.4,0,0.8,0,1.2c0,0.7-0.5,3,2.1,3
	c1.4,0,3.3,0,3.3-1.3c0-0.9-0.2-1.3-0.7-2.3c-0.3-0.6-0.6-1.3-0.9-1.9c-0.2-0.4-0.3-0.7-0.3-1.2c0-0.2,0-0.4,0-0.6
	c0-0.1,0-0.3,0.1-0.4c0.1,0,0.3,0,0.3-0.2c0-1.4-0.1-4.3-0.2-6.2c-0.1-1.5-0.3-4.5-0.9-7.7c-0.7-4.2-0.9-4.4-0.9-5
	c0.1-2.1-0.6-4-0.6-6.5c0-0.9-0.2-1.8-0.3-2.7c-0.1-0.4-0.1-0.7-0.2-1c-0.1-0.2-0.2-0.6-0.1-0.9c0.1-0.1,0.3-0.1,0.5-0.2
	c0.1-0.1,0.3-0.2,0.4-0.3c0.1-0.2,0.1-0.3,0.2-0.4c0.2-0.1,0.5,0,0.8-0.1c0.3-0.1,0.5-0.3,0.7-0.5c0.3-0.2,0.5-0.6,0.5-0.9
	c0-0.4,0-0.7,0.1-1.1c0.1-0.4,0.2-0.7,0.2-1.1c0-0.3-0.1-0.6,0.2-0.8c0.2-0.2,0.5-0.2,0.8-0.4c0.3-0.2,0.2-0.5,0.1-0.8
	c-0.2-0.9-0.2-1.7,0-2.6c0,0,0-0.1,0-0.2c0.1-0.8,0.2-1.7,0.4-2.5c0.2-1.2,0.5-2.4,0.7-3.6c0.1-0.6,0.2-1.1,0.3-1.7
	c0.1-0.5,0.3-2.3,0.2-4.1c0-0.3,0-0.4,0.2-0.5c0.2-0.1,0.3-0.2,0.5-0.2c0.3-0.1,0.6-0.3,0.9-0.4c1.1-0.4,2.4-0.7,3.6-0.7
	c2.4,0,7.6,0.9,8.9,7.3c0.3,1.2,0.3,2.1,0.3,4.5v31.7c0.2,2.3,0.2,4.2,0.8,6.4c1.7,5.5,5.8,8.3,7.6,9.2c2.4,1.1,4.9,1.1,5.8,1.1
	c6.7,0.1,11.8-4.2,13.5-10.8c0.5-2.1,0.5-3.2,0.6-5.5v-40.9C507,298,506.9,295.2,505.7,291.9"/>
</svg>
